<svg width="246" height="203" viewBox="0 0 246 203" fill="none" xmlns="http://www.w3.org/2000/svg">
<rect width="246" height="203" rx="5" fill="white"/>
<path d="M72.84 141.864V137.136C72.84 136.997 72.8453 136.845 72.856 136.68C72.8667 136.515 72.8827 136.347 72.904 136.176L68.728 141.864H72.84ZM75.824 141.864V142.68C75.824 142.765 75.7973 142.837 75.744 142.896C75.696 142.955 75.6187 142.984 75.512 142.984H74.088V146H72.84V142.984H67.752C67.6453 142.984 67.552 142.955 67.472 142.896C67.3973 142.832 67.3493 142.755 67.328 142.664L67.184 141.936L72.76 134.536H74.088V141.864H75.824ZM78.1933 146.168C78.1239 146.355 78.0146 146.493 77.8653 146.584C77.7213 146.675 77.5719 146.72 77.4173 146.72H76.8173L81.6253 134.744C81.6893 134.573 81.7853 134.443 81.9133 134.352C82.0466 134.261 82.1986 134.216 82.3693 134.216H82.9773L78.1933 146.168ZM88.1396 144.944C88.5236 144.944 88.8703 144.883 89.1796 144.76C89.4943 144.637 89.761 144.467 89.9796 144.248C90.2036 144.029 90.3743 143.771 90.4916 143.472C90.6143 143.173 90.6756 142.848 90.6756 142.496C90.6756 142.123 90.617 141.787 90.4996 141.488C90.3823 141.184 90.2143 140.928 89.9956 140.72C89.7823 140.507 89.5263 140.344 89.2276 140.232C88.929 140.12 88.601 140.064 88.2436 140.064C87.8596 140.064 87.513 140.131 87.2036 140.264C86.8943 140.392 86.6303 140.568 86.4116 140.792C86.1983 141.011 86.033 141.267 85.9156 141.56C85.8036 141.848 85.7476 142.149 85.7476 142.464C85.7476 142.832 85.801 143.168 85.9076 143.472C86.0143 143.776 86.169 144.037 86.3716 144.256C86.5796 144.475 86.8303 144.645 87.1236 144.768C87.4223 144.885 87.761 144.944 88.1396 144.944ZM87.3076 138.832C87.2063 138.96 87.1076 139.085 87.0116 139.208C86.921 139.325 86.833 139.443 86.7476 139.56C87.0196 139.373 87.3183 139.229 87.6436 139.128C87.969 139.027 88.3236 138.976 88.7076 138.976C89.1716 138.976 89.609 139.053 90.0196 139.208C90.4303 139.357 90.7876 139.579 91.0916 139.872C91.401 140.16 91.6463 140.517 91.8276 140.944C92.009 141.365 92.0996 141.848 92.0996 142.392C92.0996 142.92 92.0036 143.411 91.8116 143.864C91.6196 144.317 91.3503 144.712 91.0036 145.048C90.6623 145.384 90.249 145.648 89.7636 145.84C89.2836 146.032 88.753 146.128 88.1716 146.128C87.5956 146.128 87.073 146.037 86.6036 145.856C86.1343 145.669 85.7343 145.408 85.4036 145.072C85.0783 144.731 84.825 144.32 84.6436 143.84C84.4676 143.355 84.3796 142.813 84.3796 142.216C84.3796 141.715 84.489 141.181 84.7076 140.616C84.9316 140.045 85.2863 139.437 85.7716 138.792L88.6836 134.88C88.7583 134.784 88.8596 134.704 88.9876 134.64C89.121 134.571 89.273 134.536 89.4436 134.536H90.7076L87.3076 138.832Z" fill="black" fill-opacity="0.22"/>
<rect x="7" y="108" width="122" height="15" rx="7.5" fill="black" fill-opacity="0.22"/>
<rect x="7" y="93" width="72" height="9" rx="4.5" fill="#C7C7C7"/>
<path d="M0 5C0 2.23858 2.23858 0 5 0H241C243.761 0 246 2.23858 246 5V85H0V5Z" fill="black" fill-opacity="0.22"/>
<path d="M62 141.5C62 141.681 61.9254 141.854 61.7925 141.982C61.6597 142.11 61.4795 142.182 61.2917 142.182H53.5002C53.3123 142.182 53.1322 142.11 52.9993 141.982C52.8665 141.854 52.7919 141.681 52.7919 141.5C52.7919 141.319 52.8665 141.146 52.9993 141.018C53.1322 140.89 53.3123 140.818 53.5002 140.818H61.2917C61.4795 140.818 61.6597 140.89 61.7925 141.018C61.9254 141.146 62 141.319 62 141.5ZM53.5002 136.727H61.2917C61.4795 136.727 61.6597 136.656 61.7925 136.528C61.9254 136.4 62 136.227 62 136.046C62 135.865 61.9254 135.691 61.7925 135.564C61.6597 135.436 61.4795 135.364 61.2917 135.364H53.5002C53.3123 135.364 53.1322 135.436 52.9993 135.564C52.8665 135.691 52.7919 135.865 52.7919 136.046C52.7919 136.227 52.8665 136.4 52.9993 136.528C53.1322 136.656 53.3123 136.727 53.5002 136.727ZM61.2917 146.272H53.5002C53.3123 146.272 53.1322 146.344 52.9993 146.472C52.8665 146.6 52.7919 146.773 52.7919 146.954C52.7919 147.135 52.8665 147.308 52.9993 147.436C53.1322 147.564 53.3123 147.636 53.5002 147.636H61.2917C61.4795 147.636 61.6597 147.564 61.7925 147.436C61.9254 147.308 62 147.135 62 146.954C62 146.773 61.9254 146.6 61.7925 146.472C61.6597 146.344 61.4795 146.272 61.2917 146.272ZM49.4575 134.2L47.1253 136.445L46.2098 135.563C46.0769 135.435 45.8967 135.364 45.7087 135.364C45.5207 135.364 45.3405 135.435 45.2076 135.563C45.0747 135.691 45 135.865 45 136.046C45 136.227 45.0747 136.4 45.2076 136.528L46.6242 137.892C46.69 137.955 46.7681 138.005 46.8541 138.04C46.9401 138.074 47.0323 138.092 47.1253 138.092C47.2184 138.092 47.3106 138.074 47.3966 138.04C47.4826 138.005 47.5607 137.955 47.6265 137.892L50.4597 135.165C50.5927 135.037 50.6673 134.863 50.6673 134.682C50.6673 134.501 50.5927 134.328 50.4597 134.2C50.3268 134.072 50.1466 134 49.9586 134C49.7707 134 49.5904 134.072 49.4575 134.2ZM49.4575 139.654L47.1253 141.9L46.2098 141.018C46.0769 140.89 45.8967 140.818 45.7087 140.818C45.5207 140.818 45.3405 140.89 45.2076 141.018C45.0747 141.145 45 141.319 45 141.5C45 141.59 45.0183 141.678 45.0539 141.761C45.0896 141.844 45.1418 141.919 45.2076 141.982L46.6242 143.346C46.69 143.409 46.7681 143.46 46.8541 143.494C46.9401 143.528 47.0323 143.546 47.1253 143.546C47.2184 143.546 47.3106 143.528 47.3966 143.494C47.4826 143.46 47.5607 143.409 47.6265 143.346L50.4597 140.619C50.5927 140.491 50.6673 140.317 50.6673 140.136C50.6673 139.955 50.5927 139.782 50.4597 139.654C50.3268 139.526 50.1466 139.454 49.9586 139.454C49.7707 139.454 49.5904 139.526 49.4575 139.654ZM49.4575 145.108L47.1253 147.354L46.2098 146.472C46.144 146.408 46.0659 146.358 45.9799 146.324C45.8939 146.29 45.8018 146.272 45.7087 146.272C45.6156 146.272 45.5235 146.29 45.4375 146.324C45.3515 146.358 45.2734 146.408 45.2076 146.472C45.1418 146.535 45.0896 146.61 45.0539 146.693C45.0183 146.776 45 146.865 45 146.954C45 147.044 45.0183 147.132 45.0539 147.215C45.0896 147.298 45.1418 147.373 45.2076 147.436L46.6242 148.8C46.69 148.863 46.7681 148.914 46.8541 148.948C46.9401 148.982 47.0323 149 47.1253 149C47.2184 149 47.3106 148.982 47.3966 148.948C47.4826 148.914 47.5607 148.863 47.6265 148.8L50.4597 146.073C50.5927 145.945 50.6673 145.772 50.6673 145.591C50.6673 145.41 50.5927 145.236 50.4597 145.108C50.3268 144.98 50.1466 144.908 49.9586 144.908C49.7707 144.908 49.5904 144.98 49.4575 145.108Z" fill="black" fill-opacity="0.22"/>
<path d="M62.4845 176.508C62.5451 176.572 62.5932 176.648 62.626 176.732C62.6589 176.816 62.6758 176.907 62.6758 176.997C62.6758 177.088 62.6589 177.178 62.626 177.263C62.5932 177.347 62.5451 177.423 62.4845 177.487L55.7949 184.581C54.9385 185.49 53.777 186 52.566 186C51.3549 186 50.1935 185.489 49.3372 184.581C48.4809 183.672 47.9999 182.44 48 181.154C48.0001 179.869 48.4812 178.637 49.3376 177.729L57.4304 169.015C58.0418 168.366 58.8713 168 59.7364 168C60.6015 168 61.4313 168.364 62.0434 169.012C62.6554 169.661 62.9995 170.541 63 171.459C63.0005 172.377 62.6572 173.258 62.0458 173.907L53.9515 182.621C53.5839 183.011 53.0853 183.23 52.5654 183.23C52.0456 183.23 51.547 183.011 51.1794 182.621C50.8118 182.231 50.6053 181.702 50.6053 181.15C50.6053 180.598 50.8118 180.069 51.1794 179.679L57.9709 172.359C58.0304 172.291 58.102 172.237 58.1815 172.2C58.2609 172.162 58.3467 172.142 58.4337 172.14C58.5206 172.138 58.6071 172.155 58.6879 172.189C58.7687 172.223 58.8423 172.274 58.9043 172.339C58.9663 172.404 59.0155 172.481 59.0489 172.566C59.0824 172.651 59.0994 172.743 59.099 172.835C59.0987 172.927 59.0809 173.019 59.0468 173.103C59.0127 173.188 58.9629 173.265 58.9004 173.329L52.108 180.658C52.0472 180.722 51.9989 180.798 51.9658 180.882C51.9327 180.966 51.9155 181.056 51.9151 181.146C51.9148 181.237 51.9313 181.327 51.9638 181.412C51.9963 181.496 52.044 181.572 52.1044 181.637C52.1647 181.701 52.2364 181.752 52.3154 181.788C52.3945 181.823 52.4792 181.841 52.5649 181.841C52.6505 181.842 52.7354 181.824 52.8147 181.79C52.894 181.755 52.9661 181.705 53.0269 181.641L61.1205 172.931C61.4881 172.542 61.6949 172.014 61.6954 171.463C61.6959 170.912 61.4902 170.383 61.1233 169.993C60.7565 169.603 60.2586 169.384 59.7393 169.383C59.22 169.382 58.7217 169.601 58.3541 169.99L50.263 178.7C49.9599 179.021 49.7194 179.402 49.5551 179.822C49.3909 180.242 49.3062 180.692 49.3059 181.146C49.3055 181.601 49.3896 182.051 49.5531 182.471C49.7167 182.891 49.9567 183.273 50.2593 183.594C50.562 183.916 50.9213 184.171 51.3169 184.346C51.7125 184.52 52.1366 184.61 52.5649 184.61C52.9932 184.61 53.4174 184.521 53.8132 184.348C54.2091 184.174 54.5688 183.919 54.8719 183.598L61.5624 176.504C61.6851 176.375 61.8512 176.303 62.0241 176.304C62.197 176.304 62.3626 176.378 62.4845 176.508Z" fill="black" fill-opacity="0.22"/>
<path d="M73.144 181.912V183H67V181.912H69.456V174.096C69.456 173.861 69.464 173.624 69.48 173.384L67.44 175.136C67.3707 175.195 67.3013 175.232 67.232 175.248C67.1627 175.259 67.0987 175.259 67.04 175.248C66.9813 175.237 66.9253 175.216 66.872 175.184C66.824 175.152 66.7867 175.117 66.76 175.08L66.312 174.464L69.728 171.512H70.888V181.912H73.144Z" fill="black" fill-opacity="0.22"/>
<rect x="186" y="174" width="49" height="19" rx="5" fill="#F9C7A4"/>
<path d="M6 134.882C6 134.648 6.09658 134.424 6.26849 134.258C6.44039 134.093 6.67355 134 6.91667 134H27.0833C27.3264 134 27.5596 134.093 27.7315 134.258C27.9034 134.424 28 134.648 28 134.882C28 135.116 27.9034 135.341 27.7315 135.506C27.5596 135.672 27.3264 135.765 27.0833 135.765H6.91667C6.67355 135.765 6.44039 135.672 6.26849 135.506C6.09658 135.341 6 135.116 6 134.882ZM6.91667 140.176H21.5833C21.8264 140.176 22.0596 140.084 22.2315 139.918C22.4034 139.753 22.5 139.528 22.5 139.294C22.5 139.06 22.4034 138.836 22.2315 138.67C22.0596 138.505 21.8264 138.412 21.5833 138.412H6.91667C6.67355 138.412 6.44039 138.505 6.26849 138.67C6.09658 138.836 6 139.06 6 139.294C6 139.528 6.09658 139.753 6.26849 139.918C6.44039 140.084 6.67355 140.176 6.91667 140.176ZM27.0833 142.824H6.91667C6.67355 142.824 6.44039 142.916 6.26849 143.082C6.09658 143.247 6 143.472 6 143.706C6 143.94 6.09658 144.164 6.26849 144.33C6.44039 144.495 6.67355 144.588 6.91667 144.588H27.0833C27.3264 144.588 27.5596 144.495 27.7315 144.33C27.9034 144.164 28 143.94 28 143.706C28 143.472 27.9034 143.247 27.7315 143.082C27.5596 142.916 27.3264 142.824 27.0833 142.824ZM21.5833 147.235H6.91667C6.67355 147.235 6.44039 147.328 6.26849 147.494C6.09658 147.659 6 147.884 6 148.118C6 148.352 6.09658 148.576 6.26849 148.742C6.44039 148.907 6.67355 149 6.91667 149H21.5833C21.8264 149 22.0596 148.907 22.2315 148.742C22.4034 148.576 22.5 148.352 22.5 148.118C22.5 147.884 22.4034 147.659 22.2315 147.494C22.0596 147.328 21.8264 147.235 21.5833 147.235Z" fill="black" fill-opacity="0.22"/>
<path d="M197.108 187.184V188H192.5V187.184H194.342V181.322C194.342 181.146 194.348 180.968 194.36 180.788L192.83 182.102C192.778 182.146 192.726 182.174 192.674 182.186C192.622 182.194 192.574 182.194 192.53 182.186C192.486 182.178 192.444 182.162 192.404 182.138C192.368 182.114 192.34 182.088 192.32 182.06L191.984 181.598L194.546 179.384H195.416V187.184H197.108ZM204.447 179.402V179.882C204.447 180.018 204.431 180.13 204.399 180.218C204.371 180.306 204.343 180.38 204.315 180.44L200.751 187.622C200.699 187.726 200.627 187.816 200.535 187.892C200.443 187.964 200.321 188 200.169 188H199.401L203.013 180.908C203.065 180.808 203.119 180.716 203.175 180.632C203.231 180.548 203.291 180.468 203.355 180.392H198.867C198.799 180.392 198.739 180.366 198.687 180.314C198.635 180.258 198.609 180.196 198.609 180.128V179.402H204.447ZM218.036 179.402V188H217.016V181.682C217.016 181.598 217.018 181.508 217.022 181.412C217.03 181.316 217.038 181.218 217.046 181.118L214.094 186.494C214.002 186.674 213.862 186.764 213.674 186.764H213.506C213.318 186.764 213.178 186.674 213.086 186.494L210.074 181.094C210.098 181.306 210.11 181.502 210.11 181.682V188H209.09V179.402H209.948C210.052 179.402 210.132 179.412 210.188 179.432C210.244 179.452 210.298 179.508 210.35 179.6L213.32 184.892C213.368 184.988 213.414 185.088 213.458 185.192C213.506 185.296 213.55 185.402 213.59 185.51C213.63 185.402 213.672 185.296 213.716 185.192C213.76 185.084 213.808 184.982 213.86 184.886L216.776 179.6C216.824 179.508 216.876 179.452 216.932 179.432C216.992 179.412 217.074 179.402 217.178 179.402H218.036ZM223.101 185.264C222.609 185.28 222.189 185.32 221.841 185.384C221.497 185.444 221.215 185.524 220.995 185.624C220.779 185.724 220.621 185.842 220.521 185.978C220.425 186.114 220.377 186.266 220.377 186.434C220.377 186.594 220.403 186.732 220.455 186.848C220.507 186.964 220.577 187.06 220.665 187.136C220.757 187.208 220.863 187.262 220.983 187.298C221.107 187.33 221.239 187.346 221.379 187.346C221.567 187.346 221.739 187.328 221.895 187.292C222.051 187.252 222.197 187.196 222.333 187.124C222.473 187.052 222.605 186.966 222.729 186.866C222.857 186.766 222.981 186.652 223.101 186.524V185.264ZM219.651 182.78C219.987 182.456 220.349 182.214 220.737 182.054C221.125 181.894 221.555 181.814 222.027 181.814C222.367 181.814 222.669 181.87 222.933 181.982C223.197 182.094 223.419 182.25 223.599 182.45C223.779 182.65 223.915 182.892 224.007 183.176C224.099 183.46 224.145 183.772 224.145 184.112V188H223.671C223.567 188 223.487 187.984 223.431 187.952C223.375 187.916 223.331 187.848 223.299 187.748L223.179 187.172C223.019 187.32 222.863 187.452 222.711 187.568C222.559 187.68 222.399 187.776 222.231 187.856C222.063 187.932 221.883 187.99 221.691 188.03C221.503 188.074 221.293 188.096 221.061 188.096C220.825 188.096 220.603 188.064 220.395 188C220.187 187.932 220.005 187.832 219.849 187.7C219.697 187.568 219.575 187.402 219.483 187.202C219.395 186.998 219.351 186.758 219.351 186.482C219.351 186.242 219.417 186.012 219.549 185.792C219.681 185.568 219.895 185.37 220.191 185.198C220.487 185.026 220.873 184.886 221.349 184.778C221.825 184.666 222.409 184.602 223.101 184.586V184.112C223.101 183.64 222.999 183.284 222.795 183.044C222.591 182.8 222.293 182.678 221.901 182.678C221.637 182.678 221.415 182.712 221.235 182.78C221.059 182.844 220.905 182.918 220.773 183.002C220.645 183.082 220.533 183.156 220.437 183.224C220.345 183.288 220.253 183.32 220.161 183.32C220.089 183.32 220.027 183.302 219.975 183.266C219.923 183.226 219.879 183.178 219.843 183.122L219.651 182.78ZM230.875 181.922L227.485 189.794C227.449 189.874 227.403 189.938 227.347 189.986C227.295 190.034 227.213 190.058 227.101 190.058H226.309L227.419 187.646L224.911 181.922H225.835C225.927 181.922 225.999 181.946 226.051 181.994C226.107 182.038 226.145 182.088 226.165 182.144L227.791 185.972C227.855 186.14 227.909 186.316 227.953 186.5C228.009 186.312 228.069 186.134 228.133 185.966L229.711 182.144C229.735 182.08 229.775 182.028 229.831 181.988C229.891 181.944 229.957 181.922 230.029 181.922H230.875Z" fill="#A1673F"/>
<rect x="6" y="161" width="32" height="32" rx="16" fill="#C7C7C7"/>
</svg>
