<svg width="558" height="483" viewBox="0 0 558 483" fill="none" xmlns="http://www.w3.org/2000/svg">
<rect x="286" width="272" height="382" rx="8" fill="#F1F2F4"/>
<rect width="272" height="483" rx="8" fill="#F1F2F4"/>
<rect x="298" y="12" width="76" height="15" rx="7.5" fill="#D9D9D9"/>
<rect x="12" y="12" width="125" height="15" rx="7.5" fill="#D9D9D9"/>
<path d="M536.5 18.5C536.5 18.7967 536.412 19.0867 536.247 19.3334C536.082 19.58 535.848 19.7723 535.574 19.8858C535.3 19.9993 534.998 20.0291 534.707 19.9712C534.416 19.9133 534.149 19.7704 533.939 19.5607C533.73 19.3509 533.587 19.0836 533.529 18.7926C533.471 18.5017 533.501 18.2001 533.614 17.926C533.728 17.6519 533.92 17.4176 534.167 17.2528C534.413 17.088 534.703 17 535 17C535.398 17 535.779 17.158 536.061 17.4393C536.342 17.7206 536.5 18.1022 536.5 18.5ZM543.5 17C543.203 17 542.913 17.088 542.667 17.2528C542.42 17.4176 542.228 17.6519 542.114 17.926C542.001 18.2001 541.971 18.5017 542.029 18.7926C542.087 19.0836 542.23 19.3509 542.439 19.5607C542.649 19.7704 542.916 19.9133 543.207 19.9712C543.498 20.0291 543.8 19.9993 544.074 19.8858C544.348 19.7723 544.582 19.58 544.747 19.3334C544.912 19.0867 545 18.7967 545 18.5C545 18.1022 544.842 17.7206 544.561 17.4393C544.279 17.158 543.898 17 543.5 17ZM526.5 17C526.203 17 525.913 17.088 525.667 17.2528C525.42 17.4176 525.228 17.6519 525.114 17.926C525.001 18.2001 524.971 18.5017 525.029 18.7926C525.087 19.0836 525.23 19.3509 525.439 19.5607C525.649 19.7704 525.916 19.9133 526.207 19.9712C526.498 20.0291 526.8 19.9993 527.074 19.8858C527.348 19.7723 527.582 19.58 527.747 19.3334C527.912 19.0867 528 18.7967 528 18.5C528 18.1022 527.842 17.7206 527.561 17.4393C527.279 17.158 526.898 17 526.5 17Z" fill="#050000"/>
<path d="M250.5 18.5C250.5 18.7967 250.412 19.0867 250.247 19.3334C250.082 19.58 249.848 19.7723 249.574 19.8858C249.3 19.9993 248.998 20.0291 248.707 19.9712C248.416 19.9133 248.149 19.7704 247.939 19.5607C247.73 19.3509 247.587 19.0836 247.529 18.7926C247.471 18.5017 247.501 18.2001 247.614 17.926C247.728 17.6519 247.92 17.4176 248.167 17.2528C248.413 17.088 248.703 17 249 17C249.398 17 249.779 17.158 250.061 17.4393C250.342 17.7206 250.5 18.1022 250.5 18.5ZM257.5 17C257.203 17 256.913 17.088 256.667 17.2528C256.42 17.4176 256.228 17.6519 256.114 17.926C256.001 18.2001 255.971 18.5017 256.029 18.7926C256.087 19.0836 256.23 19.3509 256.439 19.5607C256.649 19.7704 256.916 19.9133 257.207 19.9712C257.498 20.0291 257.8 19.9993 258.074 19.8858C258.348 19.7723 258.582 19.58 258.747 19.3334C258.912 19.0867 259 18.7967 259 18.5C259 18.1022 258.842 17.7206 258.561 17.4393C258.279 17.158 257.898 17 257.5 17ZM240.5 17C240.203 17 239.913 17.088 239.667 17.2528C239.42 17.4176 239.228 17.6519 239.114 17.926C239.001 18.2001 238.971 18.5017 239.029 18.7926C239.087 19.0836 239.23 19.3509 239.439 19.5607C239.649 19.7704 239.916 19.9133 240.207 19.9712C240.498 20.0291 240.8 19.9993 241.074 19.8858C241.348 19.7723 241.582 19.58 241.747 19.3334C241.912 19.0867 242 18.7967 242 18.5C242 18.1022 241.842 17.7206 241.561 17.4393C241.279 17.158 240.898 17 240.5 17Z" fill="#050000"/>
<path d="M342 347.323C342 347.573 341.895 347.813 341.707 347.99C341.52 348.167 341.265 348.267 341 348.267H331V357.703C331 357.953 330.895 358.193 330.707 358.37C330.52 358.547 330.265 358.646 330 358.646C329.735 358.646 329.48 358.547 329.293 358.37C329.105 358.193 329 357.953 329 357.703V348.267H319C318.735 348.267 318.48 348.167 318.293 347.99C318.105 347.813 318 347.573 318 347.323C318 347.073 318.105 346.833 318.293 346.656C318.48 346.479 318.735 346.379 319 346.379H329V336.944C329 336.693 329.105 336.453 329.293 336.276C329.48 336.099 329.735 336 330 336C330.265 336 330.52 336.099 330.707 336.276C330.895 336.453 331 336.693 331 336.944V346.379H341C341.265 346.379 341.52 346.479 341.707 346.656C341.895 346.833 342 347.073 342 347.323Z" fill="black"/>
<path d="M364.552 349.631L362.752 344.967C362.699 344.829 362.643 344.669 362.584 344.487C362.525 344.301 362.469 344.103 362.416 343.895C362.304 344.327 362.189 344.687 362.072 344.975L360.272 349.631H364.552ZM367.784 353.887H366.584C366.445 353.887 366.333 353.853 366.248 353.783C366.163 353.714 366.099 353.626 366.056 353.519L364.984 350.751H359.84L358.768 353.519C358.736 353.615 358.675 353.701 358.584 353.775C358.493 353.85 358.381 353.887 358.248 353.887H357.048L361.632 342.423H363.2L367.784 353.887ZM374.064 347.711C373.798 347.354 373.51 347.106 373.2 346.967C372.891 346.823 372.544 346.751 372.16 346.751C371.408 346.751 370.83 347.021 370.424 347.559C370.019 348.098 369.816 348.866 369.816 349.863C369.816 350.391 369.862 350.845 369.952 351.223C370.043 351.597 370.176 351.906 370.352 352.151C370.528 352.391 370.744 352.567 371 352.679C371.256 352.791 371.547 352.847 371.872 352.847C372.342 352.847 372.75 352.741 373.096 352.527C373.448 352.314 373.771 352.013 374.064 351.623V347.711ZM375.488 342.103V353.887H374.64C374.438 353.887 374.31 353.789 374.256 353.591L374.128 352.607C373.782 353.023 373.387 353.359 372.944 353.615C372.502 353.871 371.99 353.999 371.408 353.999C370.944 353.999 370.523 353.911 370.144 353.735C369.766 353.554 369.443 353.29 369.176 352.943C368.91 352.597 368.704 352.165 368.56 351.647C368.416 351.13 368.344 350.535 368.344 349.863C368.344 349.266 368.424 348.711 368.584 348.199C368.744 347.682 368.974 347.234 369.272 346.855C369.571 346.477 369.936 346.181 370.368 345.967C370.806 345.749 371.296 345.639 371.84 345.639C372.336 345.639 372.76 345.725 373.112 345.895C373.47 346.061 373.787 346.293 374.064 346.591V342.103H375.488ZM383.017 347.711C382.751 347.354 382.463 347.106 382.153 346.967C381.844 346.823 381.497 346.751 381.113 346.751C380.361 346.751 379.783 347.021 379.377 347.559C378.972 348.098 378.769 348.866 378.769 349.863C378.769 350.391 378.815 350.845 378.905 351.223C378.996 351.597 379.129 351.906 379.305 352.151C379.481 352.391 379.697 352.567 379.953 352.679C380.209 352.791 380.5 352.847 380.825 352.847C381.295 352.847 381.703 352.741 382.049 352.527C382.401 352.314 382.724 352.013 383.017 351.623V347.711ZM384.441 342.103V353.887H383.593C383.391 353.887 383.263 353.789 383.209 353.591L383.081 352.607C382.735 353.023 382.34 353.359 381.897 353.615C381.455 353.871 380.943 353.999 380.361 353.999C379.897 353.999 379.476 353.911 379.097 353.735C378.719 353.554 378.396 353.29 378.129 352.943C377.863 352.597 377.657 352.165 377.513 351.647C377.369 351.13 377.297 350.535 377.297 349.863C377.297 349.266 377.377 348.711 377.537 348.199C377.697 347.682 377.927 347.234 378.225 346.855C378.524 346.477 378.889 346.181 379.321 345.967C379.759 345.749 380.249 345.639 380.793 345.639C381.289 345.639 381.713 345.725 382.065 345.895C382.423 346.061 382.74 346.293 383.017 346.591V342.103H384.441ZM395.176 350.239C394.52 350.261 393.96 350.314 393.496 350.399C393.038 350.479 392.662 350.586 392.368 350.719C392.08 350.853 391.87 351.01 391.736 351.191C391.608 351.373 391.544 351.575 391.544 351.799C391.544 352.013 391.579 352.197 391.648 352.351C391.718 352.506 391.811 352.634 391.928 352.735C392.051 352.831 392.192 352.903 392.352 352.951C392.518 352.994 392.694 353.015 392.88 353.015C393.131 353.015 393.36 352.991 393.568 352.943C393.776 352.89 393.971 352.815 394.152 352.719C394.339 352.623 394.515 352.509 394.68 352.375C394.851 352.242 395.016 352.09 395.176 351.919V350.239ZM390.576 346.927C391.024 346.495 391.507 346.173 392.024 345.959C392.542 345.746 393.115 345.639 393.744 345.639C394.198 345.639 394.6 345.714 394.952 345.863C395.304 346.013 395.6 346.221 395.84 346.487C396.08 346.754 396.262 347.077 396.384 347.455C396.507 347.834 396.568 348.25 396.568 348.703V353.887H395.936C395.798 353.887 395.691 353.866 395.616 353.823C395.542 353.775 395.483 353.685 395.44 353.551L395.28 352.783C395.067 352.981 394.859 353.157 394.656 353.311C394.454 353.461 394.24 353.589 394.016 353.695C393.792 353.797 393.552 353.874 393.296 353.927C393.046 353.986 392.766 354.015 392.456 354.015C392.142 354.015 391.846 353.973 391.568 353.887C391.291 353.797 391.048 353.663 390.84 353.487C390.638 353.311 390.475 353.09 390.352 352.823C390.235 352.551 390.176 352.231 390.176 351.863C390.176 351.543 390.264 351.237 390.44 350.943C390.616 350.645 390.902 350.381 391.296 350.151C391.691 349.922 392.206 349.735 392.84 349.591C393.475 349.442 394.254 349.357 395.176 349.335V348.703C395.176 348.074 395.04 347.599 394.768 347.279C394.496 346.954 394.099 346.791 393.576 346.791C393.224 346.791 392.928 346.837 392.688 346.927C392.454 347.013 392.248 347.111 392.072 347.223C391.902 347.33 391.752 347.429 391.624 347.519C391.502 347.605 391.379 347.647 391.256 347.647C391.16 347.647 391.078 347.623 391.008 347.575C390.939 347.522 390.88 347.458 390.832 347.383L390.576 346.927ZM408.471 347.223C408.428 347.282 408.386 347.327 408.343 347.359C408.3 347.391 408.242 347.407 408.167 347.407C408.087 347.407 407.999 347.375 407.903 347.311C407.807 347.242 407.687 347.167 407.543 347.087C407.404 347.007 407.231 346.935 407.023 346.871C406.82 346.802 406.57 346.767 406.271 346.767C405.871 346.767 405.519 346.839 405.215 346.983C404.911 347.122 404.655 347.325 404.447 347.591C404.244 347.858 404.09 348.181 403.983 348.559C403.882 348.938 403.831 349.362 403.831 349.831C403.831 350.322 403.887 350.759 403.999 351.143C404.111 351.522 404.268 351.842 404.471 352.103C404.679 352.359 404.927 352.557 405.215 352.695C405.508 352.829 405.836 352.895 406.199 352.895C406.546 352.895 406.831 352.855 407.055 352.775C407.279 352.69 407.463 352.597 407.607 352.495C407.756 352.394 407.879 352.303 407.975 352.223C408.076 352.138 408.175 352.095 408.271 352.095C408.388 352.095 408.479 352.141 408.543 352.231L408.943 352.751C408.767 352.97 408.567 353.157 408.343 353.311C408.119 353.466 407.876 353.597 407.615 353.703C407.359 353.805 407.09 353.879 406.807 353.927C406.524 353.975 406.236 353.999 405.943 353.999C405.436 353.999 404.964 353.906 404.527 353.719C404.095 353.533 403.719 353.263 403.399 352.911C403.079 352.554 402.828 352.117 402.647 351.599C402.466 351.082 402.375 350.493 402.375 349.831C402.375 349.229 402.458 348.671 402.623 348.159C402.794 347.647 403.039 347.207 403.359 346.839C403.684 346.466 404.082 346.175 404.551 345.967C405.026 345.759 405.57 345.655 406.183 345.655C406.754 345.655 407.255 345.749 407.687 345.935C408.124 346.117 408.511 346.375 408.847 346.711L408.471 347.223ZM414.864 350.239C414.208 350.261 413.648 350.314 413.184 350.399C412.725 350.479 412.349 350.586 412.056 350.719C411.768 350.853 411.557 351.01 411.424 351.191C411.296 351.373 411.232 351.575 411.232 351.799C411.232 352.013 411.266 352.197 411.336 352.351C411.405 352.506 411.498 352.634 411.616 352.735C411.738 352.831 411.88 352.903 412.04 352.951C412.205 352.994 412.381 353.015 412.568 353.015C412.818 353.015 413.048 352.991 413.256 352.943C413.464 352.89 413.658 352.815 413.84 352.719C414.026 352.623 414.202 352.509 414.368 352.375C414.538 352.242 414.704 352.09 414.864 351.919V350.239ZM410.264 346.927C410.712 346.495 411.194 346.173 411.712 345.959C412.229 345.746 412.802 345.639 413.432 345.639C413.885 345.639 414.288 345.714 414.64 345.863C414.992 346.013 415.288 346.221 415.528 346.487C415.768 346.754 415.949 347.077 416.072 347.455C416.194 347.834 416.256 348.25 416.256 348.703V353.887H415.624C415.485 353.887 415.378 353.866 415.304 353.823C415.229 353.775 415.17 353.685 415.128 353.551L414.968 352.783C414.754 352.981 414.546 353.157 414.344 353.311C414.141 353.461 413.928 353.589 413.704 353.695C413.48 353.797 413.24 353.874 412.984 353.927C412.733 353.986 412.453 354.015 412.144 354.015C411.829 354.015 411.533 353.973 411.256 353.887C410.978 353.797 410.736 353.663 410.528 353.487C410.325 353.311 410.162 353.09 410.04 352.823C409.922 352.551 409.864 352.231 409.864 351.863C409.864 351.543 409.952 351.237 410.128 350.943C410.304 350.645 410.589 350.381 410.984 350.151C411.378 349.922 411.893 349.735 412.528 349.591C413.162 349.442 413.941 349.357 414.864 349.335V348.703C414.864 348.074 414.728 347.599 414.456 347.279C414.184 346.954 413.786 346.791 413.264 346.791C412.912 346.791 412.616 346.837 412.376 346.927C412.141 347.013 411.936 347.111 411.76 347.223C411.589 347.33 411.44 347.429 411.312 347.519C411.189 347.605 411.066 347.647 410.944 347.647C410.848 347.647 410.765 347.623 410.696 347.575C410.626 347.522 410.568 347.458 410.52 347.383L410.264 346.927ZM419.777 347.407C420.033 346.853 420.348 346.421 420.721 346.111C421.094 345.797 421.55 345.639 422.089 345.639C422.26 345.639 422.422 345.658 422.577 345.695C422.737 345.733 422.878 345.791 423.001 345.871L422.897 346.935C422.865 347.069 422.785 347.135 422.657 347.135C422.582 347.135 422.473 347.119 422.329 347.087C422.185 347.055 422.022 347.039 421.841 347.039C421.585 347.039 421.356 347.077 421.153 347.151C420.956 347.226 420.777 347.338 420.617 347.487C420.462 347.631 420.321 347.813 420.193 348.031C420.07 348.245 419.958 348.49 419.857 348.767V353.887H418.425V345.783H419.241C419.396 345.783 419.502 345.813 419.561 345.871C419.62 345.93 419.66 346.031 419.681 346.175L419.777 347.407ZM429.221 347.711C428.954 347.354 428.666 347.106 428.357 346.967C428.047 346.823 427.701 346.751 427.317 346.751C426.565 346.751 425.986 347.021 425.581 347.559C425.175 348.098 424.973 348.866 424.973 349.863C424.973 350.391 425.018 350.845 425.109 351.223C425.199 351.597 425.333 351.906 425.509 352.151C425.685 352.391 425.901 352.567 426.157 352.679C426.413 352.791 426.703 352.847 427.029 352.847C427.498 352.847 427.906 352.741 428.253 352.527C428.605 352.314 428.927 352.013 429.221 351.623V347.711ZM430.645 342.103V353.887H429.797C429.594 353.887 429.466 353.789 429.413 353.591L429.285 352.607C428.938 353.023 428.543 353.359 428.101 353.615C427.658 353.871 427.146 353.999 426.565 353.999C426.101 353.999 425.679 353.911 425.301 353.735C424.922 353.554 424.599 353.29 424.333 352.943C424.066 352.597 423.861 352.165 423.717 351.647C423.573 351.13 423.501 350.535 423.501 349.863C423.501 349.266 423.581 348.711 423.741 348.199C423.901 347.682 424.13 347.234 424.429 346.855C424.727 346.477 425.093 346.181 425.525 345.967C425.962 345.749 426.453 345.639 426.997 345.639C427.493 345.639 427.917 345.725 428.269 345.895C428.626 346.061 428.943 346.293 429.221 346.591V342.103H430.645Z" fill="black"/>
<path d="M53 447.323C53 447.573 52.8946 447.813 52.7071 447.99C52.5196 448.167 52.2652 448.267 52 448.267H42V457.703C42 457.953 41.8946 458.193 41.7071 458.37C41.5196 458.547 41.2652 458.646 41 458.646C40.7348 458.646 40.4804 458.547 40.2929 458.37C40.1054 458.193 40 457.953 40 457.703V448.267H30C29.7348 448.267 29.4804 448.167 29.2929 447.99C29.1054 447.813 29 447.573 29 447.323C29 447.073 29.1054 446.833 29.2929 446.656C29.4804 446.479 29.7348 446.379 30 446.379H40V436.944C40 436.693 40.1054 436.453 40.2929 436.276C40.4804 436.099 40.7348 436 41 436C41.2652 436 41.5196 436.099 41.7071 436.276C41.8946 436.453 42 436.693 42 436.944V446.379H52C52.2652 446.379 52.5196 446.479 52.7071 446.656C52.8946 446.833 53 447.073 53 447.323Z" fill="black"/>
<path d="M75.552 449.631L73.752 444.967C73.6987 444.829 73.6427 444.669 73.584 444.487C73.5253 444.301 73.4693 444.103 73.416 443.895C73.304 444.327 73.1893 444.687 73.072 444.975L71.272 449.631H75.552ZM78.784 453.887H77.584C77.4453 453.887 77.3333 453.853 77.248 453.783C77.1627 453.714 77.0987 453.626 77.056 453.519L75.984 450.751H70.84L69.768 453.519C69.736 453.615 69.6747 453.701 69.584 453.775C69.4933 453.85 69.3813 453.887 69.248 453.887H68.048L72.632 442.423H74.2L78.784 453.887ZM85.0643 447.711C84.7976 447.354 84.5096 447.106 84.2003 446.967C83.8909 446.823 83.5443 446.751 83.1603 446.751C82.4083 446.751 81.8296 447.021 81.4243 447.559C81.0189 448.098 80.8163 448.866 80.8163 449.863C80.8163 450.391 80.8616 450.845 80.9523 451.223C81.0429 451.597 81.1763 451.906 81.3523 452.151C81.5283 452.391 81.7443 452.567 82.0003 452.679C82.2563 452.791 82.5469 452.847 82.8723 452.847C83.3416 452.847 83.7496 452.741 84.0963 452.527C84.4483 452.314 84.7709 452.013 85.0643 451.623V447.711ZM86.4883 442.103V453.887H85.6403C85.4376 453.887 85.3096 453.789 85.2563 453.591L85.1283 452.607C84.7816 453.023 84.3869 453.359 83.9443 453.615C83.5016 453.871 82.9896 453.999 82.4083 453.999C81.9443 453.999 81.5229 453.911 81.1443 453.735C80.7656 453.554 80.4429 453.29 80.1763 452.943C79.9096 452.597 79.7043 452.165 79.5603 451.647C79.4163 451.13 79.3443 450.535 79.3443 449.863C79.3443 449.266 79.4243 448.711 79.5843 448.199C79.7443 447.682 79.9736 447.234 80.2723 446.855C80.5709 446.477 80.9363 446.181 81.3683 445.967C81.8056 445.749 82.2963 445.639 82.8403 445.639C83.3363 445.639 83.7603 445.725 84.1123 445.895C84.4696 446.061 84.7869 446.293 85.0643 446.591V442.103H86.4883ZM94.0174 447.711C93.7507 447.354 93.4627 447.106 93.1534 446.967C92.844 446.823 92.4974 446.751 92.1134 446.751C91.3614 446.751 90.7827 447.021 90.3774 447.559C89.972 448.098 89.7694 448.866 89.7694 449.863C89.7694 450.391 89.8147 450.845 89.9054 451.223C89.996 451.597 90.1294 451.906 90.3054 452.151C90.4814 452.391 90.6974 452.567 90.9534 452.679C91.2094 452.791 91.5 452.847 91.8254 452.847C92.2947 452.847 92.7027 452.741 93.0494 452.527C93.4014 452.314 93.724 452.013 94.0174 451.623V447.711ZM95.4414 442.103V453.887H94.5934C94.3907 453.887 94.2627 453.789 94.2094 453.591L94.0814 452.607C93.7347 453.023 93.34 453.359 92.8974 453.615C92.4547 453.871 91.9427 453.999 91.3614 453.999C90.8974 453.999 90.476 453.911 90.0974 453.735C89.7187 453.554 89.396 453.29 89.1294 452.943C88.8627 452.597 88.6574 452.165 88.5134 451.647C88.3694 451.13 88.2974 450.535 88.2974 449.863C88.2974 449.266 88.3774 448.711 88.5374 448.199C88.6974 447.682 88.9267 447.234 89.2254 446.855C89.524 446.477 89.8894 446.181 90.3214 445.967C90.7587 445.749 91.2494 445.639 91.7934 445.639C92.2894 445.639 92.7134 445.725 93.0654 445.895C93.4227 446.061 93.74 446.293 94.0174 446.591V442.103H95.4414ZM106.176 450.239C105.52 450.261 104.96 450.314 104.496 450.399C104.038 450.479 103.662 450.586 103.368 450.719C103.08 450.853 102.87 451.01 102.736 451.191C102.608 451.373 102.544 451.575 102.544 451.799C102.544 452.013 102.579 452.197 102.648 452.351C102.718 452.506 102.811 452.634 102.928 452.735C103.051 452.831 103.192 452.903 103.352 452.951C103.518 452.994 103.694 453.015 103.88 453.015C104.131 453.015 104.36 452.991 104.568 452.943C104.776 452.89 104.971 452.815 105.152 452.719C105.339 452.623 105.515 452.509 105.68 452.375C105.851 452.242 106.016 452.09 106.176 451.919V450.239ZM101.576 446.927C102.024 446.495 102.507 446.173 103.024 445.959C103.542 445.746 104.115 445.639 104.744 445.639C105.198 445.639 105.6 445.714 105.952 445.863C106.304 446.013 106.6 446.221 106.84 446.487C107.08 446.754 107.262 447.077 107.384 447.455C107.507 447.834 107.568 448.25 107.568 448.703V453.887H106.936C106.798 453.887 106.691 453.866 106.616 453.823C106.542 453.775 106.483 453.685 106.44 453.551L106.28 452.783C106.067 452.981 105.859 453.157 105.656 453.311C105.454 453.461 105.24 453.589 105.016 453.695C104.792 453.797 104.552 453.874 104.296 453.927C104.046 453.986 103.766 454.015 103.456 454.015C103.142 454.015 102.846 453.973 102.568 453.887C102.291 453.797 102.048 453.663 101.84 453.487C101.638 453.311 101.475 453.09 101.352 452.823C101.235 452.551 101.176 452.231 101.176 451.863C101.176 451.543 101.264 451.237 101.44 450.943C101.616 450.645 101.902 450.381 102.296 450.151C102.691 449.922 103.206 449.735 103.84 449.591C104.475 449.442 105.254 449.357 106.176 449.335V448.703C106.176 448.074 106.04 447.599 105.768 447.279C105.496 446.954 105.099 446.791 104.576 446.791C104.224 446.791 103.928 446.837 103.688 446.927C103.454 447.013 103.248 447.111 103.072 447.223C102.902 447.33 102.752 447.429 102.624 447.519C102.502 447.605 102.379 447.647 102.256 447.647C102.16 447.647 102.078 447.623 102.008 447.575C101.939 447.522 101.88 447.458 101.832 447.383L101.576 446.927ZM119.471 447.223C119.428 447.282 119.386 447.327 119.343 447.359C119.3 447.391 119.242 447.407 119.167 447.407C119.087 447.407 118.999 447.375 118.903 447.311C118.807 447.242 118.687 447.167 118.543 447.087C118.404 447.007 118.231 446.935 118.023 446.871C117.82 446.802 117.57 446.767 117.271 446.767C116.871 446.767 116.519 446.839 116.215 446.983C115.911 447.122 115.655 447.325 115.447 447.591C115.244 447.858 115.09 448.181 114.983 448.559C114.882 448.938 114.831 449.362 114.831 449.831C114.831 450.322 114.887 450.759 114.999 451.143C115.111 451.522 115.268 451.842 115.471 452.103C115.679 452.359 115.927 452.557 116.215 452.695C116.508 452.829 116.836 452.895 117.199 452.895C117.546 452.895 117.831 452.855 118.055 452.775C118.279 452.69 118.463 452.597 118.607 452.495C118.756 452.394 118.879 452.303 118.975 452.223C119.076 452.138 119.175 452.095 119.271 452.095C119.388 452.095 119.479 452.141 119.543 452.231L119.943 452.751C119.767 452.97 119.567 453.157 119.343 453.311C119.119 453.466 118.876 453.597 118.615 453.703C118.359 453.805 118.09 453.879 117.807 453.927C117.524 453.975 117.236 453.999 116.943 453.999C116.436 453.999 115.964 453.906 115.527 453.719C115.095 453.533 114.719 453.263 114.399 452.911C114.079 452.554 113.828 452.117 113.647 451.599C113.466 451.082 113.375 450.493 113.375 449.831C113.375 449.229 113.458 448.671 113.623 448.159C113.794 447.647 114.039 447.207 114.359 446.839C114.684 446.466 115.082 446.175 115.551 445.967C116.026 445.759 116.57 445.655 117.183 445.655C117.754 445.655 118.255 445.749 118.687 445.935C119.124 446.117 119.511 446.375 119.847 446.711L119.471 447.223ZM125.864 450.239C125.208 450.261 124.648 450.314 124.184 450.399C123.725 450.479 123.349 450.586 123.056 450.719C122.768 450.853 122.557 451.01 122.424 451.191C122.296 451.373 122.232 451.575 122.232 451.799C122.232 452.013 122.266 452.197 122.336 452.351C122.405 452.506 122.498 452.634 122.616 452.735C122.738 452.831 122.88 452.903 123.04 452.951C123.205 452.994 123.381 453.015 123.568 453.015C123.818 453.015 124.048 452.991 124.256 452.943C124.464 452.89 124.658 452.815 124.84 452.719C125.026 452.623 125.202 452.509 125.368 452.375C125.538 452.242 125.704 452.09 125.864 451.919V450.239ZM121.264 446.927C121.712 446.495 122.194 446.173 122.712 445.959C123.229 445.746 123.802 445.639 124.432 445.639C124.885 445.639 125.288 445.714 125.64 445.863C125.992 446.013 126.288 446.221 126.528 446.487C126.768 446.754 126.949 447.077 127.072 447.455C127.194 447.834 127.256 448.25 127.256 448.703V453.887H126.624C126.485 453.887 126.378 453.866 126.304 453.823C126.229 453.775 126.17 453.685 126.128 453.551L125.968 452.783C125.754 452.981 125.546 453.157 125.344 453.311C125.141 453.461 124.928 453.589 124.704 453.695C124.48 453.797 124.24 453.874 123.984 453.927C123.733 453.986 123.453 454.015 123.144 454.015C122.829 454.015 122.533 453.973 122.256 453.887C121.978 453.797 121.736 453.663 121.528 453.487C121.325 453.311 121.162 453.09 121.04 452.823C120.922 452.551 120.864 452.231 120.864 451.863C120.864 451.543 120.952 451.237 121.128 450.943C121.304 450.645 121.589 450.381 121.984 450.151C122.378 449.922 122.893 449.735 123.528 449.591C124.162 449.442 124.941 449.357 125.864 449.335V448.703C125.864 448.074 125.728 447.599 125.456 447.279C125.184 446.954 124.786 446.791 124.264 446.791C123.912 446.791 123.616 446.837 123.376 446.927C123.141 447.013 122.936 447.111 122.76 447.223C122.589 447.33 122.44 447.429 122.312 447.519C122.189 447.605 122.066 447.647 121.944 447.647C121.848 447.647 121.765 447.623 121.696 447.575C121.626 447.522 121.568 447.458 121.52 447.383L121.264 446.927ZM130.777 447.407C131.033 446.853 131.348 446.421 131.721 446.111C132.094 445.797 132.55 445.639 133.089 445.639C133.26 445.639 133.422 445.658 133.577 445.695C133.737 445.733 133.878 445.791 134.001 445.871L133.897 446.935C133.865 447.069 133.785 447.135 133.657 447.135C133.582 447.135 133.473 447.119 133.329 447.087C133.185 447.055 133.022 447.039 132.841 447.039C132.585 447.039 132.356 447.077 132.153 447.151C131.956 447.226 131.777 447.338 131.617 447.487C131.462 447.631 131.321 447.813 131.193 448.031C131.07 448.245 130.958 448.49 130.857 448.767V453.887H129.425V445.783H130.241C130.396 445.783 130.502 445.813 130.561 445.871C130.62 445.93 130.66 446.031 130.681 446.175L130.777 447.407ZM140.221 447.711C139.954 447.354 139.666 447.106 139.357 446.967C139.047 446.823 138.701 446.751 138.317 446.751C137.565 446.751 136.986 447.021 136.581 447.559C136.175 448.098 135.973 448.866 135.973 449.863C135.973 450.391 136.018 450.845 136.109 451.223C136.199 451.597 136.333 451.906 136.509 452.151C136.685 452.391 136.901 452.567 137.157 452.679C137.413 452.791 137.703 452.847 138.029 452.847C138.498 452.847 138.906 452.741 139.253 452.527C139.605 452.314 139.927 452.013 140.221 451.623V447.711ZM141.645 442.103V453.887H140.797C140.594 453.887 140.466 453.789 140.413 453.591L140.285 452.607C139.938 453.023 139.543 453.359 139.101 453.615C138.658 453.871 138.146 453.999 137.565 453.999C137.101 453.999 136.679 453.911 136.301 453.735C135.922 453.554 135.599 453.29 135.333 452.943C135.066 452.597 134.861 452.165 134.717 451.647C134.573 451.13 134.501 450.535 134.501 449.863C134.501 449.266 134.581 448.711 134.741 448.199C134.901 447.682 135.13 447.234 135.429 446.855C135.727 446.477 136.093 446.181 136.525 445.967C136.962 445.749 137.453 445.639 137.997 445.639C138.493 445.639 138.917 445.725 139.269 445.895C139.626 446.061 139.943 446.293 140.221 446.591V442.103H141.645Z" fill="black"/>
<rect x="13" y="121" width="246" height="194" rx="5" fill="white"/>
<path d="M87.04 247.64C87.1147 247.117 87.2587 246.656 87.472 246.256C87.6853 245.851 87.9547 245.512 88.28 245.24C88.6107 244.968 88.9867 244.763 89.408 244.624C89.8347 244.48 90.2933 244.408 90.784 244.408C91.2693 244.408 91.7173 244.477 92.128 244.616C92.5387 244.755 92.8907 244.952 93.184 245.208C93.4827 245.464 93.7147 245.773 93.88 246.136C94.0453 246.499 94.128 246.901 94.128 247.344C94.128 247.707 94.08 248.032 93.984 248.32C93.8933 248.603 93.76 248.851 93.584 249.064C93.4133 249.277 93.2053 249.459 92.96 249.608C92.7147 249.757 92.44 249.88 92.136 249.976C92.8827 250.168 93.4427 250.499 93.816 250.968C94.1947 251.432 94.384 252.013 94.384 252.712C94.384 253.24 94.2827 253.715 94.08 254.136C93.8827 254.557 93.6107 254.917 93.264 255.216C92.9173 255.509 92.512 255.736 92.048 255.896C91.5893 256.051 91.096 256.128 90.568 256.128C89.96 256.128 89.44 256.053 89.008 255.904C88.576 255.749 88.2107 255.539 87.912 255.272C87.6133 255.005 87.368 254.691 87.176 254.328C86.984 253.96 86.8213 253.563 86.688 253.136L87.304 252.88C87.464 252.811 87.6187 252.792 87.768 252.824C87.9227 252.856 88.0347 252.944 88.104 253.088C88.1733 253.237 88.2587 253.416 88.36 253.624C88.4667 253.832 88.6107 254.032 88.792 254.224C88.9733 254.416 89.2027 254.579 89.48 254.712C89.7627 254.845 90.12 254.912 90.552 254.912C90.952 254.912 91.3013 254.848 91.6 254.72C91.904 254.587 92.1547 254.416 92.352 254.208C92.5547 254 92.7067 253.768 92.808 253.512C92.9093 253.256 92.96 253.003 92.96 252.752C92.96 252.443 92.92 252.16 92.84 251.904C92.76 251.648 92.6107 251.427 92.392 251.24C92.1733 251.053 91.872 250.907 91.488 250.8C91.1093 250.693 90.6213 250.64 90.024 250.64V249.608C90.5147 249.603 90.9307 249.549 91.272 249.448C91.6187 249.347 91.8987 249.208 92.112 249.032C92.3307 248.856 92.488 248.645 92.584 248.4C92.6853 248.155 92.736 247.883 92.736 247.584C92.736 247.253 92.6827 246.965 92.576 246.72C92.4747 246.475 92.3333 246.272 92.152 246.112C91.9707 245.952 91.7547 245.832 91.504 245.752C91.2587 245.672 90.992 245.632 90.704 245.632C90.416 245.632 90.1467 245.675 89.896 245.76C89.6507 245.845 89.432 245.965 89.24 246.12C89.0533 246.269 88.896 246.448 88.768 246.656C88.64 246.864 88.5493 247.093 88.496 247.344C88.4267 247.531 88.3387 247.656 88.232 247.72C88.1307 247.779 87.9813 247.795 87.784 247.768L87.04 247.64ZM97.1933 256.168C97.1239 256.355 97.0146 256.493 96.8653 256.584C96.7213 256.675 96.5719 256.72 96.4173 256.72H95.8173L100.625 244.744C100.689 244.573 100.785 244.443 100.913 244.352C101.047 244.261 101.199 244.216 101.369 244.216H101.977L97.1933 256.168ZM105.412 248.864C106.009 248.736 106.558 248.672 107.06 248.672C107.657 248.672 108.185 248.76 108.644 248.936C109.102 249.112 109.484 249.355 109.788 249.664C110.097 249.973 110.329 250.339 110.484 250.76C110.644 251.181 110.724 251.64 110.724 252.136C110.724 252.744 110.617 253.293 110.404 253.784C110.196 254.275 109.905 254.696 109.532 255.048C109.164 255.395 108.729 255.661 108.228 255.848C107.726 256.035 107.185 256.128 106.604 256.128C106.268 256.128 105.945 256.093 105.636 256.024C105.326 255.96 105.036 255.872 104.764 255.76C104.497 255.648 104.249 255.52 104.02 255.376C103.79 255.232 103.588 255.08 103.412 254.92L103.852 254.312C103.948 254.173 104.073 254.104 104.228 254.104C104.334 254.104 104.454 254.147 104.588 254.232C104.721 254.312 104.884 254.403 105.076 254.504C105.268 254.605 105.492 254.699 105.748 254.784C106.009 254.864 106.318 254.904 106.676 254.904C107.076 254.904 107.436 254.84 107.756 254.712C108.076 254.584 108.35 254.403 108.58 254.168C108.809 253.928 108.985 253.643 109.108 253.312C109.23 252.981 109.292 252.611 109.292 252.2C109.292 251.843 109.238 251.52 109.132 251.232C109.03 250.944 108.873 250.699 108.66 250.496C108.452 250.293 108.19 250.136 107.876 250.024C107.561 249.912 107.193 249.856 106.772 249.856C106.484 249.856 106.182 249.88 105.868 249.928C105.558 249.976 105.241 250.053 104.916 250.16L104.02 249.896L104.94 244.536H110.372V245.16C110.372 245.363 110.308 245.531 110.18 245.664C110.057 245.792 109.844 245.856 109.54 245.856H105.94L105.412 248.864Z" fill="black"/>
<rect x="20" y="218" width="97" height="15" rx="7.5" fill="#A7A7A7"/>
<path d="M39.6923 244H25.3077C24.9609 244 24.6283 244.132 24.383 244.366C24.1378 244.601 24 244.918 24 245.25V257.75C23.9985 257.988 24.0691 258.222 24.2032 258.423C24.3373 258.624 24.5293 258.784 24.756 258.883C24.9288 258.96 25.1171 259 25.3077 259C25.6147 258.999 25.9115 258.895 26.1455 258.705L26.1528 258.699L28.8221 256.5H39.6923C40.0391 256.5 40.3717 256.368 40.617 256.134C40.8622 255.899 41 255.582 41 255.25V245.25C41 244.918 40.8622 244.601 40.617 244.366C40.3717 244.132 40.0391 244 39.6923 244ZM39.6923 255.25H28.5769C28.4199 255.25 28.2682 255.304 28.1495 255.402L25.3077 257.75V245.25H39.6923V255.25Z" fill="black"/>
<path d="M52.144 254.912V256H46V254.912H48.456V247.096C48.456 246.861 48.464 246.624 48.48 246.384L46.44 248.136C46.3707 248.195 46.3013 248.232 46.232 248.248C46.1627 248.259 46.0987 248.259 46.04 248.248C45.9813 248.237 45.9253 248.216 45.872 248.184C45.824 248.152 45.7867 248.117 45.76 248.08L45.312 247.464L48.728 244.512H49.888V254.912H52.144Z" fill="black"/>
<path d="M13 126C13 123.239 15.2386 121 18 121H254C256.761 121 259 123.239 259 126V206H13V126Z" fill="#FFC811"/>
<path d="M239.5 134.5C239.5 134.797 239.412 135.087 239.247 135.333C239.082 135.58 238.848 135.772 238.574 135.886C238.3 135.999 237.998 136.029 237.707 135.971C237.416 135.913 237.149 135.77 236.939 135.561C236.73 135.351 236.587 135.084 236.529 134.793C236.471 134.502 236.501 134.2 236.614 133.926C236.728 133.652 236.92 133.418 237.167 133.253C237.413 133.088 237.703 133 238 133C238.398 133 238.779 133.158 239.061 133.439C239.342 133.721 239.5 134.102 239.5 134.5ZM246.5 133C246.203 133 245.913 133.088 245.667 133.253C245.42 133.418 245.228 133.652 245.114 133.926C245.001 134.2 244.971 134.502 245.029 134.793C245.087 135.084 245.23 135.351 245.439 135.561C245.649 135.77 245.916 135.913 246.207 135.971C246.498 136.029 246.8 135.999 247.074 135.886C247.348 135.772 247.582 135.58 247.747 135.333C247.912 135.087 248 134.797 248 134.5C248 134.102 247.842 133.721 247.561 133.439C247.279 133.158 246.898 133 246.5 133ZM229.5 133C229.203 133 228.913 133.088 228.667 133.253C228.42 133.418 228.228 133.652 228.114 133.926C228.001 134.2 227.971 134.502 228.029 134.793C228.087 135.084 228.23 135.351 228.439 135.561C228.649 135.77 228.916 135.913 229.207 135.971C229.498 136.029 229.8 135.999 230.074 135.886C230.348 135.772 230.582 135.58 230.747 135.333C230.912 135.087 231 134.797 231 134.5C231 134.102 230.842 133.721 230.561 133.439C230.279 133.158 229.898 133 229.5 133Z" fill="#050000"/>
<path d="M81 251.5C81 251.681 80.9254 251.854 80.7925 251.982C80.6597 252.11 80.4795 252.182 80.2917 252.182H72.5002C72.3123 252.182 72.1322 252.11 71.9993 251.982C71.8665 251.854 71.7919 251.681 71.7919 251.5C71.7919 251.319 71.8665 251.146 71.9993 251.018C72.1322 250.89 72.3123 250.818 72.5002 250.818H80.2917C80.4795 250.818 80.6597 250.89 80.7925 251.018C80.9254 251.146 81 251.319 81 251.5ZM72.5002 246.727H80.2917C80.4795 246.727 80.6597 246.656 80.7925 246.528C80.9254 246.4 81 246.227 81 246.046C81 245.865 80.9254 245.691 80.7925 245.564C80.6597 245.436 80.4795 245.364 80.2917 245.364H72.5002C72.3123 245.364 72.1322 245.436 71.9993 245.564C71.8665 245.691 71.7919 245.865 71.7919 246.046C71.7919 246.227 71.8665 246.4 71.9993 246.528C72.1322 246.656 72.3123 246.727 72.5002 246.727ZM80.2917 256.272H72.5002C72.3123 256.272 72.1322 256.344 71.9993 256.472C71.8665 256.6 71.7919 256.773 71.7919 256.954C71.7919 257.135 71.8665 257.308 71.9993 257.436C72.1322 257.564 72.3123 257.636 72.5002 257.636H80.2917C80.4795 257.636 80.6597 257.564 80.7925 257.436C80.9254 257.308 81 257.135 81 256.954C81 256.773 80.9254 256.6 80.7925 256.472C80.6597 256.344 80.4795 256.272 80.2917 256.272ZM68.4575 244.2L66.1253 246.445L65.2098 245.563C65.0769 245.435 64.8967 245.364 64.7087 245.364C64.5207 245.364 64.3405 245.435 64.2076 245.563C64.0747 245.691 64 245.865 64 246.046C64 246.227 64.0747 246.4 64.2076 246.528L65.6242 247.892C65.69 247.955 65.7681 248.005 65.8541 248.04C65.9401 248.074 66.0323 248.092 66.1253 248.092C66.2184 248.092 66.3106 248.074 66.3966 248.04C66.4826 248.005 66.5607 247.955 66.6265 247.892L69.4597 245.165C69.5927 245.037 69.6673 244.863 69.6673 244.682C69.6673 244.501 69.5927 244.328 69.4597 244.2C69.3268 244.072 69.1466 244 68.9586 244C68.7707 244 68.5904 244.072 68.4575 244.2ZM68.4575 249.654L66.1253 251.9L65.2098 251.018C65.0769 250.89 64.8967 250.818 64.7087 250.818C64.5207 250.818 64.3405 250.89 64.2076 251.018C64.0747 251.145 64 251.319 64 251.5C64 251.59 64.0183 251.678 64.0539 251.761C64.0896 251.844 64.1418 251.919 64.2076 251.982L65.6242 253.346C65.69 253.409 65.7681 253.46 65.8541 253.494C65.9401 253.528 66.0323 253.546 66.1253 253.546C66.2184 253.546 66.3106 253.528 66.3966 253.494C66.4826 253.46 66.5607 253.409 66.6265 253.346L69.4597 250.619C69.5927 250.491 69.6673 250.317 69.6673 250.136C69.6673 249.955 69.5927 249.782 69.4597 249.654C69.3268 249.526 69.1466 249.454 68.9586 249.454C68.7707 249.454 68.5904 249.526 68.4575 249.654ZM68.4575 255.108L66.1253 257.354L65.2098 256.472C65.144 256.408 65.0659 256.358 64.9799 256.324C64.8939 256.29 64.8018 256.272 64.7087 256.272C64.6156 256.272 64.5235 256.29 64.4375 256.324C64.3515 256.358 64.2734 256.408 64.2076 256.472C64.1418 256.535 64.0896 256.61 64.0539 256.693C64.0183 256.776 64 256.865 64 256.954C64 257.044 64.0183 257.132 64.0539 257.215C64.0896 257.298 64.1418 257.373 64.2076 257.436L65.6242 258.8C65.69 258.863 65.7681 258.914 65.8541 258.948C65.9401 258.982 66.0323 259 66.1253 259C66.2184 259 66.3106 258.982 66.3966 258.948C66.4826 258.914 66.5607 258.863 66.6265 258.8L69.4597 256.073C69.5927 255.945 69.6673 255.772 69.6673 255.591C69.6673 255.41 69.5927 255.236 69.4597 255.108C69.3268 254.98 69.1466 254.908 68.9586 254.908C68.7707 254.908 68.5904 254.98 68.4575 255.108Z" fill="black"/>
<circle cx="36" cy="287" r="16" fill="#D9D9D9"/>
<rect x="298" y="116" width="246" height="203" rx="5" fill="white"/>
<path d="M334.896 260.648C335.051 260.648 335.173 260.693 335.264 260.784C335.355 260.875 335.4 260.992 335.4 261.136V262H327.752V261.512C327.752 261.411 327.773 261.307 327.816 261.2C327.859 261.093 327.925 260.995 328.016 260.904L331.688 257.216C331.992 256.907 332.269 256.611 332.52 256.328C332.771 256.04 332.984 255.752 333.16 255.464C333.336 255.176 333.472 254.885 333.568 254.592C333.664 254.293 333.712 253.976 333.712 253.64C333.712 253.304 333.659 253.011 333.552 252.76C333.445 252.504 333.299 252.293 333.112 252.128C332.931 251.963 332.715 251.84 332.464 251.76C332.213 251.675 331.944 251.632 331.656 251.632C331.363 251.632 331.093 251.675 330.848 251.76C330.603 251.845 330.384 251.965 330.192 252.12C330.005 252.269 329.848 252.448 329.72 252.656C329.592 252.864 329.501 253.093 329.448 253.344C329.384 253.531 329.296 253.656 329.184 253.72C329.077 253.779 328.925 253.795 328.728 253.768L327.984 253.64C328.059 253.117 328.203 252.656 328.416 252.256C328.635 251.851 328.907 251.512 329.232 251.24C329.563 250.968 329.939 250.763 330.36 250.624C330.781 250.48 331.237 250.408 331.728 250.408C332.213 250.408 332.667 250.48 333.088 250.624C333.509 250.768 333.875 250.979 334.184 251.256C334.493 251.528 334.736 251.861 334.912 252.256C335.088 252.651 335.176 253.099 335.176 253.6C335.176 254.027 335.112 254.424 334.984 254.792C334.856 255.155 334.683 255.501 334.464 255.832C334.245 256.163 333.992 256.485 333.704 256.8C333.421 257.115 333.12 257.432 332.8 257.752L329.776 260.84C329.989 260.781 330.205 260.736 330.424 260.704C330.643 260.667 330.853 260.648 331.056 260.648H334.896ZM338.193 262.168C338.124 262.355 338.015 262.493 337.865 262.584C337.721 262.675 337.572 262.72 337.417 262.72H336.817L341.625 250.744C341.689 250.573 341.785 250.443 341.913 250.352C342.047 250.261 342.199 250.216 342.369 250.216H342.977L338.193 262.168ZM348.156 260.992C348.529 260.992 348.862 260.941 349.156 260.84C349.454 260.733 349.705 260.587 349.908 260.4C350.116 260.208 350.273 259.981 350.38 259.72C350.492 259.453 350.548 259.16 350.548 258.84C350.548 258.445 350.481 258.109 350.348 257.832C350.22 257.549 350.044 257.32 349.82 257.144C349.601 256.968 349.348 256.84 349.06 256.76C348.772 256.675 348.47 256.632 348.156 256.632C347.841 256.632 347.54 256.675 347.252 256.76C346.964 256.84 346.708 256.968 346.484 257.144C346.265 257.32 346.089 257.549 345.956 257.832C345.828 258.109 345.764 258.445 345.764 258.84C345.764 259.16 345.817 259.453 345.924 259.72C346.036 259.981 346.193 260.208 346.396 260.4C346.604 260.587 346.854 260.733 347.148 260.84C347.446 260.941 347.782 260.992 348.156 260.992ZM348.156 251.512C347.814 251.512 347.513 251.563 347.252 251.664C346.996 251.765 346.78 251.904 346.604 252.08C346.433 252.256 346.302 252.461 346.212 252.696C346.126 252.931 346.084 253.181 346.084 253.448C346.084 253.709 346.121 253.963 346.196 254.208C346.27 254.453 346.39 254.672 346.556 254.864C346.721 255.051 346.934 255.203 347.196 255.32C347.462 255.432 347.782 255.488 348.156 255.488C348.529 255.488 348.846 255.432 349.108 255.32C349.374 255.203 349.59 255.051 349.756 254.864C349.921 254.672 350.041 254.453 350.116 254.208C350.19 253.963 350.228 253.709 350.228 253.448C350.228 253.181 350.182 252.931 350.092 252.696C350.006 252.461 349.876 252.256 349.7 252.08C349.529 251.904 349.313 251.765 349.052 251.664C348.796 251.563 348.497 251.512 348.156 251.512ZM349.796 256.024C350.51 256.227 351.06 256.565 351.444 257.04C351.828 257.515 352.02 258.123 352.02 258.864C352.02 259.365 351.924 259.819 351.732 260.224C351.545 260.624 351.281 260.965 350.94 261.248C350.604 261.531 350.198 261.749 349.724 261.904C349.249 262.053 348.726 262.128 348.156 262.128C347.585 262.128 347.062 262.053 346.588 261.904C346.113 261.749 345.705 261.531 345.364 261.248C345.022 260.965 344.758 260.624 344.572 260.224C344.385 259.819 344.292 259.365 344.292 258.864C344.292 258.123 344.484 257.515 344.868 257.04C345.252 256.565 345.801 256.227 346.516 256.024C345.913 255.8 345.457 255.467 345.148 255.024C344.844 254.576 344.692 254.043 344.692 253.424C344.692 253.003 344.774 252.608 344.94 252.24C345.105 251.872 345.34 251.552 345.644 251.28C345.948 251.008 346.31 250.795 346.732 250.64C347.158 250.485 347.633 250.408 348.156 250.408C348.673 250.408 349.145 250.485 349.572 250.64C349.998 250.795 350.364 251.008 350.668 251.28C350.972 251.552 351.206 251.872 351.372 252.24C351.537 252.608 351.62 253.003 351.62 253.424C351.62 254.043 351.465 254.576 351.156 255.024C350.852 255.467 350.398 255.8 349.796 256.024Z" fill="black"/>
<rect x="305" y="224" width="122" height="15" rx="7.5" fill="#A7A7A7"/>
<rect x="305" y="209" width="72" height="7" rx="3.5" fill="#9747FF"/>
<path d="M298 121C298 118.239 300.239 116 303 116H539C541.761 116 544 118.239 544 121V201H298V121Z" fill="#FF7A00"/>
<path d="M322 257.5C322 257.681 321.925 257.854 321.793 257.982C321.66 258.11 321.48 258.182 321.292 258.182H313.5C313.312 258.182 313.132 258.11 312.999 257.982C312.867 257.854 312.792 257.681 312.792 257.5C312.792 257.319 312.867 257.146 312.999 257.018C313.132 256.89 313.312 256.818 313.5 256.818H321.292C321.48 256.818 321.66 256.89 321.793 257.018C321.925 257.146 322 257.319 322 257.5ZM313.5 252.727H321.292C321.48 252.727 321.66 252.656 321.793 252.528C321.925 252.4 322 252.227 322 252.046C322 251.865 321.925 251.691 321.793 251.564C321.66 251.436 321.48 251.364 321.292 251.364H313.5C313.312 251.364 313.132 251.436 312.999 251.564C312.867 251.691 312.792 251.865 312.792 252.046C312.792 252.227 312.867 252.4 312.999 252.528C313.132 252.656 313.312 252.727 313.5 252.727ZM321.292 262.272H313.5C313.312 262.272 313.132 262.344 312.999 262.472C312.867 262.6 312.792 262.773 312.792 262.954C312.792 263.135 312.867 263.308 312.999 263.436C313.132 263.564 313.312 263.636 313.5 263.636H321.292C321.48 263.636 321.66 263.564 321.793 263.436C321.925 263.308 322 263.135 322 262.954C322 262.773 321.925 262.6 321.793 262.472C321.66 262.344 321.48 262.272 321.292 262.272ZM309.457 250.2L307.125 252.445L306.21 251.563C306.077 251.435 305.897 251.364 305.709 251.364C305.521 251.364 305.34 251.435 305.208 251.563C305.075 251.691 305 251.865 305 252.046C305 252.227 305.075 252.4 305.208 252.528L306.624 253.892C306.69 253.955 306.768 254.005 306.854 254.04C306.94 254.074 307.032 254.092 307.125 254.092C307.218 254.092 307.311 254.074 307.397 254.04C307.483 254.005 307.561 253.955 307.626 253.892L310.46 251.165C310.593 251.037 310.667 250.863 310.667 250.682C310.667 250.501 310.593 250.328 310.46 250.2C310.327 250.072 310.147 250 309.959 250C309.771 250 309.59 250.072 309.457 250.2ZM309.457 255.654L307.125 257.9L306.21 257.018C306.077 256.89 305.897 256.818 305.709 256.818C305.521 256.818 305.34 256.89 305.208 257.018C305.075 257.145 305 257.319 305 257.5C305 257.59 305.018 257.678 305.054 257.761C305.09 257.844 305.142 257.919 305.208 257.982L306.624 259.346C306.69 259.409 306.768 259.46 306.854 259.494C306.94 259.528 307.032 259.546 307.125 259.546C307.218 259.546 307.311 259.528 307.397 259.494C307.483 259.46 307.561 259.409 307.626 259.346L310.46 256.619C310.593 256.491 310.667 256.317 310.667 256.136C310.667 255.955 310.593 255.782 310.46 255.654C310.327 255.526 310.147 255.454 309.959 255.454C309.771 255.454 309.59 255.526 309.457 255.654ZM309.457 261.108L307.125 263.354L306.21 262.472C306.144 262.408 306.066 262.358 305.98 262.324C305.894 262.29 305.802 262.272 305.709 262.272C305.616 262.272 305.523 262.29 305.437 262.324C305.352 262.358 305.273 262.408 305.208 262.472C305.142 262.535 305.09 262.61 305.054 262.693C305.018 262.776 305 262.865 305 262.954C305 263.044 305.018 263.132 305.054 263.215C305.09 263.298 305.142 263.373 305.208 263.436L306.624 264.8C306.69 264.863 306.768 264.914 306.854 264.948C306.94 264.982 307.032 265 307.125 265C307.218 265 307.311 264.982 307.397 264.948C307.483 264.914 307.561 264.863 307.626 264.8L310.46 262.073C310.593 261.945 310.667 261.772 310.667 261.591C310.667 261.41 310.593 261.236 310.46 261.108C310.327 260.98 310.147 260.908 309.959 260.908C309.771 260.908 309.59 260.98 309.457 261.108Z" fill="black"/>
<circle cx="321" cy="293" r="16" fill="#D9D9D9"/>
<path d="M367.484 292.508C367.545 292.572 367.593 292.648 367.626 292.732C367.659 292.816 367.676 292.907 367.676 292.997C367.676 293.088 367.659 293.178 367.626 293.263C367.593 293.347 367.545 293.423 367.484 293.487L360.795 300.581C359.938 301.49 358.777 302 357.566 302C356.355 302 355.194 301.489 354.337 300.581C353.481 299.672 353 298.44 353 297.154C353 295.869 353.481 294.637 354.338 293.729L362.43 285.015C363.042 284.366 363.871 284 364.736 284C365.601 284 366.431 284.364 367.043 285.012C367.655 285.661 368 286.541 368 287.459C368 288.377 367.657 289.258 367.046 289.907L358.951 298.621C358.584 299.011 358.085 299.23 357.565 299.23C357.046 299.23 356.547 299.011 356.179 298.621C355.812 298.231 355.605 297.702 355.605 297.15C355.605 296.598 355.812 296.069 356.179 295.679L362.971 288.359C363.03 288.291 363.102 288.237 363.181 288.2C363.261 288.162 363.347 288.142 363.434 288.14C363.521 288.138 363.607 288.155 363.688 288.189C363.769 288.223 363.842 288.274 363.904 288.339C363.966 288.404 364.015 288.481 364.049 288.566C364.082 288.651 364.099 288.743 364.099 288.835C364.099 288.927 364.081 289.019 364.047 289.103C364.013 289.188 363.963 289.265 363.9 289.329L357.108 296.658C357.047 296.722 356.999 296.798 356.966 296.882C356.933 296.966 356.915 297.056 356.915 297.146C356.915 297.237 356.931 297.327 356.964 297.412C356.996 297.496 357.044 297.572 357.104 297.637C357.165 297.701 357.236 297.752 357.315 297.788C357.394 297.823 357.479 297.841 357.565 297.841C357.651 297.842 357.735 297.824 357.815 297.79C357.894 297.755 357.966 297.705 358.027 297.641L366.12 288.931C366.488 288.542 366.695 288.014 366.695 287.463C366.696 286.912 366.49 286.383 366.123 285.993C365.756 285.603 365.259 285.384 364.739 285.383C364.22 285.382 363.722 285.601 363.354 285.99L355.263 294.7C354.96 295.021 354.719 295.402 354.555 295.822C354.391 296.242 354.306 296.692 354.306 297.146C354.306 297.601 354.39 298.051 354.553 298.471C354.717 298.891 354.957 299.273 355.259 299.594C355.562 299.916 355.921 300.171 356.317 300.346C356.712 300.52 357.137 300.61 357.565 300.61C357.993 300.61 358.417 300.521 358.813 300.348C359.209 300.174 359.569 299.919 359.872 299.598L366.562 292.504C366.685 292.375 366.851 292.303 367.024 292.304C367.197 292.304 367.363 292.378 367.484 292.508Z" fill="black"/>
<path d="M371.04 290.64C371.115 290.117 371.259 289.656 371.472 289.256C371.685 288.851 371.955 288.512 372.28 288.24C372.611 287.968 372.987 287.763 373.408 287.624C373.835 287.48 374.293 287.408 374.784 287.408C375.269 287.408 375.717 287.477 376.128 287.616C376.539 287.755 376.891 287.952 377.184 288.208C377.483 288.464 377.715 288.773 377.88 289.136C378.045 289.499 378.128 289.901 378.128 290.344C378.128 290.707 378.08 291.032 377.984 291.32C377.893 291.603 377.76 291.851 377.584 292.064C377.413 292.277 377.205 292.459 376.96 292.608C376.715 292.757 376.44 292.88 376.136 292.976C376.883 293.168 377.443 293.499 377.816 293.968C378.195 294.432 378.384 295.013 378.384 295.712C378.384 296.24 378.283 296.715 378.08 297.136C377.883 297.557 377.611 297.917 377.264 298.216C376.917 298.509 376.512 298.736 376.048 298.896C375.589 299.051 375.096 299.128 374.568 299.128C373.96 299.128 373.44 299.053 373.008 298.904C372.576 298.749 372.211 298.539 371.912 298.272C371.613 298.005 371.368 297.691 371.176 297.328C370.984 296.96 370.821 296.563 370.688 296.136L371.304 295.88C371.464 295.811 371.619 295.792 371.768 295.824C371.923 295.856 372.035 295.944 372.104 296.088C372.173 296.237 372.259 296.416 372.36 296.624C372.467 296.832 372.611 297.032 372.792 297.224C372.973 297.416 373.203 297.579 373.48 297.712C373.763 297.845 374.12 297.912 374.552 297.912C374.952 297.912 375.301 297.848 375.6 297.72C375.904 297.587 376.155 297.416 376.352 297.208C376.555 297 376.707 296.768 376.808 296.512C376.909 296.256 376.96 296.003 376.96 295.752C376.96 295.443 376.92 295.16 376.84 294.904C376.76 294.648 376.611 294.427 376.392 294.24C376.173 294.053 375.872 293.907 375.488 293.8C375.109 293.693 374.621 293.64 374.024 293.64V292.608C374.515 292.603 374.931 292.549 375.272 292.448C375.619 292.347 375.899 292.208 376.112 292.032C376.331 291.856 376.488 291.645 376.584 291.4C376.685 291.155 376.736 290.883 376.736 290.584C376.736 290.253 376.683 289.965 376.576 289.72C376.475 289.475 376.333 289.272 376.152 289.112C375.971 288.952 375.755 288.832 375.504 288.752C375.259 288.672 374.992 288.632 374.704 288.632C374.416 288.632 374.147 288.675 373.896 288.76C373.651 288.845 373.432 288.965 373.24 289.12C373.053 289.269 372.896 289.448 372.768 289.656C372.64 289.864 372.549 290.093 372.496 290.344C372.427 290.531 372.339 290.656 372.232 290.72C372.131 290.779 371.981 290.795 371.784 290.768L371.04 290.64Z" fill="black"/>
<rect x="484" y="290" width="49" height="19" rx="5" fill="#EAF5EA"/>
<rect x="489" y="297" width="40" height="4" rx="2" fill="#4AAF50"/>
<rect x="13" y="324" width="246" height="77" rx="5" fill="white"/>
<path d="M239.5 337.5C239.5 337.797 239.412 338.087 239.247 338.333C239.082 338.58 238.848 338.772 238.574 338.886C238.3 338.999 237.998 339.029 237.707 338.971C237.416 338.913 237.149 338.77 236.939 338.561C236.73 338.351 236.587 338.084 236.529 337.793C236.471 337.502 236.501 337.2 236.614 336.926C236.728 336.652 236.92 336.418 237.167 336.253C237.413 336.088 237.703 336 238 336C238.398 336 238.779 336.158 239.061 336.439C239.342 336.721 239.5 337.102 239.5 337.5ZM246.5 336C246.203 336 245.913 336.088 245.667 336.253C245.42 336.418 245.228 336.652 245.114 336.926C245.001 337.2 244.971 337.502 245.029 337.793C245.087 338.084 245.23 338.351 245.439 338.561C245.649 338.77 245.916 338.913 246.207 338.971C246.498 339.029 246.8 338.999 247.074 338.886C247.348 338.772 247.582 338.58 247.747 338.333C247.912 338.087 248 337.797 248 337.5C248 337.102 247.842 336.721 247.561 336.439C247.279 336.158 246.898 336 246.5 336ZM229.5 336C229.203 336 228.913 336.088 228.667 336.253C228.42 336.418 228.228 336.652 228.114 336.926C228.001 337.2 227.971 337.502 228.029 337.793C228.087 338.084 228.23 338.351 228.439 338.561C228.649 338.77 228.916 338.913 229.207 338.971C229.498 339.029 229.8 338.999 230.074 338.886C230.348 338.772 230.582 338.58 230.747 338.333C230.912 338.087 231 337.797 231 337.5C231 337.102 230.842 336.721 230.561 336.439C230.279 336.158 229.898 336 229.5 336Z" fill="#050000"/>
<rect x="20" y="336" width="180" height="15" rx="7.5" fill="#A7A7A7"/>
<circle cx="36" cy="378" r="16" fill="#D9D9D9"/>
<rect x="200" y="375" width="49" height="19" rx="5" fill="#F6E3E5"/>
<rect x="204" y="382" width="40" height="4" rx="2" fill="#AF0120"/>
<rect x="297" y="44" width="249" height="61" rx="5" fill="#DBDCDE"/>
<rect x="175" y="16" width="246" height="61" rx="5" fill="white"/>
<path d="M401.5 29.5C401.5 29.7967 401.412 30.0867 401.247 30.3334C401.082 30.58 400.848 30.7723 400.574 30.8858C400.3 30.9993 399.998 31.0291 399.707 30.9712C399.416 30.9133 399.149 30.7704 398.939 30.5607C398.73 30.3509 398.587 30.0836 398.529 29.7926C398.471 29.5017 398.501 29.2001 398.614 28.926C398.728 28.6519 398.92 28.4176 399.167 28.2528C399.413 28.088 399.703 28 400 28C400.398 28 400.779 28.158 401.061 28.4393C401.342 28.7206 401.5 29.1022 401.5 29.5ZM408.5 28C408.203 28 407.913 28.088 407.667 28.2528C407.42 28.4176 407.228 28.6519 407.114 28.926C407.001 29.2001 406.971 29.5017 407.029 29.7926C407.087 30.0836 407.23 30.3509 407.439 30.5607C407.649 30.7704 407.916 30.9133 408.207 30.9712C408.498 31.0291 408.8 30.9993 409.074 30.8858C409.348 30.7723 409.582 30.58 409.747 30.3334C409.912 30.0867 410 29.7967 410 29.5C410 29.1022 409.842 28.7206 409.561 28.4393C409.279 28.158 408.898 28 408.5 28ZM391.5 28C391.203 28 390.913 28.088 390.667 28.2528C390.42 28.4176 390.228 28.6519 390.114 28.926C390.001 29.2001 389.971 29.5017 390.029 29.7926C390.087 30.0836 390.23 30.3509 390.439 30.5607C390.649 30.7704 390.916 30.9133 391.207 30.9712C391.498 31.0291 391.8 30.9993 392.074 30.8858C392.348 30.7723 392.582 30.58 392.747 30.3334C392.912 30.0867 393 29.7967 393 29.5C393 29.1022 392.842 28.7206 392.561 28.4393C392.279 28.158 391.898 28 391.5 28Z" fill="#050000"/>
<rect x="182" y="28" width="183" height="15" rx="7.5" fill="#A7A7A7"/>
<path d="M525.5 128.5C525.5 128.797 525.412 129.087 525.247 129.333C525.082 129.58 524.848 129.772 524.574 129.886C524.3 129.999 523.998 130.029 523.707 129.971C523.416 129.913 523.149 129.77 522.939 129.561C522.73 129.351 522.587 129.084 522.529 128.793C522.471 128.502 522.501 128.2 522.614 127.926C522.728 127.652 522.92 127.418 523.167 127.253C523.413 127.088 523.703 127 524 127C524.398 127 524.779 127.158 525.061 127.439C525.342 127.721 525.5 128.102 525.5 128.5ZM532.5 127C532.203 127 531.913 127.088 531.667 127.253C531.42 127.418 531.228 127.652 531.114 127.926C531.001 128.2 530.971 128.502 531.029 128.793C531.087 129.084 531.23 129.351 531.439 129.561C531.649 129.77 531.916 129.913 532.207 129.971C532.498 130.029 532.8 129.999 533.074 129.886C533.348 129.772 533.582 129.58 533.747 129.333C533.912 129.087 534 128.797 534 128.5C534 128.102 533.842 127.721 533.561 127.439C533.279 127.158 532.898 127 532.5 127ZM515.5 127C515.203 127 514.913 127.088 514.667 127.253C514.42 127.418 514.228 127.652 514.114 127.926C514.001 128.2 513.971 128.502 514.029 128.793C514.087 129.084 514.23 129.351 514.439 129.561C514.649 129.77 514.916 129.913 515.207 129.971C515.498 130.029 515.8 129.999 516.074 129.886C516.348 129.772 516.582 129.58 516.747 129.333C516.912 129.087 517 128.797 517 128.5C517 128.102 516.842 127.721 516.561 127.439C516.279 127.158 515.898 127 515.5 127Z" fill="#050000"/>
</svg>
