<svg width="246" height="203" viewBox="0 0 246 203" fill="none" xmlns="http://www.w3.org/2000/svg">
<rect width="246" height="203" rx="5" fill="white"/>
<path d="M75.144 144.912V146H69V144.912H71.456V137.096C71.456 136.861 71.464 136.624 71.48 136.384L69.44 138.136C69.3707 138.195 69.3013 138.232 69.232 138.248C69.1627 138.259 69.0987 138.259 69.04 138.248C68.9813 138.237 68.9253 138.216 68.872 138.184C68.824 138.152 68.7867 138.117 68.76 138.08L68.312 137.464L71.728 134.512H72.888V144.912H75.144ZM78.1933 146.168C78.1239 146.355 78.0146 146.493 77.8653 146.584C77.7213 146.675 77.5719 146.72 77.4173 146.72H76.8173L81.6253 134.744C81.6893 134.573 81.7853 134.443 81.9133 134.352C82.0466 134.261 82.1986 134.216 82.3693 134.216H82.9773L78.1933 146.168ZM92.1636 134.536V135.176C92.1636 135.357 92.1423 135.507 92.0996 135.624C92.0623 135.741 92.025 135.84 91.9876 135.92L87.2356 145.496C87.1663 145.635 87.0703 145.755 86.9476 145.856C86.825 145.952 86.6623 146 86.4596 146H85.4356L90.2516 136.544C90.321 136.411 90.393 136.288 90.4676 136.176C90.5423 136.064 90.6223 135.957 90.7076 135.856H84.7236C84.633 135.856 84.553 135.821 84.4836 135.752C84.4143 135.677 84.3796 135.595 84.3796 135.504V134.536H92.1636Z" fill="black" fill-opacity="0.22"/>
<rect x="7" y="108" width="122" height="15" rx="7.5" fill="black" fill-opacity="0.22"/>
<rect x="7" y="93" width="72" height="9" rx="4.5" fill="#9747FF"/>
<rect x="83" y="93" width="72" height="9" rx="4.5" fill="#0079BF"/>
<path d="M0 5C0 2.23858 2.23858 0 5 0H241C243.761 0 246 2.23858 246 5V85H0V5Z" fill="black" fill-opacity="0.22"/>
<path d="M62 141.5C62 141.681 61.9254 141.854 61.7925 141.982C61.6597 142.11 61.4795 142.182 61.2917 142.182H53.5002C53.3123 142.182 53.1322 142.11 52.9993 141.982C52.8665 141.854 52.7919 141.681 52.7919 141.5C52.7919 141.319 52.8665 141.146 52.9993 141.018C53.1322 140.89 53.3123 140.818 53.5002 140.818H61.2917C61.4795 140.818 61.6597 140.89 61.7925 141.018C61.9254 141.146 62 141.319 62 141.5ZM53.5002 136.727H61.2917C61.4795 136.727 61.6597 136.656 61.7925 136.528C61.9254 136.4 62 136.227 62 136.046C62 135.865 61.9254 135.691 61.7925 135.564C61.6597 135.436 61.4795 135.364 61.2917 135.364H53.5002C53.3123 135.364 53.1322 135.436 52.9993 135.564C52.8665 135.691 52.7919 135.865 52.7919 136.046C52.7919 136.227 52.8665 136.4 52.9993 136.528C53.1322 136.656 53.3123 136.727 53.5002 136.727ZM61.2917 146.272H53.5002C53.3123 146.272 53.1322 146.344 52.9993 146.472C52.8665 146.6 52.7919 146.773 52.7919 146.954C52.7919 147.135 52.8665 147.308 52.9993 147.436C53.1322 147.564 53.3123 147.636 53.5002 147.636H61.2917C61.4795 147.636 61.6597 147.564 61.7925 147.436C61.9254 147.308 62 147.135 62 146.954C62 146.773 61.9254 146.6 61.7925 146.472C61.6597 146.344 61.4795 146.272 61.2917 146.272ZM49.4575 134.2L47.1253 136.445L46.2098 135.563C46.0769 135.435 45.8967 135.364 45.7087 135.364C45.5207 135.364 45.3405 135.435 45.2076 135.563C45.0747 135.691 45 135.865 45 136.046C45 136.227 45.0747 136.4 45.2076 136.528L46.6242 137.892C46.69 137.955 46.7681 138.005 46.8541 138.04C46.9401 138.074 47.0323 138.092 47.1253 138.092C47.2184 138.092 47.3106 138.074 47.3966 138.04C47.4826 138.005 47.5607 137.955 47.6265 137.892L50.4597 135.165C50.5927 135.037 50.6673 134.863 50.6673 134.682C50.6673 134.501 50.5927 134.328 50.4597 134.2C50.3268 134.072 50.1466 134 49.9586 134C49.7707 134 49.5904 134.072 49.4575 134.2ZM49.4575 139.654L47.1253 141.9L46.2098 141.018C46.0769 140.89 45.8967 140.818 45.7087 140.818C45.5207 140.818 45.3405 140.89 45.2076 141.018C45.0747 141.145 45 141.319 45 141.5C45 141.59 45.0183 141.678 45.0539 141.761C45.0896 141.844 45.1418 141.919 45.2076 141.982L46.6242 143.346C46.69 143.409 46.7681 143.46 46.8541 143.494C46.9401 143.528 47.0323 143.546 47.1253 143.546C47.2184 143.546 47.3106 143.528 47.3966 143.494C47.4826 143.46 47.5607 143.409 47.6265 143.346L50.4597 140.619C50.5927 140.491 50.6673 140.317 50.6673 140.136C50.6673 139.955 50.5927 139.782 50.4597 139.654C50.3268 139.526 50.1466 139.454 49.9586 139.454C49.7707 139.454 49.5904 139.526 49.4575 139.654ZM49.4575 145.108L47.1253 147.354L46.2098 146.472C46.144 146.408 46.0659 146.358 45.9799 146.324C45.8939 146.29 45.8018 146.272 45.7087 146.272C45.6156 146.272 45.5235 146.29 45.4375 146.324C45.3515 146.358 45.2734 146.408 45.2076 146.472C45.1418 146.535 45.0896 146.61 45.0539 146.693C45.0183 146.776 45 146.865 45 146.954C45 147.044 45.0183 147.132 45.0539 147.215C45.0896 147.298 45.1418 147.373 45.2076 147.436L46.6242 148.8C46.69 148.863 46.7681 148.914 46.8541 148.948C46.9401 148.982 47.0323 149 47.1253 149C47.2184 149 47.3106 148.982 47.3966 148.948C47.4826 148.914 47.5607 148.863 47.6265 148.8L50.4597 146.073C50.5927 145.945 50.6673 145.772 50.6673 145.591C50.6673 145.41 50.5927 145.236 50.4597 145.108C50.3268 144.98 50.1466 144.908 49.9586 144.908C49.7707 144.908 49.5904 144.98 49.4575 145.108Z" fill="black" fill-opacity="0.22"/>
<circle cx="23" cy="177" r="16" fill="black" fill-opacity="0.22"/>
<path d="M69.4845 176.508C69.5451 176.572 69.5932 176.648 69.626 176.732C69.6589 176.816 69.6758 176.907 69.6758 176.997C69.6758 177.088 69.6589 177.178 69.626 177.263C69.5932 177.347 69.5451 177.423 69.4845 177.487L62.7949 184.581C61.9385 185.49 60.777 186 59.566 186C58.3549 186 57.1935 185.489 56.3372 184.581C55.4809 183.672 54.9999 182.44 55 181.154C55.0001 179.869 55.4812 178.637 56.3376 177.729L64.4304 169.015C65.0418 168.366 65.8713 168 66.7364 168C67.6015 168 68.4313 168.364 69.0434 169.012C69.6554 169.661 69.9995 170.541 70 171.459C70.0005 172.377 69.6572 173.258 69.0458 173.907L60.9515 182.621C60.5839 183.011 60.0853 183.23 59.5654 183.23C59.0456 183.23 58.547 183.011 58.1794 182.621C57.8118 182.231 57.6053 181.702 57.6053 181.15C57.6053 180.598 57.8118 180.069 58.1794 179.679L64.9709 172.359C65.0304 172.291 65.102 172.237 65.1815 172.2C65.2609 172.162 65.3467 172.142 65.4337 172.14C65.5206 172.138 65.6071 172.155 65.6879 172.189C65.7687 172.223 65.8423 172.274 65.9043 172.339C65.9663 172.404 66.0155 172.481 66.0489 172.566C66.0824 172.651 66.0994 172.743 66.099 172.835C66.0987 172.927 66.0809 173.019 66.0468 173.103C66.0127 173.188 65.9629 173.265 65.9004 173.329L59.108 180.658C59.0472 180.722 58.9989 180.798 58.9658 180.882C58.9327 180.966 58.9155 181.056 58.9151 181.146C58.9148 181.237 58.9313 181.327 58.9638 181.412C58.9963 181.496 59.044 181.572 59.1044 181.637C59.1647 181.701 59.2364 181.752 59.3154 181.788C59.3945 181.823 59.4792 181.841 59.5649 181.841C59.6505 181.842 59.7354 181.824 59.8147 181.79C59.894 181.755 59.9661 181.705 60.0269 181.641L68.1205 172.931C68.4881 172.542 68.6949 172.014 68.6954 171.463C68.6959 170.912 68.4902 170.383 68.1233 169.993C67.7565 169.603 67.2586 169.384 66.7393 169.383C66.22 169.382 65.7217 169.601 65.3541 169.99L57.263 178.7C56.9599 179.021 56.7194 179.402 56.5551 179.822C56.3909 180.242 56.3062 180.692 56.3059 181.146C56.3055 181.601 56.3896 182.051 56.5531 182.471C56.7167 182.891 56.9567 183.273 57.2593 183.594C57.562 183.916 57.9213 184.171 58.3169 184.346C58.7125 184.52 59.1366 184.61 59.5649 184.61C59.9932 184.61 60.4174 184.521 60.8132 184.348C61.2091 184.174 61.5688 183.919 61.8719 183.598L68.5624 176.504C68.6851 176.375 68.8512 176.303 69.0241 176.304C69.197 176.304 69.3626 176.378 69.4845 176.508Z" fill="black" fill-opacity="0.22"/>
<path d="M73.04 174.64C73.1147 174.117 73.2587 173.656 73.472 173.256C73.6853 172.851 73.9547 172.512 74.28 172.24C74.6107 171.968 74.9867 171.763 75.408 171.624C75.8347 171.48 76.2933 171.408 76.784 171.408C77.2693 171.408 77.7173 171.477 78.128 171.616C78.5387 171.755 78.8907 171.952 79.184 172.208C79.4827 172.464 79.7147 172.773 79.88 173.136C80.0453 173.499 80.128 173.901 80.128 174.344C80.128 174.707 80.08 175.032 79.984 175.32C79.8933 175.603 79.76 175.851 79.584 176.064C79.4133 176.277 79.2053 176.459 78.96 176.608C78.7147 176.757 78.44 176.88 78.136 176.976C78.8827 177.168 79.4427 177.499 79.816 177.968C80.1947 178.432 80.384 179.013 80.384 179.712C80.384 180.24 80.2827 180.715 80.08 181.136C79.8827 181.557 79.6107 181.917 79.264 182.216C78.9173 182.509 78.512 182.736 78.048 182.896C77.5893 183.051 77.096 183.128 76.568 183.128C75.96 183.128 75.44 183.053 75.008 182.904C74.576 182.749 74.2107 182.539 73.912 182.272C73.6133 182.005 73.368 181.691 73.176 181.328C72.984 180.96 72.8213 180.563 72.688 180.136L73.304 179.88C73.464 179.811 73.6187 179.792 73.768 179.824C73.9227 179.856 74.0347 179.944 74.104 180.088C74.1733 180.237 74.2587 180.416 74.36 180.624C74.4667 180.832 74.6107 181.032 74.792 181.224C74.9733 181.416 75.2027 181.579 75.48 181.712C75.7627 181.845 76.12 181.912 76.552 181.912C76.952 181.912 77.3013 181.848 77.6 181.72C77.904 181.587 78.1547 181.416 78.352 181.208C78.5547 181 78.7067 180.768 78.808 180.512C78.9093 180.256 78.96 180.003 78.96 179.752C78.96 179.443 78.92 179.16 78.84 178.904C78.76 178.648 78.6107 178.427 78.392 178.24C78.1733 178.053 77.872 177.907 77.488 177.8C77.1093 177.693 76.6213 177.64 76.024 177.64V176.608C76.5147 176.603 76.9307 176.549 77.272 176.448C77.6187 176.347 77.8987 176.208 78.112 176.032C78.3307 175.856 78.488 175.645 78.584 175.4C78.6853 175.155 78.736 174.883 78.736 174.584C78.736 174.253 78.6827 173.965 78.576 173.72C78.4747 173.475 78.3333 173.272 78.152 173.112C77.9707 172.952 77.7547 172.832 77.504 172.752C77.2587 172.672 76.992 172.632 76.704 172.632C76.416 172.632 76.1467 172.675 75.896 172.76C75.6507 172.845 75.432 172.965 75.24 173.12C75.0533 173.269 74.896 173.448 74.768 173.656C74.64 173.864 74.5493 174.093 74.496 174.344C74.4267 174.531 74.3387 174.656 74.232 174.72C74.1307 174.779 73.9813 174.795 73.784 174.768L73.04 174.64Z" fill="black" fill-opacity="0.22"/>
<rect x="186" y="174" width="49" height="19" rx="5" fill="black" fill-opacity="0.22"/>
<rect x="191" y="181" width="40" height="4" rx="2" fill="black" fill-opacity="0.22"/>
<path d="M6 134.882C6 134.648 6.09658 134.424 6.26849 134.258C6.44039 134.093 6.67355 134 6.91667 134H27.0833C27.3264 134 27.5596 134.093 27.7315 134.258C27.9034 134.424 28 134.648 28 134.882C28 135.116 27.9034 135.341 27.7315 135.506C27.5596 135.672 27.3264 135.765 27.0833 135.765H6.91667C6.67355 135.765 6.44039 135.672 6.26849 135.506C6.09658 135.341 6 135.116 6 134.882ZM6.91667 140.176H21.5833C21.8264 140.176 22.0596 140.084 22.2315 139.918C22.4034 139.753 22.5 139.528 22.5 139.294C22.5 139.06 22.4034 138.836 22.2315 138.67C22.0596 138.505 21.8264 138.412 21.5833 138.412H6.91667C6.67355 138.412 6.44039 138.505 6.26849 138.67C6.09658 138.836 6 139.06 6 139.294C6 139.528 6.09658 139.753 6.26849 139.918C6.44039 140.084 6.67355 140.176 6.91667 140.176ZM27.0833 142.824H6.91667C6.67355 142.824 6.44039 142.916 6.26849 143.082C6.09658 143.247 6 143.472 6 143.706C6 143.94 6.09658 144.164 6.26849 144.33C6.44039 144.495 6.67355 144.588 6.91667 144.588H27.0833C27.3264 144.588 27.5596 144.495 27.7315 144.33C27.9034 144.164 28 143.94 28 143.706C28 143.472 27.9034 143.247 27.7315 143.082C27.5596 142.916 27.3264 142.824 27.0833 142.824ZM21.5833 147.235H6.91667C6.67355 147.235 6.44039 147.328 6.26849 147.494C6.09658 147.659 6 147.884 6 148.118C6 148.352 6.09658 148.576 6.26849 148.742C6.44039 148.907 6.67355 149 6.91667 149H21.5833C21.8264 149 22.0596 148.907 22.2315 148.742C22.4034 148.576 22.5 148.352 22.5 148.118C22.5 147.884 22.4034 147.659 22.2315 147.494C22.0596 147.328 21.8264 147.235 21.5833 147.235Z" fill="black" fill-opacity="0.22"/>
</svg>
