<svg width="371" height="269" viewBox="0 0 371 269" fill="none" xmlns="http://www.w3.org/2000/svg">
<rect y="66" width="249" height="203" rx="5" fill="#DBDCDE"/>
<rect x="125" width="246" height="203" rx="5" fill="white"/>
<path d="M161.896 144.648C162.051 144.648 162.173 144.693 162.264 144.784C162.355 144.875 162.4 144.992 162.4 145.136V146H154.752V145.512C154.752 145.411 154.773 145.307 154.816 145.2C154.859 145.093 154.925 144.995 155.016 144.904L158.688 141.216C158.992 140.907 159.269 140.611 159.52 140.328C159.771 140.04 159.984 139.752 160.16 139.464C160.336 139.176 160.472 138.885 160.568 138.592C160.664 138.293 160.712 137.976 160.712 137.64C160.712 137.304 160.659 137.011 160.552 136.76C160.445 136.504 160.299 136.293 160.112 136.128C159.931 135.963 159.715 135.84 159.464 135.76C159.213 135.675 158.944 135.632 158.656 135.632C158.363 135.632 158.093 135.675 157.848 135.76C157.603 135.845 157.384 135.965 157.192 136.12C157.005 136.269 156.848 136.448 156.72 136.656C156.592 136.864 156.501 137.093 156.448 137.344C156.384 137.531 156.296 137.656 156.184 137.72C156.077 137.779 155.925 137.795 155.728 137.768L154.984 137.64C155.059 137.117 155.203 136.656 155.416 136.256C155.635 135.851 155.907 135.512 156.232 135.24C156.563 134.968 156.939 134.763 157.36 134.624C157.781 134.48 158.237 134.408 158.728 134.408C159.213 134.408 159.667 134.48 160.088 134.624C160.509 134.768 160.875 134.979 161.184 135.256C161.493 135.528 161.736 135.861 161.912 136.256C162.088 136.651 162.176 137.099 162.176 137.6C162.176 138.027 162.112 138.424 161.984 138.792C161.856 139.155 161.683 139.501 161.464 139.832C161.245 140.163 160.992 140.485 160.704 140.8C160.421 141.115 160.12 141.432 159.8 141.752L156.776 144.84C156.989 144.781 157.205 144.736 157.424 144.704C157.643 144.667 157.853 144.648 158.056 144.648H161.896ZM165.193 146.168C165.124 146.355 165.015 146.493 164.865 146.584C164.721 146.675 164.572 146.72 164.417 146.72H163.817L168.625 134.744C168.689 134.573 168.785 134.443 168.913 134.352C169.047 134.261 169.199 134.216 169.369 134.216H169.977L165.193 146.168ZM175.156 144.992C175.529 144.992 175.862 144.941 176.156 144.84C176.454 144.733 176.705 144.587 176.908 144.4C177.116 144.208 177.273 143.981 177.38 143.72C177.492 143.453 177.548 143.16 177.548 142.84C177.548 142.445 177.481 142.109 177.348 141.832C177.22 141.549 177.044 141.32 176.82 141.144C176.601 140.968 176.348 140.84 176.06 140.76C175.772 140.675 175.47 140.632 175.156 140.632C174.841 140.632 174.54 140.675 174.252 140.76C173.964 140.84 173.708 140.968 173.484 141.144C173.265 141.32 173.089 141.549 172.956 141.832C172.828 142.109 172.764 142.445 172.764 142.84C172.764 143.16 172.817 143.453 172.924 143.72C173.036 143.981 173.193 144.208 173.396 144.4C173.604 144.587 173.854 144.733 174.148 144.84C174.446 144.941 174.782 144.992 175.156 144.992ZM175.156 135.512C174.814 135.512 174.513 135.563 174.252 135.664C173.996 135.765 173.78 135.904 173.604 136.08C173.433 136.256 173.302 136.461 173.212 136.696C173.126 136.931 173.084 137.181 173.084 137.448C173.084 137.709 173.121 137.963 173.196 138.208C173.27 138.453 173.39 138.672 173.556 138.864C173.721 139.051 173.934 139.203 174.196 139.32C174.462 139.432 174.782 139.488 175.156 139.488C175.529 139.488 175.846 139.432 176.108 139.32C176.374 139.203 176.59 139.051 176.756 138.864C176.921 138.672 177.041 138.453 177.116 138.208C177.19 137.963 177.228 137.709 177.228 137.448C177.228 137.181 177.182 136.931 177.092 136.696C177.006 136.461 176.876 136.256 176.7 136.08C176.529 135.904 176.313 135.765 176.052 135.664C175.796 135.563 175.497 135.512 175.156 135.512ZM176.796 140.024C177.51 140.227 178.06 140.565 178.444 141.04C178.828 141.515 179.02 142.123 179.02 142.864C179.02 143.365 178.924 143.819 178.732 144.224C178.545 144.624 178.281 144.965 177.94 145.248C177.604 145.531 177.198 145.749 176.724 145.904C176.249 146.053 175.726 146.128 175.156 146.128C174.585 146.128 174.062 146.053 173.588 145.904C173.113 145.749 172.705 145.531 172.364 145.248C172.022 144.965 171.758 144.624 171.572 144.224C171.385 143.819 171.292 143.365 171.292 142.864C171.292 142.123 171.484 141.515 171.868 141.04C172.252 140.565 172.801 140.227 173.516 140.024C172.913 139.8 172.457 139.467 172.148 139.024C171.844 138.576 171.692 138.043 171.692 137.424C171.692 137.003 171.774 136.608 171.94 136.24C172.105 135.872 172.34 135.552 172.644 135.28C172.948 135.008 173.31 134.795 173.732 134.64C174.158 134.485 174.633 134.408 175.156 134.408C175.673 134.408 176.145 134.485 176.572 134.64C176.998 134.795 177.364 135.008 177.668 135.28C177.972 135.552 178.206 135.872 178.372 136.24C178.537 136.608 178.62 137.003 178.62 137.424C178.62 138.043 178.465 138.576 178.156 139.024C177.852 139.467 177.398 139.8 176.796 140.024Z" fill="black"/>
<rect x="132" y="108" width="122" height="15" rx="7.5" fill="#A7A7A7"/>
<rect x="132" y="93" width="72" height="7" rx="3.5" fill="#9747FF"/>
<path d="M125 5C125 2.23858 127.239 0 130 0H366C368.761 0 371 2.23858 371 5V85H125V5Z" fill="black" fill-opacity="0.5"/>
<path d="M149 141.5C149 141.681 148.925 141.854 148.793 141.982C148.66 142.11 148.48 142.182 148.292 142.182H140.5C140.312 142.182 140.132 142.11 139.999 141.982C139.867 141.854 139.792 141.681 139.792 141.5C139.792 141.319 139.867 141.146 139.999 141.018C140.132 140.89 140.312 140.818 140.5 140.818H148.292C148.48 140.818 148.66 140.89 148.793 141.018C148.925 141.146 149 141.319 149 141.5ZM140.5 136.727H148.292C148.48 136.727 148.66 136.656 148.793 136.528C148.925 136.4 149 136.227 149 136.046C149 135.865 148.925 135.691 148.793 135.564C148.66 135.436 148.48 135.364 148.292 135.364H140.5C140.312 135.364 140.132 135.436 139.999 135.564C139.867 135.691 139.792 135.865 139.792 136.046C139.792 136.227 139.867 136.4 139.999 136.528C140.132 136.656 140.312 136.727 140.5 136.727ZM148.292 146.272H140.5C140.312 146.272 140.132 146.344 139.999 146.472C139.867 146.6 139.792 146.773 139.792 146.954C139.792 147.135 139.867 147.308 139.999 147.436C140.132 147.564 140.312 147.636 140.5 147.636H148.292C148.48 147.636 148.66 147.564 148.793 147.436C148.925 147.308 149 147.135 149 146.954C149 146.773 148.925 146.6 148.793 146.472C148.66 146.344 148.48 146.272 148.292 146.272ZM136.457 134.2L134.125 136.445L133.21 135.563C133.077 135.435 132.897 135.364 132.709 135.364C132.521 135.364 132.34 135.435 132.208 135.563C132.075 135.691 132 135.865 132 136.046C132 136.227 132.075 136.4 132.208 136.528L133.624 137.892C133.69 137.955 133.768 138.005 133.854 138.04C133.94 138.074 134.032 138.092 134.125 138.092C134.218 138.092 134.311 138.074 134.397 138.04C134.483 138.005 134.561 137.955 134.626 137.892L137.46 135.165C137.593 135.037 137.667 134.863 137.667 134.682C137.667 134.501 137.593 134.328 137.46 134.2C137.327 134.072 137.147 134 136.959 134C136.771 134 136.59 134.072 136.457 134.2ZM136.457 139.654L134.125 141.9L133.21 141.018C133.077 140.89 132.897 140.818 132.709 140.818C132.521 140.818 132.34 140.89 132.208 141.018C132.075 141.145 132 141.319 132 141.5C132 141.59 132.018 141.678 132.054 141.761C132.09 141.844 132.142 141.919 132.208 141.982L133.624 143.346C133.69 143.409 133.768 143.46 133.854 143.494C133.94 143.528 134.032 143.546 134.125 143.546C134.218 143.546 134.311 143.528 134.397 143.494C134.483 143.46 134.561 143.409 134.626 143.346L137.46 140.619C137.593 140.491 137.667 140.317 137.667 140.136C137.667 139.955 137.593 139.782 137.46 139.654C137.327 139.526 137.147 139.454 136.959 139.454C136.771 139.454 136.59 139.526 136.457 139.654ZM136.457 145.108L134.125 147.354L133.21 146.472C133.144 146.408 133.066 146.358 132.98 146.324C132.894 146.29 132.802 146.272 132.709 146.272C132.616 146.272 132.523 146.29 132.437 146.324C132.352 146.358 132.273 146.408 132.208 146.472C132.142 146.535 132.09 146.61 132.054 146.693C132.018 146.776 132 146.865 132 146.954C132 147.044 132.018 147.132 132.054 147.215C132.09 147.298 132.142 147.373 132.208 147.436L133.624 148.8C133.69 148.863 133.768 148.914 133.854 148.948C133.94 148.982 134.032 149 134.125 149C134.218 149 134.311 148.982 134.397 148.948C134.483 148.914 134.561 148.863 134.626 148.8L137.46 146.073C137.593 145.945 137.667 145.772 137.667 145.591C137.667 145.41 137.593 145.236 137.46 145.108C137.327 144.98 137.147 144.908 136.959 144.908C136.771 144.908 136.59 144.98 136.457 145.108Z" fill="black"/>
<circle cx="148" cy="177" r="16" fill="#D9D9D9"/>
<path d="M194.484 176.508C194.545 176.572 194.593 176.648 194.626 176.732C194.659 176.816 194.676 176.907 194.676 176.997C194.676 177.088 194.659 177.178 194.626 177.263C194.593 177.347 194.545 177.423 194.484 177.487L187.795 184.581C186.938 185.49 185.777 186 184.566 186C183.355 186 182.194 185.489 181.337 184.581C180.481 183.672 180 182.44 180 181.154C180 179.869 180.481 178.637 181.338 177.729L189.43 169.015C190.042 168.366 190.871 168 191.736 168C192.601 168 193.431 168.364 194.043 169.012C194.655 169.661 195 170.541 195 171.459C195 172.377 194.657 173.258 194.046 173.907L185.951 182.621C185.584 183.011 185.085 183.23 184.565 183.23C184.046 183.23 183.547 183.011 183.179 182.621C182.812 182.231 182.605 181.702 182.605 181.15C182.605 180.598 182.812 180.069 183.179 179.679L189.971 172.359C190.03 172.291 190.102 172.237 190.181 172.2C190.261 172.162 190.347 172.142 190.434 172.14C190.521 172.138 190.607 172.155 190.688 172.189C190.769 172.223 190.842 172.274 190.904 172.339C190.966 172.404 191.015 172.481 191.049 172.566C191.082 172.651 191.099 172.743 191.099 172.835C191.099 172.927 191.081 173.019 191.047 173.103C191.013 173.188 190.963 173.265 190.9 173.329L184.108 180.658C184.047 180.722 183.999 180.798 183.966 180.882C183.933 180.966 183.915 181.056 183.915 181.146C183.915 181.237 183.931 181.327 183.964 181.412C183.996 181.496 184.044 181.572 184.104 181.637C184.165 181.701 184.236 181.752 184.315 181.788C184.394 181.823 184.479 181.841 184.565 181.841C184.651 181.842 184.735 181.824 184.815 181.79C184.894 181.755 184.966 181.705 185.027 181.641L193.12 172.931C193.488 172.542 193.695 172.014 193.695 171.463C193.696 170.912 193.49 170.383 193.123 169.993C192.756 169.603 192.259 169.384 191.739 169.383C191.22 169.382 190.722 169.601 190.354 169.99L182.263 178.7C181.96 179.021 181.719 179.402 181.555 179.822C181.391 180.242 181.306 180.692 181.306 181.146C181.306 181.601 181.39 182.051 181.553 182.471C181.717 182.891 181.957 183.273 182.259 183.594C182.562 183.916 182.921 184.171 183.317 184.346C183.712 184.52 184.137 184.61 184.565 184.61C184.993 184.61 185.417 184.521 185.813 184.348C186.209 184.174 186.569 183.919 186.872 183.598L193.562 176.504C193.685 176.375 193.851 176.303 194.024 176.304C194.197 176.304 194.363 176.378 194.484 176.508Z" fill="black"/>
<path d="M198.04 174.64C198.115 174.117 198.259 173.656 198.472 173.256C198.685 172.851 198.955 172.512 199.28 172.24C199.611 171.968 199.987 171.763 200.408 171.624C200.835 171.48 201.293 171.408 201.784 171.408C202.269 171.408 202.717 171.477 203.128 171.616C203.539 171.755 203.891 171.952 204.184 172.208C204.483 172.464 204.715 172.773 204.88 173.136C205.045 173.499 205.128 173.901 205.128 174.344C205.128 174.707 205.08 175.032 204.984 175.32C204.893 175.603 204.76 175.851 204.584 176.064C204.413 176.277 204.205 176.459 203.96 176.608C203.715 176.757 203.44 176.88 203.136 176.976C203.883 177.168 204.443 177.499 204.816 177.968C205.195 178.432 205.384 179.013 205.384 179.712C205.384 180.24 205.283 180.715 205.08 181.136C204.883 181.557 204.611 181.917 204.264 182.216C203.917 182.509 203.512 182.736 203.048 182.896C202.589 183.051 202.096 183.128 201.568 183.128C200.96 183.128 200.44 183.053 200.008 182.904C199.576 182.749 199.211 182.539 198.912 182.272C198.613 182.005 198.368 181.691 198.176 181.328C197.984 180.96 197.821 180.563 197.688 180.136L198.304 179.88C198.464 179.811 198.619 179.792 198.768 179.824C198.923 179.856 199.035 179.944 199.104 180.088C199.173 180.237 199.259 180.416 199.36 180.624C199.467 180.832 199.611 181.032 199.792 181.224C199.973 181.416 200.203 181.579 200.48 181.712C200.763 181.845 201.12 181.912 201.552 181.912C201.952 181.912 202.301 181.848 202.6 181.72C202.904 181.587 203.155 181.416 203.352 181.208C203.555 181 203.707 180.768 203.808 180.512C203.909 180.256 203.96 180.003 203.96 179.752C203.96 179.443 203.92 179.16 203.84 178.904C203.76 178.648 203.611 178.427 203.392 178.24C203.173 178.053 202.872 177.907 202.488 177.8C202.109 177.693 201.621 177.64 201.024 177.64V176.608C201.515 176.603 201.931 176.549 202.272 176.448C202.619 176.347 202.899 176.208 203.112 176.032C203.331 175.856 203.488 175.645 203.584 175.4C203.685 175.155 203.736 174.883 203.736 174.584C203.736 174.253 203.683 173.965 203.576 173.72C203.475 173.475 203.333 173.272 203.152 173.112C202.971 172.952 202.755 172.832 202.504 172.752C202.259 172.672 201.992 172.632 201.704 172.632C201.416 172.632 201.147 172.675 200.896 172.76C200.651 172.845 200.432 172.965 200.24 173.12C200.053 173.269 199.896 173.448 199.768 173.656C199.64 173.864 199.549 174.093 199.496 174.344C199.427 174.531 199.339 174.656 199.232 174.72C199.131 174.779 198.981 174.795 198.784 174.768L198.04 174.64Z" fill="black"/>
<rect x="311" y="174" width="49" height="19" rx="5" fill="#EAF5EA"/>
<rect x="316" y="181" width="40" height="4" rx="2" fill="#4AAF50"/>
</svg>
