<?xml version="1.0" encoding="UTF-8"?>
<svg id="Layer_2" data-name="Layer 2" xmlns="http://www.w3.org/2000/svg" viewBox="0 0 444.75 144.94">
  <defs>
    <style>
      .cls-1 {
        fill: #fff;
        stroke-width: 0px;
      }
    </style>
  </defs>
  <g id="Layer_1-2" data-name="Layer 1">
    <g>
      <path class="cls-1" d="M147.37,144.94H21.38c-17.23,0-27.36-19.36-17.54-33.52L74.81,9.18c3.99-5.75,10.54-9.18,17.54-9.18h125.99c17.23,0,27.36,19.36,17.54,33.52l-70.96,102.25c-3.99,5.75-10.54,9.18-17.54,9.18Z"/>
      <path class="cls-1" d="M352.4,144.94h-125.99c-17.23,0-27.36-19.36-17.54-33.52L279.84,9.18c3.99-5.75,10.54-9.18,17.54-9.18h125.99c17.23,0,27.36,19.36,17.54,33.52l-70.96,102.25c-3.99,5.75-10.54,9.18-17.54,9.18Z"/>
    </g>
  </g>
</svg>