<svg width="523" height="130" viewBox="0 0 523 130" fill="none" xmlns="http://www.w3.org/2000/svg">
<rect width="523" height="130" rx="8" fill="white"/>
<rect x="159" y="52" width="280" height="15" rx="7.5" fill="#A7A7A7"/>
<rect x="159" y="74" width="74" height="9" rx="4.5" fill="#A7A7A7"/>
<path d="M132.692 27H52.3077C50.3696 27 48.5108 27.7662 47.1404 29.1301C45.7699 30.494 45 32.3439 45 34.2727V99.7273C45 101.656 45.7699 103.506 47.1404 104.87C48.5108 106.234 50.3696 107 52.3077 107H132.692C134.63 107 136.489 106.234 137.86 104.87C139.23 103.506 140 101.656 140 99.7273V34.2727C140 32.3439 139.23 30.494 137.86 29.1301C136.489 27.7662 134.63 27 132.692 27ZM132.692 34.2727V80.9773L120.785 69.1318C120.107 68.4563 119.301 67.9205 118.414 67.5549C117.528 67.1893 116.577 67.0011 115.617 67.0011C114.658 67.0011 113.707 67.1893 112.821 67.5549C111.934 67.9205 111.128 68.4563 110.45 69.1318L101.315 78.2227L81.2188 58.2227C79.8484 56.8599 77.9904 56.0943 76.0531 56.0943C74.1158 56.0943 72.2578 56.8599 70.8875 58.2227L52.3077 76.7136V34.2727H132.692ZM52.3077 87L76.0577 63.3636L112.596 99.7273H52.3077V87ZM132.692 99.7273H122.932L106.49 83.3636L115.624 74.2727L132.692 91.2636V99.7273ZM99.8077 54.2727C99.8077 53.1939 100.129 52.1393 100.731 51.2423C101.334 50.3454 102.19 49.6462 103.191 49.2334C104.193 48.8205 105.295 48.7125 106.358 48.923C107.421 49.1335 108.397 49.6529 109.164 50.4158C109.93 51.1786 110.452 52.1505 110.664 53.2086C110.875 54.2667 110.767 55.3634 110.352 56.3601C109.937 57.3568 109.235 58.2087 108.333 58.808C107.432 59.4074 106.372 59.7273 105.288 59.7273C103.835 59.7273 102.441 59.1526 101.413 58.1297C100.385 57.1067 99.8077 55.7194 99.8077 54.2727Z" fill="#6DB193"/>
</svg>
