<svg width="523" height="130" viewBox="0 0 523 130" fill="none" xmlns="http://www.w3.org/2000/svg">
<rect width="523" height="130" rx="8" fill="white"/>
<rect x="159" y="27" width="280" height="15" rx="7.5" fill="#A7A7A7"/>
<rect x="159" y="49" width="74" height="9" rx="4.5" fill="#A7A7A7"/>
<path d="M132.692 27H52.3077C50.3696 27 48.5108 27.7662 47.1404 29.1301C45.7699 30.494 45 32.3439 45 34.2727V99.7273C45 101.656 45.7699 103.506 47.1404 104.87C48.5108 106.234 50.3696 107 52.3077 107H132.692C134.63 107 136.489 106.234 137.86 104.87C139.23 103.506 140 101.656 140 99.7273V34.2727C140 32.3439 139.23 30.494 137.86 29.1301C136.489 27.7662 134.63 27 132.692 27ZM132.692 34.2727V80.9773L120.785 69.1318C120.107 68.4563 119.301 67.9205 118.414 67.5549C117.528 67.1893 116.577 67.0011 115.617 67.0011C114.658 67.0011 113.707 67.1893 112.821 67.5549C111.934 67.9205 111.128 68.4563 110.45 69.1318L101.315 78.2227L81.2188 58.2227C79.8484 56.8599 77.9904 56.0943 76.0531 56.0943C74.1158 56.0943 72.2578 56.8599 70.8875 58.2227L52.3077 76.7136V34.2727H132.692ZM52.3077 87L76.0577 63.3636L112.596 99.7273H52.3077V87ZM132.692 99.7273H122.932L106.49 83.3636L115.624 74.2727L132.692 91.2636V99.7273ZM99.8077 54.2727C99.8077 53.1939 100.129 52.1393 100.731 51.2423C101.334 50.3454 102.19 49.6462 103.191 49.2334C104.193 48.8205 105.295 48.7125 106.358 48.923C107.421 49.1335 108.397 49.6529 109.164 50.4158C109.93 51.1786 110.452 52.1505 110.664 53.2086C110.875 54.2667 110.767 55.3634 110.352 56.3601C109.937 57.3568 109.235 58.2087 108.333 58.808C107.432 59.4074 106.372 59.7273 105.288 59.7273C103.835 59.7273 102.441 59.1526 101.413 58.1297C100.385 57.1067 99.8077 55.7194 99.8077 54.2727Z" fill="#6DB193"/>
<path d="M169.784 71.536L165.112 83H163.72L159.048 71.536H160.288C160.427 71.536 160.539 71.5707 160.624 71.64C160.709 71.7093 160.773 71.7973 160.816 71.904L164.048 79.992C164.117 80.1733 164.184 80.3707 164.248 80.584C164.317 80.7973 164.379 81.0213 164.432 81.256C164.485 81.0213 164.541 80.7973 164.6 80.584C164.659 80.3707 164.723 80.1733 164.792 79.992L168.016 71.904C168.048 71.8133 168.109 71.7307 168.2 71.656C168.296 71.576 168.411 71.536 168.544 71.536H169.784ZM172.46 74.896V83H171.036V74.896H172.46ZM172.764 72.352C172.764 72.4907 172.735 72.6213 172.676 72.744C172.623 72.8613 172.548 72.968 172.452 73.064C172.361 73.1547 172.252 73.2267 172.124 73.28C172.001 73.3333 171.871 73.36 171.732 73.36C171.593 73.36 171.463 73.3333 171.34 73.28C171.223 73.2267 171.119 73.1547 171.028 73.064C170.937 72.968 170.865 72.8613 170.812 72.744C170.759 72.6213 170.732 72.4907 170.732 72.352C170.732 72.2133 170.759 72.0827 170.812 71.96C170.865 71.832 170.937 71.7227 171.028 71.632C171.119 71.536 171.223 71.4613 171.34 71.408C171.463 71.3547 171.593 71.328 171.732 71.328C171.871 71.328 172.001 71.3547 172.124 71.408C172.252 71.4613 172.361 71.536 172.452 71.632C172.548 71.7227 172.623 71.832 172.676 71.96C172.735 72.0827 172.764 72.2133 172.764 72.352ZM180.224 78.064C180.224 77.7333 180.176 77.432 180.08 77.16C179.989 76.8827 179.853 76.6453 179.672 76.448C179.496 76.2453 179.28 76.0907 179.024 75.984C178.768 75.872 178.477 75.816 178.152 75.816C177.469 75.816 176.928 76.016 176.528 76.416C176.133 76.8107 175.888 77.36 175.792 78.064H180.224ZM181.376 81.864C181.2 82.0773 180.989 82.264 180.744 82.424C180.499 82.5787 180.235 82.7067 179.952 82.808C179.675 82.9093 179.387 82.984 179.088 83.032C178.789 83.0853 178.493 83.112 178.2 83.112C177.64 83.112 177.123 83.0187 176.648 82.832C176.179 82.64 175.771 82.3627 175.424 82C175.083 81.632 174.816 81.1787 174.624 80.64C174.432 80.1013 174.336 79.4827 174.336 78.784C174.336 78.2187 174.421 77.6907 174.592 77.2C174.768 76.7093 175.019 76.2853 175.344 75.928C175.669 75.5653 176.067 75.2827 176.536 75.08C177.005 74.872 177.533 74.768 178.12 74.768C178.605 74.768 179.053 74.8507 179.464 75.016C179.88 75.176 180.237 75.4107 180.536 75.72C180.84 76.024 181.077 76.4027 181.248 76.856C181.419 77.304 181.504 77.816 181.504 78.392C181.504 78.616 181.48 78.7653 181.432 78.84C181.384 78.9147 181.293 78.952 181.16 78.952H175.744C175.76 79.464 175.829 79.9093 175.952 80.288C176.08 80.6667 176.256 80.984 176.48 81.24C176.704 81.4907 176.971 81.68 177.28 81.808C177.589 81.9307 177.936 81.992 178.32 81.992C178.677 81.992 178.984 81.952 179.24 81.872C179.501 81.7867 179.725 81.696 179.912 81.6C180.099 81.504 180.253 81.416 180.376 81.336C180.504 81.2507 180.613 81.208 180.704 81.208C180.821 81.208 180.912 81.2533 180.976 81.344L181.376 81.864ZM194.351 74.896L191.727 83H190.599C190.46 83 190.364 82.9093 190.311 82.728L188.519 77.232C188.476 77.1093 188.442 76.9867 188.415 76.864C188.388 76.736 188.362 76.6107 188.335 76.488C188.308 76.6107 188.282 76.736 188.255 76.864C188.228 76.9867 188.194 77.112 188.151 77.24L186.327 82.728C186.279 82.9093 186.172 83 186.007 83H184.935L182.311 74.896H183.431C183.543 74.896 183.636 74.9253 183.711 74.984C183.791 75.0427 183.844 75.112 183.871 75.192L185.423 80.408C185.514 80.792 185.586 81.1547 185.639 81.496C185.687 81.32 185.735 81.1413 185.783 80.96C185.836 80.7787 185.892 80.5947 185.951 80.408L187.663 75.16C187.69 75.08 187.735 75.0133 187.799 74.96C187.868 74.9067 187.951 74.88 188.047 74.88H188.671C188.778 74.88 188.866 74.9067 188.935 74.96C189.004 75.0133 189.052 75.08 189.079 75.16L190.751 80.408C190.81 80.5947 190.863 80.7787 190.911 80.96C190.959 81.1413 191.004 81.32 191.047 81.496C191.074 81.32 191.106 81.144 191.143 80.968C191.186 80.7867 191.231 80.6 191.279 80.408L192.863 75.192C192.89 75.1067 192.94 75.0373 193.015 74.984C193.09 74.9253 193.178 74.896 193.279 74.896H194.351Z" fill="black"/>
<path d="M159 87.08H194.615V87.792H159V87.08Z" fill="black"/>
<path d="M216.4 77.272C216.4 78.1307 216.264 78.912 215.992 79.616C215.72 80.32 215.336 80.9227 214.84 81.424C214.344 81.9253 213.747 82.3147 213.048 82.592C212.355 82.864 211.587 83 210.744 83H206.464V71.536H210.744C211.587 71.536 212.355 71.6747 213.048 71.952C213.747 72.224 214.344 72.6133 214.84 73.12C215.336 73.6213 215.72 74.224 215.992 74.928C216.264 75.632 216.4 76.4133 216.4 77.272ZM214.808 77.272C214.808 76.568 214.712 75.9387 214.52 75.384C214.328 74.8293 214.056 74.36 213.704 73.976C213.352 73.592 212.925 73.2987 212.424 73.096C211.923 72.8933 211.363 72.792 210.744 72.792H208.016V81.744H210.744C211.363 81.744 211.923 81.6427 212.424 81.44C212.925 81.2373 213.352 80.9467 213.704 80.568C214.056 80.184 214.328 79.7147 214.52 79.16C214.712 78.6053 214.808 77.976 214.808 77.272ZM221.607 74.768C222.199 74.768 222.732 74.8667 223.207 75.064C223.681 75.2613 224.087 75.5413 224.423 75.904C224.759 76.2667 225.015 76.7067 225.191 77.224C225.372 77.736 225.463 78.3093 225.463 78.944C225.463 79.584 225.372 80.16 225.191 80.672C225.015 81.184 224.759 81.6213 224.423 81.984C224.087 82.3467 223.681 82.6267 223.207 82.824C222.732 83.016 222.199 83.112 221.607 83.112C221.009 83.112 220.471 83.016 219.991 82.824C219.516 82.6267 219.111 82.3467 218.775 81.984C218.439 81.6213 218.18 81.184 217.999 80.672C217.823 80.16 217.735 79.584 217.735 78.944C217.735 78.3093 217.823 77.736 217.999 77.224C218.18 76.7067 218.439 76.2667 218.775 75.904C219.111 75.5413 219.516 75.2613 219.991 75.064C220.471 74.8667 221.009 74.768 221.607 74.768ZM221.607 82C222.407 82 223.004 81.7333 223.399 81.2C223.793 80.6613 223.991 79.912 223.991 78.952C223.991 77.9867 223.793 77.2347 223.399 76.696C223.004 76.1573 222.407 75.888 221.607 75.888C221.201 75.888 220.847 75.9573 220.543 76.096C220.244 76.2347 219.993 76.4347 219.791 76.696C219.593 76.9573 219.444 77.28 219.343 77.664C219.247 78.0427 219.199 78.472 219.199 78.952C219.199 79.912 219.396 80.6613 219.791 81.2C220.191 81.7333 220.796 82 221.607 82ZM238.32 74.896L235.696 83H234.568C234.429 83 234.333 82.9093 234.28 82.728L232.488 77.232C232.445 77.1093 232.41 76.9867 232.384 76.864C232.357 76.736 232.33 76.6107 232.304 76.488C232.277 76.6107 232.25 76.736 232.224 76.864C232.197 76.9867 232.162 77.112 232.12 77.24L230.296 82.728C230.248 82.9093 230.141 83 229.976 83H228.904L226.28 74.896H227.4C227.512 74.896 227.605 74.9253 227.68 74.984C227.76 75.0427 227.813 75.112 227.84 75.192L229.392 80.408C229.482 80.792 229.554 81.1547 229.608 81.496C229.656 81.32 229.704 81.1413 229.752 80.96C229.805 80.7787 229.861 80.5947 229.92 80.408L231.632 75.16C231.658 75.08 231.704 75.0133 231.768 74.96C231.837 74.9067 231.92 74.88 232.016 74.88H232.64C232.746 74.88 232.834 74.9067 232.904 74.96C232.973 75.0133 233.021 75.08 233.048 75.16L234.72 80.408C234.778 80.5947 234.832 80.7787 234.88 80.96C234.928 81.1413 234.973 81.32 235.016 81.496C235.042 81.32 235.074 81.144 235.112 80.968C235.154 80.7867 235.2 80.6 235.248 80.408L236.832 75.192C236.858 75.1067 236.909 75.0373 236.984 74.984C237.058 74.9253 237.146 74.896 237.248 74.896H238.32ZM241.05 76.072C241.226 75.8747 241.413 75.696 241.61 75.536C241.807 75.376 242.015 75.24 242.234 75.128C242.458 75.0107 242.693 74.9227 242.938 74.864C243.189 74.8 243.458 74.768 243.746 74.768C244.189 74.768 244.578 74.8427 244.914 74.992C245.255 75.136 245.538 75.344 245.762 75.616C245.991 75.8827 246.165 76.2053 246.282 76.584C246.399 76.9627 246.458 77.3813 246.458 77.84V83H245.026V77.84C245.026 77.2267 244.885 76.752 244.602 76.416C244.325 76.0747 243.901 75.904 243.33 75.904C242.909 75.904 242.514 76.0053 242.146 76.208C241.783 76.4107 241.447 76.6853 241.138 77.032V83H239.706V74.896H240.562C240.765 74.896 240.89 74.9947 240.938 75.192L241.05 76.072ZM250.1 71.216V83H248.676V71.216H250.1ZM255.825 74.768C256.417 74.768 256.951 74.8667 257.425 75.064C257.9 75.2613 258.305 75.5413 258.641 75.904C258.977 76.2667 259.233 76.7067 259.409 77.224C259.591 77.736 259.681 78.3093 259.681 78.944C259.681 79.584 259.591 80.16 259.409 80.672C259.233 81.184 258.977 81.6213 258.641 81.984C258.305 82.3467 257.9 82.6267 257.425 82.824C256.951 83.016 256.417 83.112 255.825 83.112C255.228 83.112 254.689 83.016 254.209 82.824C253.735 82.6267 253.329 82.3467 252.993 81.984C252.657 81.6213 252.399 81.184 252.217 80.672C252.041 80.16 251.953 79.584 251.953 78.944C251.953 78.3093 252.041 77.736 252.217 77.224C252.399 76.7067 252.657 76.2667 252.993 75.904C253.329 75.5413 253.735 75.2613 254.209 75.064C254.689 74.8667 255.228 74.768 255.825 74.768ZM255.825 82C256.625 82 257.223 81.7333 257.617 81.2C258.012 80.6613 258.209 79.912 258.209 78.952C258.209 77.9867 258.012 77.2347 257.617 76.696C257.223 76.1573 256.625 75.888 255.825 75.888C255.42 75.888 255.065 75.9573 254.761 76.096C254.463 76.2347 254.212 76.4347 254.009 76.696C253.812 76.9573 253.663 77.28 253.561 77.664C253.465 78.0427 253.417 78.472 253.417 78.952C253.417 79.912 253.615 80.6613 254.009 81.2C254.409 81.7333 255.015 82 255.825 82ZM265.879 79.352C265.223 79.3733 264.663 79.4267 264.199 79.512C263.741 79.592 263.365 79.6987 263.071 79.832C262.783 79.9653 262.573 80.1227 262.439 80.304C262.311 80.4853 262.247 80.688 262.247 80.912C262.247 81.1253 262.282 81.3093 262.351 81.464C262.421 81.6187 262.514 81.7467 262.631 81.848C262.754 81.944 262.895 82.016 263.055 82.064C263.221 82.1067 263.397 82.128 263.583 82.128C263.834 82.128 264.063 82.104 264.271 82.056C264.479 82.0027 264.674 81.928 264.855 81.832C265.042 81.736 265.218 81.6213 265.383 81.488C265.554 81.3547 265.719 81.2027 265.879 81.032V79.352ZM261.279 76.04C261.727 75.608 262.21 75.2853 262.727 75.072C263.245 74.8587 263.818 74.752 264.447 74.752C264.901 74.752 265.303 74.8267 265.655 74.976C266.007 75.1253 266.303 75.3333 266.543 75.6C266.783 75.8667 266.965 76.1893 267.087 76.568C267.21 76.9467 267.271 77.3627 267.271 77.816V83H266.639C266.501 83 266.394 82.9787 266.319 82.936C266.245 82.888 266.186 82.7973 266.143 82.664L265.983 81.896C265.77 82.0933 265.562 82.2693 265.359 82.424C265.157 82.5733 264.943 82.7013 264.719 82.808C264.495 82.9093 264.255 82.9867 263.999 83.04C263.749 83.0987 263.469 83.128 263.159 83.128C262.845 83.128 262.549 83.0853 262.271 83C261.994 82.9093 261.751 82.776 261.543 82.6C261.341 82.424 261.178 82.2027 261.055 81.936C260.938 81.664 260.879 81.344 260.879 80.976C260.879 80.656 260.967 80.3493 261.143 80.056C261.319 79.7573 261.605 79.4933 261.999 79.264C262.394 79.0347 262.909 78.848 263.543 78.704C264.178 78.5547 264.957 78.4693 265.879 78.448V77.816C265.879 77.1867 265.743 76.712 265.471 76.392C265.199 76.0667 264.802 75.904 264.279 75.904C263.927 75.904 263.631 75.9493 263.391 76.04C263.157 76.1253 262.951 76.224 262.775 76.336C262.605 76.4427 262.455 76.5413 262.327 76.632C262.205 76.7173 262.082 76.76 261.959 76.76C261.863 76.76 261.781 76.736 261.711 76.688C261.642 76.6347 261.583 76.5707 261.535 76.496L261.279 76.04ZM274.721 76.824C274.454 76.4667 274.166 76.2187 273.857 76.08C273.547 75.936 273.201 75.864 272.817 75.864C272.065 75.864 271.486 76.1333 271.081 76.672C270.675 77.2107 270.473 77.9787 270.473 78.976C270.473 79.504 270.518 79.9573 270.609 80.336C270.699 80.7093 270.833 81.0187 271.009 81.264C271.185 81.504 271.401 81.68 271.657 81.792C271.913 81.904 272.203 81.96 272.529 81.96C272.998 81.96 273.406 81.8533 273.753 81.64C274.105 81.4267 274.427 81.1253 274.721 80.736V76.824ZM276.145 71.216V83H275.297C275.094 83 274.966 82.9013 274.913 82.704L274.785 81.72C274.438 82.136 274.043 82.472 273.601 82.728C273.158 82.984 272.646 83.112 272.065 83.112C271.601 83.112 271.179 83.024 270.801 82.848C270.422 82.6667 270.099 82.4027 269.833 82.056C269.566 81.7093 269.361 81.2773 269.217 80.76C269.073 80.2427 269.001 79.648 269.001 78.976C269.001 78.3787 269.081 77.824 269.241 77.312C269.401 76.7947 269.63 76.3467 269.929 75.968C270.227 75.5893 270.593 75.2933 271.025 75.08C271.462 74.8613 271.953 74.752 272.497 74.752C272.993 74.752 273.417 74.8373 273.769 75.008C274.126 75.1733 274.443 75.4053 274.721 75.704V71.216H276.145Z" fill="black"/>
<path d="M205 87.08H277.272V87.792H205V87.08Z" fill="black"/>
<path d="M299.4 77.272C299.4 78.1307 299.264 78.912 298.992 79.616C298.72 80.32 298.336 80.9227 297.84 81.424C297.344 81.9253 296.747 82.3147 296.048 82.592C295.355 82.864 294.587 83 293.744 83H289.464V71.536H293.744C294.587 71.536 295.355 71.6747 296.048 71.952C296.747 72.224 297.344 72.6133 297.84 73.12C298.336 73.6213 298.72 74.224 298.992 74.928C299.264 75.632 299.4 76.4133 299.4 77.272ZM297.808 77.272C297.808 76.568 297.712 75.9387 297.52 75.384C297.328 74.8293 297.056 74.36 296.704 73.976C296.352 73.592 295.925 73.2987 295.424 73.096C294.923 72.8933 294.363 72.792 293.744 72.792H291.016V81.744H293.744C294.363 81.744 294.923 81.6427 295.424 81.44C295.925 81.2373 296.352 80.9467 296.704 80.568C297.056 80.184 297.328 79.7147 297.52 79.16C297.712 78.6053 297.808 77.976 297.808 77.272ZM306.615 78.064C306.615 77.7333 306.567 77.432 306.471 77.16C306.38 76.8827 306.244 76.6453 306.063 76.448C305.887 76.2453 305.671 76.0907 305.415 75.984C305.159 75.872 304.868 75.816 304.543 75.816C303.86 75.816 303.319 76.016 302.919 76.416C302.524 76.8107 302.279 77.36 302.183 78.064H306.615ZM307.767 81.864C307.591 82.0773 307.38 82.264 307.135 82.424C306.889 82.5787 306.625 82.7067 306.343 82.808C306.065 82.9093 305.777 82.984 305.479 83.032C305.18 83.0853 304.884 83.112 304.591 83.112C304.031 83.112 303.513 83.0187 303.039 82.832C302.569 82.64 302.161 82.3627 301.815 82C301.473 81.632 301.207 81.1787 301.015 80.64C300.823 80.1013 300.727 79.4827 300.727 78.784C300.727 78.2187 300.812 77.6907 300.983 77.2C301.159 76.7093 301.409 76.2853 301.735 75.928C302.06 75.5653 302.457 75.2827 302.927 75.08C303.396 74.872 303.924 74.768 304.511 74.768C304.996 74.768 305.444 74.8507 305.855 75.016C306.271 75.176 306.628 75.4107 306.927 75.72C307.231 76.024 307.468 76.4027 307.639 76.856C307.809 77.304 307.895 77.816 307.895 78.392C307.895 78.616 307.871 78.7653 307.823 78.84C307.775 78.9147 307.684 78.952 307.551 78.952H302.135C302.151 79.464 302.22 79.9093 302.343 80.288C302.471 80.6667 302.647 80.984 302.871 81.24C303.095 81.4907 303.361 81.68 303.671 81.808C303.98 81.9307 304.327 81.992 304.711 81.992C305.068 81.992 305.375 81.952 305.631 81.872C305.892 81.7867 306.116 81.696 306.303 81.6C306.489 81.504 306.644 81.416 306.767 81.336C306.895 81.2507 307.004 81.208 307.095 81.208C307.212 81.208 307.303 81.2533 307.367 81.344L307.767 81.864ZM311.116 71.216V83H309.692V71.216H311.116ZM318.849 78.064C318.849 77.7333 318.801 77.432 318.705 77.16C318.614 76.8827 318.478 76.6453 318.297 76.448C318.121 76.2453 317.905 76.0907 317.649 75.984C317.393 75.872 317.102 75.816 316.777 75.816C316.094 75.816 315.553 76.016 315.153 76.416C314.758 76.8107 314.513 77.36 314.417 78.064H318.849ZM320.001 81.864C319.825 82.0773 319.614 82.264 319.369 82.424C319.124 82.5787 318.86 82.7067 318.577 82.808C318.3 82.9093 318.012 82.984 317.713 83.032C317.414 83.0853 317.118 83.112 316.825 83.112C316.265 83.112 315.748 83.0187 315.273 82.832C314.804 82.64 314.396 82.3627 314.049 82C313.708 81.632 313.441 81.1787 313.249 80.64C313.057 80.1013 312.961 79.4827 312.961 78.784C312.961 78.2187 313.046 77.6907 313.217 77.2C313.393 76.7093 313.644 76.2853 313.969 75.928C314.294 75.5653 314.692 75.2827 315.161 75.08C315.63 74.872 316.158 74.768 316.745 74.768C317.23 74.768 317.678 74.8507 318.089 75.016C318.505 75.176 318.862 75.4107 319.161 75.72C319.465 76.024 319.702 76.4027 319.873 76.856C320.044 77.304 320.129 77.816 320.129 78.392C320.129 78.616 320.105 78.7653 320.057 78.84C320.009 78.9147 319.918 78.952 319.785 78.952H314.369C314.385 79.464 314.454 79.9093 314.577 80.288C314.705 80.6667 314.881 80.984 315.105 81.24C315.329 81.4907 315.596 81.68 315.905 81.808C316.214 81.9307 316.561 81.992 316.945 81.992C317.302 81.992 317.609 81.952 317.865 81.872C318.126 81.7867 318.35 81.696 318.537 81.6C318.724 81.504 318.878 81.416 319.001 81.336C319.129 81.2507 319.238 81.208 319.329 81.208C319.446 81.208 319.537 81.2533 319.601 81.344L320.001 81.864ZM324.304 83.128C323.664 83.128 323.17 82.9493 322.824 82.592C322.482 82.2347 322.312 81.72 322.312 81.048V76.088H321.336C321.25 76.088 321.178 76.064 321.12 76.016C321.061 75.9627 321.032 75.8827 321.032 75.776V75.208L322.36 75.04L322.688 72.536C322.704 72.456 322.738 72.392 322.792 72.344C322.85 72.2907 322.925 72.264 323.016 72.264H323.736V75.056H326.08V76.088H323.736V80.952C323.736 81.2933 323.818 81.5467 323.984 81.712C324.149 81.8773 324.362 81.96 324.624 81.96C324.773 81.96 324.901 81.9413 325.008 81.904C325.12 81.8613 325.216 81.816 325.296 81.768C325.376 81.72 325.442 81.6773 325.496 81.64C325.554 81.5973 325.605 81.576 325.648 81.576C325.722 81.576 325.789 81.6213 325.848 81.712L326.264 82.392C326.018 82.6213 325.722 82.8027 325.376 82.936C325.029 83.064 324.672 83.128 324.304 83.128ZM332.927 78.064C332.927 77.7333 332.879 77.432 332.783 77.16C332.692 76.8827 332.556 76.6453 332.375 76.448C332.199 76.2453 331.983 76.0907 331.727 75.984C331.471 75.872 331.18 75.816 330.855 75.816C330.172 75.816 329.631 76.016 329.231 76.416C328.836 76.8107 328.591 77.36 328.495 78.064H332.927ZM334.079 81.864C333.903 82.0773 333.692 82.264 333.447 82.424C333.202 82.5787 332.938 82.7067 332.655 82.808C332.378 82.9093 332.09 82.984 331.791 83.032C331.492 83.0853 331.196 83.112 330.903 83.112C330.343 83.112 329.826 83.0187 329.351 82.832C328.882 82.64 328.474 82.3627 328.127 82C327.786 81.632 327.519 81.1787 327.327 80.64C327.135 80.1013 327.039 79.4827 327.039 78.784C327.039 78.2187 327.124 77.6907 327.295 77.2C327.471 76.7093 327.722 76.2853 328.047 75.928C328.372 75.5653 328.77 75.2827 329.239 75.08C329.708 74.872 330.236 74.768 330.823 74.768C331.308 74.768 331.756 74.8507 332.167 75.016C332.583 75.176 332.94 75.4107 333.239 75.72C333.543 76.024 333.78 76.4027 333.951 76.856C334.122 77.304 334.207 77.816 334.207 78.392C334.207 78.616 334.183 78.7653 334.135 78.84C334.087 78.9147 333.996 78.952 333.863 78.952H328.447C328.463 79.464 328.532 79.9093 328.655 80.288C328.783 80.6667 328.959 80.984 329.183 81.24C329.407 81.4907 329.674 81.68 329.983 81.808C330.292 81.9307 330.639 81.992 331.023 81.992C331.38 81.992 331.687 81.952 331.943 81.872C332.204 81.7867 332.428 81.696 332.615 81.6C332.802 81.504 332.956 81.416 333.079 81.336C333.207 81.2507 333.316 81.208 333.407 81.208C333.524 81.208 333.615 81.2533 333.679 81.344L334.079 81.864Z" fill="black"/>
<path d="M288 87.08H334.823V87.792H288V87.08Z" fill="black"/>
</svg>
