<svg width="358" height="230" viewBox="0 0 358 230" fill="none" xmlns="http://www.w3.org/2000/svg">
<rect width="358" height="230" rx="8" fill="white"/>
<rect x="28" y="47" width="18" height="18" rx="2" fill="#79AC78"/>
<path d="M35 60.4L31 56.4L32.4 55L35 57.6L41.6 51L43 52.4L35 60.4Z" fill="white"/>
<path d="M59.328 52.328C59.28 52.408 59.2267 52.4693 59.168 52.512C59.1147 52.5493 59.048 52.568 58.968 52.568C58.8773 52.568 58.7707 52.5227 58.648 52.432C58.5253 52.3413 58.3707 52.2427 58.184 52.136C58.0027 52.024 57.7813 51.9227 57.52 51.832C57.264 51.7413 56.952 51.696 56.584 51.696C56.2373 51.696 55.9307 51.744 55.664 51.84C55.4027 51.9307 55.1813 52.056 55 52.216C54.824 52.376 54.6907 52.5653 54.6 52.784C54.5093 52.9973 54.464 53.2293 54.464 53.48C54.464 53.8 54.5413 54.0667 54.696 54.28C54.856 54.488 55.064 54.6667 55.32 54.816C55.5813 54.9653 55.8747 55.096 56.2 55.208C56.5307 55.3147 56.8667 55.4267 57.208 55.544C57.5547 55.6613 57.8907 55.7947 58.216 55.944C58.5467 56.088 58.84 56.272 59.096 56.496C59.3573 56.72 59.5653 56.9947 59.72 57.32C59.88 57.6453 59.96 58.0453 59.96 58.52C59.96 59.0213 59.8747 59.4933 59.704 59.936C59.5333 60.3733 59.2827 60.7547 58.952 61.08C58.6267 61.4053 58.224 61.6613 57.744 61.848C57.2693 62.0347 56.728 62.128 56.12 62.128C55.3733 62.128 54.696 61.9947 54.088 61.728C53.48 61.456 52.96 61.0907 52.528 60.632L52.976 59.896C53.0187 59.8373 53.0693 59.7893 53.128 59.752C53.192 59.7093 53.2613 59.688 53.336 59.688C53.4053 59.688 53.4827 59.7173 53.568 59.776C53.6587 59.8293 53.76 59.8987 53.872 59.984C53.984 60.0693 54.112 60.1627 54.256 60.264C54.4 60.3653 54.5627 60.4587 54.744 60.544C54.9307 60.6293 55.1413 60.7013 55.376 60.76C55.6107 60.8133 55.8747 60.84 56.168 60.84C56.536 60.84 56.864 60.7893 57.152 60.688C57.44 60.5867 57.6827 60.4453 57.88 60.264C58.0827 60.0773 58.2373 59.856 58.344 59.6C58.4507 59.344 58.504 59.0587 58.504 58.744C58.504 58.3973 58.424 58.1147 58.264 57.896C58.1093 57.672 57.904 57.4853 57.648 57.336C57.392 57.1867 57.0987 57.0613 56.768 56.96C56.4373 56.8533 56.1013 56.7467 55.76 56.64C55.4187 56.528 55.0827 56.4 54.752 56.256C54.4213 56.112 54.128 55.9253 53.872 55.696C53.616 55.4667 53.408 55.1813 53.248 54.84C53.0933 54.4933 53.016 54.0667 53.016 53.56C53.016 53.1547 53.0933 52.7627 53.248 52.384C53.408 52.0053 53.6373 51.6693 53.936 51.376C54.24 51.0827 54.6107 50.848 55.048 50.672C55.4907 50.496 55.9973 50.408 56.568 50.408C57.208 50.408 57.7893 50.5093 58.312 50.712C58.84 50.9147 59.304 51.208 59.704 51.592L59.328 52.328ZM68.3233 53.896V62H67.4753C67.2726 62 67.1446 61.9013 67.0913 61.704L66.9793 60.832C66.6273 61.2213 66.2326 61.536 65.7953 61.776C65.3579 62.0107 64.8566 62.128 64.2913 62.128C63.8486 62.128 63.4566 62.056 63.1153 61.912C62.7793 61.7627 62.4966 61.5547 62.2673 61.288C62.0379 61.0213 61.8646 60.6987 61.7473 60.32C61.6353 59.9413 61.5793 59.5227 61.5793 59.064V53.896H63.0033V59.064C63.0033 59.6773 63.1419 60.152 63.4193 60.488C63.7019 60.824 64.1313 60.992 64.7073 60.992C65.1286 60.992 65.5206 60.8933 65.8833 60.696C66.2513 60.4933 66.5899 60.216 66.8993 59.864V53.896H68.3233ZM72.0131 60.048C72.2745 60.4 72.5598 60.648 72.8691 60.792C73.1838 60.936 73.5278 61.008 73.9011 61.008C74.6638 61.008 75.2478 60.7387 75.6531 60.2C76.0585 59.6613 76.2611 58.8587 76.2611 57.792C76.2611 56.8 76.0798 56.072 75.7171 55.608C75.3598 55.1387 74.8478 54.904 74.1811 54.904C73.7171 54.904 73.3118 55.0107 72.9651 55.224C72.6238 55.4373 72.3065 55.7387 72.0131 56.128V60.048ZM72.0131 55.064C72.3545 54.6693 72.7385 54.3547 73.1651 54.12C73.5971 53.8853 74.0931 53.768 74.6531 53.768C75.1278 53.768 75.5545 53.8587 75.9331 54.04C76.3171 54.2213 76.6425 54.4853 76.9091 54.832C77.1758 55.1733 77.3785 55.5893 77.5171 56.08C77.6611 56.5707 77.7331 57.1227 77.7331 57.736C77.7331 58.392 77.6531 58.9893 77.4931 59.528C77.3331 60.0667 77.1011 60.528 76.7971 60.912C76.4985 61.2907 76.1331 61.5867 75.7011 61.8C75.2691 62.008 74.7838 62.112 74.2451 62.112C73.7118 62.112 73.2611 62.0133 72.8931 61.816C72.5305 61.6133 72.2131 61.328 71.9411 60.96L71.8691 61.696C71.8265 61.8987 71.7038 62 71.5011 62H70.5811V50.216H72.0131V55.064ZM81.9129 62.128C81.2729 62.128 80.7795 61.9493 80.4329 61.592C80.0915 61.2347 79.9209 60.72 79.9209 60.048V55.088H78.9449C78.8595 55.088 78.7875 55.064 78.7289 55.016C78.6702 54.9627 78.6409 54.8827 78.6409 54.776V54.208L79.9689 54.04L80.2969 51.536C80.3129 51.456 80.3475 51.392 80.4009 51.344C80.4595 51.2907 80.5342 51.264 80.6249 51.264H81.3449V54.056H83.6889V55.088H81.3449V59.952C81.3449 60.2933 81.4275 60.5467 81.5929 60.712C81.7582 60.8773 81.9715 60.96 82.2329 60.96C82.3822 60.96 82.5102 60.9413 82.6169 60.904C82.7289 60.8613 82.8249 60.816 82.9049 60.768C82.9849 60.72 83.0515 60.6773 83.1049 60.64C83.1635 60.5973 83.2142 60.576 83.2569 60.576C83.3315 60.576 83.3982 60.6213 83.4569 60.712L83.8729 61.392C83.6275 61.6213 83.3315 61.8027 82.9849 61.936C82.6382 62.064 82.2809 62.128 81.9129 62.128ZM89.5513 58.352C88.8953 58.3733 88.3353 58.4267 87.8713 58.512C87.4126 58.592 87.0366 58.6987 86.7433 58.832C86.4553 58.9653 86.2446 59.1227 86.1113 59.304C85.9833 59.4853 85.9193 59.688 85.9193 59.912C85.9193 60.1253 85.9539 60.3093 86.0233 60.464C86.0926 60.6187 86.1859 60.7467 86.3033 60.848C86.4259 60.944 86.5673 61.016 86.7273 61.064C86.8926 61.1067 87.0686 61.128 87.2553 61.128C87.5059 61.128 87.7353 61.104 87.9433 61.056C88.1513 61.0027 88.3459 60.928 88.5273 60.832C88.7139 60.736 88.8899 60.6213 89.0553 60.488C89.2259 60.3547 89.3913 60.2027 89.5513 60.032V58.352ZM84.9513 55.04C85.3993 54.608 85.8819 54.2853 86.3993 54.072C86.9166 53.8587 87.4899 53.752 88.1193 53.752C88.5726 53.752 88.9753 53.8267 89.3273 53.976C89.6793 54.1253 89.9753 54.3333 90.2153 54.6C90.4553 54.8667 90.6366 55.1893 90.7593 55.568C90.8819 55.9467 90.9433 56.3627 90.9433 56.816V62H90.3113C90.1726 62 90.0659 61.9787 89.9913 61.936C89.9166 61.888 89.8579 61.7973 89.8153 61.664L89.6553 60.896C89.4419 61.0933 89.2339 61.2693 89.0312 61.424C88.8286 61.5733 88.6153 61.7013 88.3913 61.808C88.1673 61.9093 87.9273 61.9867 87.6713 62.04C87.4206 62.0987 87.1406 62.128 86.8313 62.128C86.5166 62.128 86.2206 62.0853 85.9433 62C85.6659 61.9093 85.4233 61.776 85.2153 61.6C85.0126 61.424 84.8499 61.2027 84.7273 60.936C84.6099 60.664 84.5513 60.344 84.5513 59.976C84.5513 59.656 84.6393 59.3493 84.8153 59.056C84.9913 58.7573 85.2766 58.4933 85.6713 58.264C86.0659 58.0347 86.5806 57.848 87.2153 57.704C87.8499 57.5547 88.6286 57.4693 89.5513 57.448V56.816C89.5513 56.1867 89.4153 55.712 89.1433 55.392C88.8713 55.0667 88.4739 54.904 87.9513 54.904C87.5993 54.904 87.3033 54.9493 87.0633 55.04C86.8286 55.1253 86.6233 55.224 86.4473 55.336C86.2766 55.4427 86.1273 55.5413 85.9993 55.632C85.8766 55.7173 85.7539 55.76 85.6313 55.76C85.5353 55.76 85.4526 55.736 85.3833 55.688C85.3139 55.6347 85.2553 55.5707 85.2072 55.496L84.9513 55.04ZM97.8324 55.232C97.7684 55.3493 97.6697 55.408 97.5364 55.408C97.4564 55.408 97.3657 55.3787 97.2644 55.32C97.163 55.2613 97.0377 55.1973 96.8884 55.128C96.7444 55.0533 96.571 54.9867 96.3684 54.928C96.1657 54.864 95.9257 54.832 95.6484 54.832C95.4084 54.832 95.1924 54.864 95.0004 54.928C94.8084 54.9867 94.643 55.0693 94.5044 55.176C94.371 55.2827 94.267 55.408 94.1924 55.552C94.123 55.6907 94.0884 55.8427 94.0884 56.008C94.0884 56.216 94.147 56.3893 94.2644 56.528C94.387 56.6667 94.547 56.7867 94.7444 56.888C94.9417 56.9893 95.1657 57.08 95.4164 57.16C95.667 57.2347 95.923 57.3173 96.1844 57.408C96.451 57.4933 96.7097 57.5893 96.9604 57.696C97.211 57.8027 97.435 57.936 97.6324 58.096C97.8297 58.256 97.987 58.4533 98.1044 58.688C98.227 58.9173 98.2884 59.1947 98.2884 59.52C98.2884 59.8933 98.2217 60.24 98.0884 60.56C97.955 60.8747 97.7577 61.1493 97.4964 61.384C97.235 61.6133 96.915 61.7947 96.5364 61.928C96.1577 62.0613 95.7204 62.128 95.2244 62.128C94.659 62.128 94.147 62.0373 93.6884 61.856C93.2297 61.6693 92.8404 61.432 92.5204 61.144L92.8564 60.6C92.899 60.5307 92.9497 60.4773 93.0084 60.44C93.067 60.4027 93.1417 60.384 93.2324 60.384C93.3284 60.384 93.4297 60.4213 93.5364 60.496C93.643 60.5707 93.771 60.6533 93.9204 60.744C94.075 60.8347 94.2617 60.9173 94.4804 60.992C94.699 61.0667 94.971 61.104 95.2964 61.104C95.5737 61.104 95.8164 61.0693 96.0244 61C96.2324 60.9253 96.4057 60.8267 96.5444 60.704C96.683 60.5813 96.7844 60.44 96.8484 60.28C96.9177 60.12 96.9524 59.9493 96.9524 59.768C96.9524 59.544 96.891 59.36 96.7684 59.216C96.651 59.0667 96.4937 58.9413 96.2964 58.84C96.099 58.7333 95.8724 58.6427 95.6164 58.568C95.3657 58.488 95.107 58.4053 94.8404 58.32C94.579 58.2347 94.3204 58.1387 94.0644 58.032C93.8137 57.92 93.5897 57.7813 93.3924 57.616C93.195 57.4507 93.035 57.248 92.9124 57.008C92.795 56.7627 92.7364 56.4667 92.7364 56.12C92.7364 55.8107 92.8004 55.5147 92.9284 55.232C93.0564 54.944 93.243 54.6933 93.4884 54.48C93.7337 54.2613 94.035 54.088 94.3924 53.96C94.7497 53.832 95.1577 53.768 95.6164 53.768C96.1497 53.768 96.627 53.8533 97.0484 54.024C97.475 54.1893 97.843 54.4187 98.1524 54.712L97.8324 55.232ZM101.466 50.216V57.152H101.834C101.941 57.152 102.029 57.1387 102.098 57.112C102.173 57.08 102.25 57.0187 102.33 56.928L104.89 54.184C104.965 54.0933 105.042 54.024 105.122 53.976C105.208 53.9227 105.32 53.896 105.458 53.896H106.746L103.762 57.072C103.618 57.2533 103.464 57.3947 103.298 57.496C103.394 57.56 103.48 57.6347 103.554 57.72C103.634 57.8 103.709 57.8933 103.778 58L106.946 62H105.674C105.552 62 105.445 61.9813 105.354 61.944C105.269 61.9013 105.194 61.8267 105.13 61.72L102.466 58.4C102.386 58.288 102.306 58.216 102.226 58.184C102.152 58.1467 102.034 58.128 101.874 58.128H101.466V62H100.034V50.216H101.466ZM119.269 60.912V62H113.125V60.912H115.581V53.096C115.581 52.8613 115.589 52.624 115.605 52.384L113.565 54.136C113.496 54.1947 113.426 54.232 113.357 54.248C113.288 54.2587 113.224 54.2587 113.165 54.248C113.106 54.2373 113.05 54.216 112.997 54.184C112.949 54.152 112.912 54.1173 112.885 54.08L112.437 53.464L115.853 50.512H117.013V60.912H119.269Z" fill="black"/>
<path d="M326.444 56C326.444 56.3956 326.33 56.7822 326.117 57.1111C325.903 57.44 325.599 57.6964 325.244 57.8478C324.889 57.9991 324.498 58.0387 324.121 57.9616C323.743 57.8844 323.397 57.6939 323.125 57.4142C322.853 57.1345 322.668 56.7781 322.593 56.3902C322.518 56.0022 322.556 55.6001 322.704 55.2346C322.851 54.8692 323.1 54.5568 323.42 54.3371C323.739 54.1173 324.115 54 324.5 54C325.016 54 325.51 54.2107 325.875 54.5858C326.24 54.9609 326.444 55.4696 326.444 56ZM318.944 54C318.56 54 318.184 54.1173 317.864 54.3371C317.544 54.5568 317.295 54.8692 317.148 55.2346C317.001 55.6001 316.962 56.0022 317.037 56.3902C317.112 56.7781 317.298 57.1345 317.57 57.4142C317.841 57.6939 318.188 57.8844 318.565 57.9616C318.942 58.0387 319.333 57.9991 319.689 57.8478C320.044 57.6964 320.348 57.44 320.561 57.1111C320.775 56.7822 320.889 56.3956 320.889 56C320.889 55.4696 320.684 54.9609 320.319 54.5858C319.955 54.2107 319.46 54 318.944 54ZM330.056 54C329.671 54 329.295 54.1173 328.975 54.3371C328.656 54.5568 328.406 54.8692 328.259 55.2346C328.112 55.6001 328.073 56.0022 328.148 56.3902C328.224 56.7781 328.409 57.1345 328.681 57.4142C328.953 57.6939 329.299 57.8844 329.676 57.9616C330.053 58.0387 330.444 57.9991 330.8 57.8478C331.155 57.6964 331.459 57.44 331.672 57.1111C331.886 56.7822 332 56.3956 332 56C332 55.7374 331.95 55.4773 331.852 55.2346C331.754 54.992 331.611 54.7715 331.43 54.5858C331.25 54.4001 331.036 54.2528 330.8 54.1522C330.564 54.0517 330.311 54 330.056 54Z" fill="black"/>
<rect x="28.75" y="79.75" width="16.5" height="16.5" rx="1.25" stroke="#7A7A7A" stroke-width="1.5"/>
<path d="M35 92.4L31 88.4L32.4 87L35 89.6L41.6 83L43 84.4L35 92.4Z" fill="white"/>
<path d="M59.328 84.328C59.28 84.408 59.2267 84.4693 59.168 84.512C59.1147 84.5493 59.048 84.568 58.968 84.568C58.8773 84.568 58.7707 84.5227 58.648 84.432C58.5253 84.3413 58.3707 84.2427 58.184 84.136C58.0027 84.024 57.7813 83.9227 57.52 83.832C57.264 83.7413 56.952 83.696 56.584 83.696C56.2373 83.696 55.9307 83.744 55.664 83.84C55.4027 83.9307 55.1813 84.056 55 84.216C54.824 84.376 54.6907 84.5653 54.6 84.784C54.5093 84.9973 54.464 85.2293 54.464 85.48C54.464 85.8 54.5413 86.0667 54.696 86.28C54.856 86.488 55.064 86.6667 55.32 86.816C55.5813 86.9653 55.8747 87.096 56.2 87.208C56.5307 87.3147 56.8667 87.4267 57.208 87.544C57.5547 87.6613 57.8907 87.7947 58.216 87.944C58.5467 88.088 58.84 88.272 59.096 88.496C59.3573 88.72 59.5653 88.9947 59.72 89.32C59.88 89.6453 59.96 90.0453 59.96 90.52C59.96 91.0213 59.8747 91.4933 59.704 91.936C59.5333 92.3733 59.2827 92.7547 58.952 93.08C58.6267 93.4053 58.224 93.6613 57.744 93.848C57.2693 94.0347 56.728 94.128 56.12 94.128C55.3733 94.128 54.696 93.9947 54.088 93.728C53.48 93.456 52.96 93.0907 52.528 92.632L52.976 91.896C53.0187 91.8373 53.0693 91.7893 53.128 91.752C53.192 91.7093 53.2613 91.688 53.336 91.688C53.4053 91.688 53.4827 91.7173 53.568 91.776C53.6587 91.8293 53.76 91.8987 53.872 91.984C53.984 92.0693 54.112 92.1627 54.256 92.264C54.4 92.3653 54.5627 92.4587 54.744 92.544C54.9307 92.6293 55.1413 92.7013 55.376 92.76C55.6107 92.8133 55.8747 92.84 56.168 92.84C56.536 92.84 56.864 92.7893 57.152 92.688C57.44 92.5867 57.6827 92.4453 57.88 92.264C58.0827 92.0773 58.2373 91.856 58.344 91.6C58.4507 91.344 58.504 91.0587 58.504 90.744C58.504 90.3973 58.424 90.1147 58.264 89.896C58.1093 89.672 57.904 89.4853 57.648 89.336C57.392 89.1867 57.0987 89.0613 56.768 88.96C56.4373 88.8533 56.1013 88.7467 55.76 88.64C55.4187 88.528 55.0827 88.4 54.752 88.256C54.4213 88.112 54.128 87.9253 53.872 87.696C53.616 87.4667 53.408 87.1813 53.248 86.84C53.0933 86.4933 53.016 86.0667 53.016 85.56C53.016 85.1547 53.0933 84.7627 53.248 84.384C53.408 84.0053 53.6373 83.6693 53.936 83.376C54.24 83.0827 54.6107 82.848 55.048 82.672C55.4907 82.496 55.9973 82.408 56.568 82.408C57.208 82.408 57.7893 82.5093 58.312 82.712C58.84 82.9147 59.304 83.208 59.704 83.592L59.328 84.328ZM68.3233 85.896V94H67.4753C67.2726 94 67.1446 93.9013 67.0913 93.704L66.9793 92.832C66.6273 93.2213 66.2326 93.536 65.7953 93.776C65.3579 94.0107 64.8566 94.128 64.2913 94.128C63.8486 94.128 63.4566 94.056 63.1153 93.912C62.7793 93.7627 62.4966 93.5547 62.2673 93.288C62.0379 93.0213 61.8646 92.6987 61.7473 92.32C61.6353 91.9413 61.5793 91.5227 61.5793 91.064V85.896H63.0033V91.064C63.0033 91.6773 63.1419 92.152 63.4193 92.488C63.7019 92.824 64.1313 92.992 64.7073 92.992C65.1286 92.992 65.5206 92.8933 65.8833 92.696C66.2513 92.4933 66.5899 92.216 66.8993 91.864V85.896H68.3233ZM72.0131 92.048C72.2745 92.4 72.5598 92.648 72.8691 92.792C73.1838 92.936 73.5278 93.008 73.9011 93.008C74.6638 93.008 75.2478 92.7387 75.6531 92.2C76.0585 91.6613 76.2611 90.8587 76.2611 89.792C76.2611 88.8 76.0798 88.072 75.7171 87.608C75.3598 87.1387 74.8478 86.904 74.1811 86.904C73.7171 86.904 73.3118 87.0107 72.9651 87.224C72.6238 87.4373 72.3065 87.7387 72.0131 88.128V92.048ZM72.0131 87.064C72.3545 86.6693 72.7385 86.3547 73.1651 86.12C73.5971 85.8853 74.0931 85.768 74.6531 85.768C75.1278 85.768 75.5545 85.8587 75.9331 86.04C76.3171 86.2213 76.6425 86.4853 76.9091 86.832C77.1758 87.1733 77.3785 87.5893 77.5171 88.08C77.6611 88.5707 77.7331 89.1227 77.7331 89.736C77.7331 90.392 77.6531 90.9893 77.4931 91.528C77.3331 92.0667 77.1011 92.528 76.7971 92.912C76.4985 93.2907 76.1331 93.5867 75.7011 93.8C75.2691 94.008 74.7838 94.112 74.2451 94.112C73.7118 94.112 73.2611 94.0133 72.8931 93.816C72.5305 93.6133 72.2131 93.328 71.9411 92.96L71.8691 93.696C71.8265 93.8987 71.7038 94 71.5011 94H70.5811V82.216H72.0131V87.064ZM81.9129 94.128C81.2729 94.128 80.7795 93.9493 80.4329 93.592C80.0915 93.2347 79.9209 92.72 79.9209 92.048V87.088H78.9449C78.8595 87.088 78.7875 87.064 78.7289 87.016C78.6702 86.9627 78.6409 86.8827 78.6409 86.776V86.208L79.9689 86.04L80.2969 83.536C80.3129 83.456 80.3475 83.392 80.4009 83.344C80.4595 83.2907 80.5342 83.264 80.6249 83.264H81.3449V86.056H83.6889V87.088H81.3449V91.952C81.3449 92.2933 81.4275 92.5467 81.5929 92.712C81.7582 92.8773 81.9715 92.96 82.2329 92.96C82.3822 92.96 82.5102 92.9413 82.6169 92.904C82.7289 92.8613 82.8249 92.816 82.9049 92.768C82.9849 92.72 83.0515 92.6773 83.1049 92.64C83.1635 92.5973 83.2142 92.576 83.2569 92.576C83.3315 92.576 83.3982 92.6213 83.4569 92.712L83.8729 93.392C83.6275 93.6213 83.3315 93.8027 82.9849 93.936C82.6382 94.064 82.2809 94.128 81.9129 94.128ZM89.5513 90.352C88.8953 90.3733 88.3353 90.4267 87.8713 90.512C87.4126 90.592 87.0366 90.6987 86.7433 90.832C86.4553 90.9653 86.2446 91.1227 86.1113 91.304C85.9833 91.4853 85.9193 91.688 85.9193 91.912C85.9193 92.1253 85.9539 92.3093 86.0233 92.464C86.0926 92.6187 86.1859 92.7467 86.3033 92.848C86.4259 92.944 86.5673 93.016 86.7273 93.064C86.8926 93.1067 87.0686 93.128 87.2553 93.128C87.5059 93.128 87.7353 93.104 87.9433 93.056C88.1513 93.0027 88.3459 92.928 88.5273 92.832C88.7139 92.736 88.8899 92.6213 89.0553 92.488C89.2259 92.3547 89.3913 92.2027 89.5513 92.032V90.352ZM84.9513 87.04C85.3993 86.608 85.8819 86.2853 86.3993 86.072C86.9166 85.8587 87.4899 85.752 88.1193 85.752C88.5726 85.752 88.9753 85.8267 89.3273 85.976C89.6793 86.1253 89.9753 86.3333 90.2153 86.6C90.4553 86.8667 90.6366 87.1893 90.7593 87.568C90.8819 87.9467 90.9433 88.3627 90.9433 88.816V94H90.3113C90.1726 94 90.0659 93.9787 89.9913 93.936C89.9166 93.888 89.8579 93.7973 89.8153 93.664L89.6553 92.896C89.4419 93.0933 89.2339 93.2693 89.0312 93.424C88.8286 93.5733 88.6153 93.7013 88.3913 93.808C88.1673 93.9093 87.9273 93.9867 87.6713 94.04C87.4206 94.0987 87.1406 94.128 86.8313 94.128C86.5166 94.128 86.2206 94.0853 85.9433 94C85.6659 93.9093 85.4233 93.776 85.2153 93.6C85.0126 93.424 84.8499 93.2027 84.7273 92.936C84.6099 92.664 84.5513 92.344 84.5513 91.976C84.5513 91.656 84.6393 91.3493 84.8153 91.056C84.9913 90.7573 85.2766 90.4933 85.6713 90.264C86.0659 90.0347 86.5806 89.848 87.2153 89.704C87.8499 89.5547 88.6286 89.4693 89.5513 89.448V88.816C89.5513 88.1867 89.4153 87.712 89.1433 87.392C88.8713 87.0667 88.4739 86.904 87.9513 86.904C87.5993 86.904 87.3033 86.9493 87.0633 87.04C86.8286 87.1253 86.6233 87.224 86.4473 87.336C86.2766 87.4427 86.1273 87.5413 85.9993 87.632C85.8766 87.7173 85.7539 87.76 85.6313 87.76C85.5353 87.76 85.4526 87.736 85.3833 87.688C85.3139 87.6347 85.2553 87.5707 85.2072 87.496L84.9513 87.04ZM97.8324 87.232C97.7684 87.3493 97.6697 87.408 97.5364 87.408C97.4564 87.408 97.3657 87.3787 97.2644 87.32C97.163 87.2613 97.0377 87.1973 96.8884 87.128C96.7444 87.0533 96.571 86.9867 96.3684 86.928C96.1657 86.864 95.9257 86.832 95.6484 86.832C95.4084 86.832 95.1924 86.864 95.0004 86.928C94.8084 86.9867 94.643 87.0693 94.5044 87.176C94.371 87.2827 94.267 87.408 94.1924 87.552C94.123 87.6907 94.0884 87.8427 94.0884 88.008C94.0884 88.216 94.147 88.3893 94.2644 88.528C94.387 88.6667 94.547 88.7867 94.7444 88.888C94.9417 88.9893 95.1657 89.08 95.4164 89.16C95.667 89.2347 95.923 89.3173 96.1844 89.408C96.451 89.4933 96.7097 89.5893 96.9604 89.696C97.211 89.8027 97.435 89.936 97.6324 90.096C97.8297 90.256 97.987 90.4533 98.1044 90.688C98.227 90.9173 98.2884 91.1947 98.2884 91.52C98.2884 91.8933 98.2217 92.24 98.0884 92.56C97.955 92.8747 97.7577 93.1493 97.4964 93.384C97.235 93.6133 96.915 93.7947 96.5364 93.928C96.1577 94.0613 95.7204 94.128 95.2244 94.128C94.659 94.128 94.147 94.0373 93.6884 93.856C93.2297 93.6693 92.8404 93.432 92.5204 93.144L92.8564 92.6C92.899 92.5307 92.9497 92.4773 93.0084 92.44C93.067 92.4027 93.1417 92.384 93.2324 92.384C93.3284 92.384 93.4297 92.4213 93.5364 92.496C93.643 92.5707 93.771 92.6533 93.9204 92.744C94.075 92.8347 94.2617 92.9173 94.4804 92.992C94.699 93.0667 94.971 93.104 95.2964 93.104C95.5737 93.104 95.8164 93.0693 96.0244 93C96.2324 92.9253 96.4057 92.8267 96.5444 92.704C96.683 92.5813 96.7844 92.44 96.8484 92.28C96.9177 92.12 96.9524 91.9493 96.9524 91.768C96.9524 91.544 96.891 91.36 96.7684 91.216C96.651 91.0667 96.4937 90.9413 96.2964 90.84C96.099 90.7333 95.8724 90.6427 95.6164 90.568C95.3657 90.488 95.107 90.4053 94.8404 90.32C94.579 90.2347 94.3204 90.1387 94.0644 90.032C93.8137 89.92 93.5897 89.7813 93.3924 89.616C93.195 89.4507 93.035 89.248 92.9124 89.008C92.795 88.7627 92.7364 88.4667 92.7364 88.12C92.7364 87.8107 92.8004 87.5147 92.9284 87.232C93.0564 86.944 93.243 86.6933 93.4884 86.48C93.7337 86.2613 94.035 86.088 94.3924 85.96C94.7497 85.832 95.1577 85.768 95.6164 85.768C96.1497 85.768 96.627 85.8533 97.0484 86.024C97.475 86.1893 97.843 86.4187 98.1524 86.712L97.8324 87.232ZM101.466 82.216V89.152H101.834C101.941 89.152 102.029 89.1387 102.098 89.112C102.173 89.08 102.25 89.0187 102.33 88.928L104.89 86.184C104.965 86.0933 105.042 86.024 105.122 85.976C105.208 85.9227 105.32 85.896 105.458 85.896H106.746L103.762 89.072C103.618 89.2533 103.464 89.3947 103.298 89.496C103.394 89.56 103.48 89.6347 103.554 89.72C103.634 89.8 103.709 89.8933 103.778 90L106.946 94H105.674C105.552 94 105.445 93.9813 105.354 93.944C105.269 93.9013 105.194 93.8267 105.13 93.72L102.466 90.4C102.386 90.288 102.306 90.216 102.226 90.184C102.152 90.1467 102.034 90.128 101.874 90.128H101.466V94H100.034V82.216H101.466ZM119.021 92.648C119.176 92.648 119.298 92.6933 119.389 92.784C119.48 92.8747 119.525 92.992 119.525 93.136V94H111.877V93.512C111.877 93.4107 111.898 93.3067 111.941 93.2C111.984 93.0933 112.05 92.9947 112.141 92.904L115.813 89.216C116.117 88.9067 116.394 88.6107 116.645 88.328C116.896 88.04 117.109 87.752 117.285 87.464C117.461 87.176 117.597 86.8853 117.693 86.592C117.789 86.2933 117.837 85.976 117.837 85.64C117.837 85.304 117.784 85.0107 117.677 84.76C117.57 84.504 117.424 84.2933 117.237 84.128C117.056 83.9627 116.84 83.84 116.589 83.76C116.338 83.6747 116.069 83.632 115.781 83.632C115.488 83.632 115.218 83.6747 114.973 83.76C114.728 83.8453 114.509 83.9653 114.317 84.12C114.13 84.2693 113.973 84.448 113.845 84.656C113.717 84.864 113.626 85.0933 113.573 85.344C113.509 85.5307 113.421 85.656 113.309 85.72C113.202 85.7787 113.05 85.7947 112.853 85.768L112.109 85.64C112.184 85.1173 112.328 84.656 112.541 84.256C112.76 83.8507 113.032 83.512 113.357 83.24C113.688 82.968 114.064 82.7627 114.485 82.624C114.906 82.48 115.362 82.408 115.853 82.408C116.338 82.408 116.792 82.48 117.213 82.624C117.634 82.768 118 82.9787 118.309 83.256C118.618 83.528 118.861 83.8613 119.037 84.256C119.213 84.6507 119.301 85.0987 119.301 85.6C119.301 86.0267 119.237 86.424 119.109 86.792C118.981 87.1547 118.808 87.5013 118.589 87.832C118.37 88.1627 118.117 88.4853 117.829 88.8C117.546 89.1147 117.245 89.432 116.925 89.752L113.901 92.84C114.114 92.7813 114.33 92.736 114.549 92.704C114.768 92.6667 114.978 92.648 115.181 92.648H119.021Z" fill="black"/>
<path d="M326.444 88C326.444 88.3956 326.33 88.7822 326.117 89.1111C325.903 89.44 325.599 89.6964 325.244 89.8478C324.889 89.9991 324.498 90.0387 324.121 89.9616C323.743 89.8844 323.397 89.6939 323.125 89.4142C322.853 89.1345 322.668 88.7781 322.593 88.3902C322.518 88.0022 322.556 87.6001 322.704 87.2346C322.851 86.8692 323.1 86.5568 323.42 86.3371C323.739 86.1173 324.115 86 324.5 86C325.016 86 325.51 86.2107 325.875 86.5858C326.24 86.9609 326.444 87.4696 326.444 88ZM318.944 86C318.56 86 318.184 86.1173 317.864 86.3371C317.544 86.5568 317.295 86.8692 317.148 87.2346C317.001 87.6001 316.962 88.0022 317.037 88.3902C317.112 88.7781 317.298 89.1345 317.57 89.4142C317.841 89.6939 318.188 89.8844 318.565 89.9616C318.942 90.0387 319.333 89.9991 319.689 89.8478C320.044 89.6964 320.348 89.44 320.561 89.1111C320.775 88.7822 320.889 88.3956 320.889 88C320.889 87.4696 320.684 86.9609 320.319 86.5858C319.955 86.2107 319.46 86 318.944 86ZM330.056 86C329.671 86 329.295 86.1173 328.975 86.3371C328.656 86.5568 328.406 86.8692 328.259 87.2346C328.112 87.6001 328.073 88.0022 328.148 88.3902C328.224 88.7781 328.409 89.1345 328.681 89.4142C328.953 89.6939 329.299 89.8844 329.676 89.9616C330.053 90.0387 330.444 89.9991 330.8 89.8478C331.155 89.6964 331.459 89.44 331.672 89.1111C331.886 88.7822 332 88.3956 332 88C332 87.7374 331.95 87.4773 331.852 87.2346C331.754 86.992 331.611 86.7715 331.43 86.5858C331.25 86.4001 331.036 86.2528 330.8 86.1522C330.564 86.0517 330.311 86 330.056 86Z" fill="black"/>
<rect x="28.75" y="111.75" width="16.5" height="16.5" rx="1.25" stroke="#7A7A7A" stroke-width="1.5"/>
<path d="M35 124.4L31 120.4L32.4 119L35 121.6L41.6 115L43 116.4L35 124.4Z" fill="white"/>
<path d="M59.328 116.328C59.28 116.408 59.2267 116.469 59.168 116.512C59.1147 116.549 59.048 116.568 58.968 116.568C58.8773 116.568 58.7707 116.523 58.648 116.432C58.5253 116.341 58.3707 116.243 58.184 116.136C58.0027 116.024 57.7813 115.923 57.52 115.832C57.264 115.741 56.952 115.696 56.584 115.696C56.2373 115.696 55.9307 115.744 55.664 115.84C55.4027 115.931 55.1813 116.056 55 116.216C54.824 116.376 54.6907 116.565 54.6 116.784C54.5093 116.997 54.464 117.229 54.464 117.48C54.464 117.8 54.5413 118.067 54.696 118.28C54.856 118.488 55.064 118.667 55.32 118.816C55.5813 118.965 55.8747 119.096 56.2 119.208C56.5307 119.315 56.8667 119.427 57.208 119.544C57.5547 119.661 57.8907 119.795 58.216 119.944C58.5467 120.088 58.84 120.272 59.096 120.496C59.3573 120.72 59.5653 120.995 59.72 121.32C59.88 121.645 59.96 122.045 59.96 122.52C59.96 123.021 59.8747 123.493 59.704 123.936C59.5333 124.373 59.2827 124.755 58.952 125.08C58.6267 125.405 58.224 125.661 57.744 125.848C57.2693 126.035 56.728 126.128 56.12 126.128C55.3733 126.128 54.696 125.995 54.088 125.728C53.48 125.456 52.96 125.091 52.528 124.632L52.976 123.896C53.0187 123.837 53.0693 123.789 53.128 123.752C53.192 123.709 53.2613 123.688 53.336 123.688C53.4053 123.688 53.4827 123.717 53.568 123.776C53.6587 123.829 53.76 123.899 53.872 123.984C53.984 124.069 54.112 124.163 54.256 124.264C54.4 124.365 54.5627 124.459 54.744 124.544C54.9307 124.629 55.1413 124.701 55.376 124.76C55.6107 124.813 55.8747 124.84 56.168 124.84C56.536 124.84 56.864 124.789 57.152 124.688C57.44 124.587 57.6827 124.445 57.88 124.264C58.0827 124.077 58.2373 123.856 58.344 123.6C58.4507 123.344 58.504 123.059 58.504 122.744C58.504 122.397 58.424 122.115 58.264 121.896C58.1093 121.672 57.904 121.485 57.648 121.336C57.392 121.187 57.0987 121.061 56.768 120.96C56.4373 120.853 56.1013 120.747 55.76 120.64C55.4187 120.528 55.0827 120.4 54.752 120.256C54.4213 120.112 54.128 119.925 53.872 119.696C53.616 119.467 53.408 119.181 53.248 118.84C53.0933 118.493 53.016 118.067 53.016 117.56C53.016 117.155 53.0933 116.763 53.248 116.384C53.408 116.005 53.6373 115.669 53.936 115.376C54.24 115.083 54.6107 114.848 55.048 114.672C55.4907 114.496 55.9973 114.408 56.568 114.408C57.208 114.408 57.7893 114.509 58.312 114.712C58.84 114.915 59.304 115.208 59.704 115.592L59.328 116.328ZM68.3233 117.896V126H67.4753C67.2726 126 67.1446 125.901 67.0913 125.704L66.9793 124.832C66.6273 125.221 66.2326 125.536 65.7953 125.776C65.3579 126.011 64.8566 126.128 64.2913 126.128C63.8486 126.128 63.4566 126.056 63.1153 125.912C62.7793 125.763 62.4966 125.555 62.2673 125.288C62.0379 125.021 61.8646 124.699 61.7473 124.32C61.6353 123.941 61.5793 123.523 61.5793 123.064V117.896H63.0033V123.064C63.0033 123.677 63.1419 124.152 63.4193 124.488C63.7019 124.824 64.1313 124.992 64.7073 124.992C65.1286 124.992 65.5206 124.893 65.8833 124.696C66.2513 124.493 66.5899 124.216 66.8993 123.864V117.896H68.3233ZM72.0131 124.048C72.2745 124.4 72.5598 124.648 72.8691 124.792C73.1838 124.936 73.5278 125.008 73.9011 125.008C74.6638 125.008 75.2478 124.739 75.6531 124.2C76.0585 123.661 76.2611 122.859 76.2611 121.792C76.2611 120.8 76.0798 120.072 75.7171 119.608C75.3598 119.139 74.8478 118.904 74.1811 118.904C73.7171 118.904 73.3118 119.011 72.9651 119.224C72.6238 119.437 72.3065 119.739 72.0131 120.128V124.048ZM72.0131 119.064C72.3545 118.669 72.7385 118.355 73.1651 118.12C73.5971 117.885 74.0931 117.768 74.6531 117.768C75.1278 117.768 75.5545 117.859 75.9331 118.04C76.3171 118.221 76.6425 118.485 76.9091 118.832C77.1758 119.173 77.3785 119.589 77.5171 120.08C77.6611 120.571 77.7331 121.123 77.7331 121.736C77.7331 122.392 77.6531 122.989 77.4931 123.528C77.3331 124.067 77.1011 124.528 76.7971 124.912C76.4985 125.291 76.1331 125.587 75.7011 125.8C75.2691 126.008 74.7838 126.112 74.2451 126.112C73.7118 126.112 73.2611 126.013 72.8931 125.816C72.5305 125.613 72.2131 125.328 71.9411 124.96L71.8691 125.696C71.8265 125.899 71.7038 126 71.5011 126H70.5811V114.216H72.0131V119.064ZM81.9129 126.128C81.2729 126.128 80.7795 125.949 80.4329 125.592C80.0915 125.235 79.9209 124.72 79.9209 124.048V119.088H78.9449C78.8595 119.088 78.7875 119.064 78.7289 119.016C78.6702 118.963 78.6409 118.883 78.6409 118.776V118.208L79.9689 118.04L80.2969 115.536C80.3129 115.456 80.3475 115.392 80.4009 115.344C80.4595 115.291 80.5342 115.264 80.6249 115.264H81.3449V118.056H83.6889V119.088H81.3449V123.952C81.3449 124.293 81.4275 124.547 81.5929 124.712C81.7582 124.877 81.9715 124.96 82.2329 124.96C82.3822 124.96 82.5102 124.941 82.6169 124.904C82.7289 124.861 82.8249 124.816 82.9049 124.768C82.9849 124.72 83.0515 124.677 83.1049 124.64C83.1635 124.597 83.2142 124.576 83.2569 124.576C83.3315 124.576 83.3982 124.621 83.4569 124.712L83.8729 125.392C83.6275 125.621 83.3315 125.803 82.9849 125.936C82.6382 126.064 82.2809 126.128 81.9129 126.128ZM89.5513 122.352C88.8953 122.373 88.3353 122.427 87.8713 122.512C87.4126 122.592 87.0366 122.699 86.7433 122.832C86.4553 122.965 86.2446 123.123 86.1113 123.304C85.9833 123.485 85.9193 123.688 85.9193 123.912C85.9193 124.125 85.9539 124.309 86.0233 124.464C86.0926 124.619 86.1859 124.747 86.3033 124.848C86.4259 124.944 86.5673 125.016 86.7273 125.064C86.8926 125.107 87.0686 125.128 87.2553 125.128C87.5059 125.128 87.7353 125.104 87.9433 125.056C88.1513 125.003 88.3459 124.928 88.5273 124.832C88.7139 124.736 88.8899 124.621 89.0553 124.488C89.2259 124.355 89.3913 124.203 89.5513 124.032V122.352ZM84.9513 119.04C85.3993 118.608 85.8819 118.285 86.3993 118.072C86.9166 117.859 87.4899 117.752 88.1193 117.752C88.5726 117.752 88.9753 117.827 89.3273 117.976C89.6793 118.125 89.9753 118.333 90.2153 118.6C90.4553 118.867 90.6366 119.189 90.7593 119.568C90.8819 119.947 90.9433 120.363 90.9433 120.816V126H90.3113C90.1726 126 90.0659 125.979 89.9913 125.936C89.9166 125.888 89.8579 125.797 89.8153 125.664L89.6553 124.896C89.4419 125.093 89.2339 125.269 89.0312 125.424C88.8286 125.573 88.6153 125.701 88.3913 125.808C88.1673 125.909 87.9273 125.987 87.6713 126.04C87.4206 126.099 87.1406 126.128 86.8313 126.128C86.5166 126.128 86.2206 126.085 85.9433 126C85.6659 125.909 85.4233 125.776 85.2153 125.6C85.0126 125.424 84.8499 125.203 84.7273 124.936C84.6099 124.664 84.5513 124.344 84.5513 123.976C84.5513 123.656 84.6393 123.349 84.8153 123.056C84.9913 122.757 85.2766 122.493 85.6713 122.264C86.0659 122.035 86.5806 121.848 87.2153 121.704C87.8499 121.555 88.6286 121.469 89.5513 121.448V120.816C89.5513 120.187 89.4153 119.712 89.1433 119.392C88.8713 119.067 88.4739 118.904 87.9513 118.904C87.5993 118.904 87.3033 118.949 87.0633 119.04C86.8286 119.125 86.6233 119.224 86.4473 119.336C86.2766 119.443 86.1273 119.541 85.9993 119.632C85.8766 119.717 85.7539 119.76 85.6313 119.76C85.5353 119.76 85.4526 119.736 85.3833 119.688C85.3139 119.635 85.2553 119.571 85.2072 119.496L84.9513 119.04ZM97.8324 119.232C97.7684 119.349 97.6697 119.408 97.5364 119.408C97.4564 119.408 97.3657 119.379 97.2644 119.32C97.163 119.261 97.0377 119.197 96.8884 119.128C96.7444 119.053 96.571 118.987 96.3684 118.928C96.1657 118.864 95.9257 118.832 95.6484 118.832C95.4084 118.832 95.1924 118.864 95.0004 118.928C94.8084 118.987 94.643 119.069 94.5044 119.176C94.371 119.283 94.267 119.408 94.1924 119.552C94.123 119.691 94.0884 119.843 94.0884 120.008C94.0884 120.216 94.147 120.389 94.2644 120.528C94.387 120.667 94.547 120.787 94.7444 120.888C94.9417 120.989 95.1657 121.08 95.4164 121.16C95.667 121.235 95.923 121.317 96.1844 121.408C96.451 121.493 96.7097 121.589 96.9604 121.696C97.211 121.803 97.435 121.936 97.6324 122.096C97.8297 122.256 97.987 122.453 98.1044 122.688C98.227 122.917 98.2884 123.195 98.2884 123.52C98.2884 123.893 98.2217 124.24 98.0884 124.56C97.955 124.875 97.7577 125.149 97.4964 125.384C97.235 125.613 96.915 125.795 96.5364 125.928C96.1577 126.061 95.7204 126.128 95.2244 126.128C94.659 126.128 94.147 126.037 93.6884 125.856C93.2297 125.669 92.8404 125.432 92.5204 125.144L92.8564 124.6C92.899 124.531 92.9497 124.477 93.0084 124.44C93.067 124.403 93.1417 124.384 93.2324 124.384C93.3284 124.384 93.4297 124.421 93.5364 124.496C93.643 124.571 93.771 124.653 93.9204 124.744C94.075 124.835 94.2617 124.917 94.4804 124.992C94.699 125.067 94.971 125.104 95.2964 125.104C95.5737 125.104 95.8164 125.069 96.0244 125C96.2324 124.925 96.4057 124.827 96.5444 124.704C96.683 124.581 96.7844 124.44 96.8484 124.28C96.9177 124.12 96.9524 123.949 96.9524 123.768C96.9524 123.544 96.891 123.36 96.7684 123.216C96.651 123.067 96.4937 122.941 96.2964 122.84C96.099 122.733 95.8724 122.643 95.6164 122.568C95.3657 122.488 95.107 122.405 94.8404 122.32C94.579 122.235 94.3204 122.139 94.0644 122.032C93.8137 121.92 93.5897 121.781 93.3924 121.616C93.195 121.451 93.035 121.248 92.9124 121.008C92.795 120.763 92.7364 120.467 92.7364 120.12C92.7364 119.811 92.8004 119.515 92.9284 119.232C93.0564 118.944 93.243 118.693 93.4884 118.48C93.7337 118.261 94.035 118.088 94.3924 117.96C94.7497 117.832 95.1577 117.768 95.6164 117.768C96.1497 117.768 96.627 117.853 97.0484 118.024C97.475 118.189 97.843 118.419 98.1524 118.712L97.8324 119.232ZM101.466 114.216V121.152H101.834C101.941 121.152 102.029 121.139 102.098 121.112C102.173 121.08 102.25 121.019 102.33 120.928L104.89 118.184C104.965 118.093 105.042 118.024 105.122 117.976C105.208 117.923 105.32 117.896 105.458 117.896H106.746L103.762 121.072C103.618 121.253 103.464 121.395 103.298 121.496C103.394 121.56 103.48 121.635 103.554 121.72C103.634 121.8 103.709 121.893 103.778 122L106.946 126H105.674C105.552 126 105.445 125.981 105.354 125.944C105.269 125.901 105.194 125.827 105.13 125.72L102.466 122.4C102.386 122.288 102.306 122.216 102.226 122.184C102.152 122.147 102.034 122.128 101.874 122.128H101.466V126H100.034V114.216H101.466ZM112.165 117.64C112.24 117.117 112.384 116.656 112.597 116.256C112.81 115.851 113.08 115.512 113.405 115.24C113.736 114.968 114.112 114.763 114.533 114.624C114.96 114.48 115.418 114.408 115.909 114.408C116.394 114.408 116.842 114.477 117.253 114.616C117.664 114.755 118.016 114.952 118.309 115.208C118.608 115.464 118.84 115.773 119.005 116.136C119.17 116.499 119.253 116.901 119.253 117.344C119.253 117.707 119.205 118.032 119.109 118.32C119.018 118.603 118.885 118.851 118.709 119.064C118.538 119.277 118.33 119.459 118.085 119.608C117.84 119.757 117.565 119.88 117.261 119.976C118.008 120.168 118.568 120.499 118.941 120.968C119.32 121.432 119.509 122.013 119.509 122.712C119.509 123.24 119.408 123.715 119.205 124.136C119.008 124.557 118.736 124.917 118.389 125.216C118.042 125.509 117.637 125.736 117.173 125.896C116.714 126.051 116.221 126.128 115.693 126.128C115.085 126.128 114.565 126.053 114.133 125.904C113.701 125.749 113.336 125.539 113.037 125.272C112.738 125.005 112.493 124.691 112.301 124.328C112.109 123.96 111.946 123.563 111.813 123.136L112.429 122.88C112.589 122.811 112.744 122.792 112.893 122.824C113.048 122.856 113.16 122.944 113.229 123.088C113.298 123.237 113.384 123.416 113.485 123.624C113.592 123.832 113.736 124.032 113.917 124.224C114.098 124.416 114.328 124.579 114.605 124.712C114.888 124.845 115.245 124.912 115.677 124.912C116.077 124.912 116.426 124.848 116.725 124.72C117.029 124.587 117.28 124.416 117.477 124.208C117.68 124 117.832 123.768 117.933 123.512C118.034 123.256 118.085 123.003 118.085 122.752C118.085 122.443 118.045 122.16 117.965 121.904C117.885 121.648 117.736 121.427 117.517 121.24C117.298 121.053 116.997 120.907 116.613 120.8C116.234 120.693 115.746 120.64 115.149 120.64V119.608C115.64 119.603 116.056 119.549 116.397 119.448C116.744 119.347 117.024 119.208 117.237 119.032C117.456 118.856 117.613 118.645 117.709 118.4C117.81 118.155 117.861 117.883 117.861 117.584C117.861 117.253 117.808 116.965 117.701 116.72C117.6 116.475 117.458 116.272 117.277 116.112C117.096 115.952 116.88 115.832 116.629 115.752C116.384 115.672 116.117 115.632 115.829 115.632C115.541 115.632 115.272 115.675 115.021 115.76C114.776 115.845 114.557 115.965 114.365 116.12C114.178 116.269 114.021 116.448 113.893 116.656C113.765 116.864 113.674 117.093 113.621 117.344C113.552 117.531 113.464 117.656 113.357 117.72C113.256 117.779 113.106 117.795 112.909 117.768L112.165 117.64Z" fill="black"/>
<path d="M326.444 120C326.444 120.396 326.33 120.782 326.117 121.111C325.903 121.44 325.599 121.696 325.244 121.848C324.889 121.999 324.498 122.039 324.121 121.962C323.743 121.884 323.397 121.694 323.125 121.414C322.853 121.135 322.668 120.778 322.593 120.39C322.518 120.002 322.556 119.6 322.704 119.235C322.851 118.869 323.1 118.557 323.42 118.337C323.739 118.117 324.115 118 324.5 118C325.016 118 325.51 118.211 325.875 118.586C326.24 118.961 326.444 119.47 326.444 120ZM318.944 118C318.56 118 318.184 118.117 317.864 118.337C317.544 118.557 317.295 118.869 317.148 119.235C317.001 119.6 316.962 120.002 317.037 120.39C317.112 120.778 317.298 121.135 317.57 121.414C317.841 121.694 318.188 121.884 318.565 121.962C318.942 122.039 319.333 121.999 319.689 121.848C320.044 121.696 320.348 121.44 320.561 121.111C320.775 120.782 320.889 120.396 320.889 120C320.889 119.47 320.684 118.961 320.319 118.586C319.955 118.211 319.46 118 318.944 118ZM330.056 118C329.671 118 329.295 118.117 328.975 118.337C328.656 118.557 328.406 118.869 328.259 119.235C328.112 119.6 328.073 120.002 328.148 120.39C328.224 120.778 328.409 121.135 328.681 121.414C328.953 121.694 329.299 121.884 329.676 121.962C330.053 122.039 330.444 121.999 330.8 121.848C331.155 121.696 331.459 121.44 331.672 121.111C331.886 120.782 332 120.396 332 120C332 119.737 331.95 119.477 331.852 119.235C331.754 118.992 331.611 118.772 331.43 118.586C331.25 118.4 331.036 118.253 330.8 118.152C330.564 118.052 330.311 118 330.056 118Z" fill="black"/>
<rect x="28.75" y="143.75" width="16.5" height="16.5" rx="1.25" stroke="#7A7A7A" stroke-width="1.5"/>
<path d="M35 156.4L31 152.4L32.4 151L35 153.6L41.6 147L43 148.4L35 156.4Z" fill="white"/>
<path d="M59.328 148.328C59.28 148.408 59.2267 148.469 59.168 148.512C59.1147 148.549 59.048 148.568 58.968 148.568C58.8773 148.568 58.7707 148.523 58.648 148.432C58.5253 148.341 58.3707 148.243 58.184 148.136C58.0027 148.024 57.7813 147.923 57.52 147.832C57.264 147.741 56.952 147.696 56.584 147.696C56.2373 147.696 55.9307 147.744 55.664 147.84C55.4027 147.931 55.1813 148.056 55 148.216C54.824 148.376 54.6907 148.565 54.6 148.784C54.5093 148.997 54.464 149.229 54.464 149.48C54.464 149.8 54.5413 150.067 54.696 150.28C54.856 150.488 55.064 150.667 55.32 150.816C55.5813 150.965 55.8747 151.096 56.2 151.208C56.5307 151.315 56.8667 151.427 57.208 151.544C57.5547 151.661 57.8907 151.795 58.216 151.944C58.5467 152.088 58.84 152.272 59.096 152.496C59.3573 152.72 59.5653 152.995 59.72 153.32C59.88 153.645 59.96 154.045 59.96 154.52C59.96 155.021 59.8747 155.493 59.704 155.936C59.5333 156.373 59.2827 156.755 58.952 157.08C58.6267 157.405 58.224 157.661 57.744 157.848C57.2693 158.035 56.728 158.128 56.12 158.128C55.3733 158.128 54.696 157.995 54.088 157.728C53.48 157.456 52.96 157.091 52.528 156.632L52.976 155.896C53.0187 155.837 53.0693 155.789 53.128 155.752C53.192 155.709 53.2613 155.688 53.336 155.688C53.4053 155.688 53.4827 155.717 53.568 155.776C53.6587 155.829 53.76 155.899 53.872 155.984C53.984 156.069 54.112 156.163 54.256 156.264C54.4 156.365 54.5627 156.459 54.744 156.544C54.9307 156.629 55.1413 156.701 55.376 156.76C55.6107 156.813 55.8747 156.84 56.168 156.84C56.536 156.84 56.864 156.789 57.152 156.688C57.44 156.587 57.6827 156.445 57.88 156.264C58.0827 156.077 58.2373 155.856 58.344 155.6C58.4507 155.344 58.504 155.059 58.504 154.744C58.504 154.397 58.424 154.115 58.264 153.896C58.1093 153.672 57.904 153.485 57.648 153.336C57.392 153.187 57.0987 153.061 56.768 152.96C56.4373 152.853 56.1013 152.747 55.76 152.64C55.4187 152.528 55.0827 152.4 54.752 152.256C54.4213 152.112 54.128 151.925 53.872 151.696C53.616 151.467 53.408 151.181 53.248 150.84C53.0933 150.493 53.016 150.067 53.016 149.56C53.016 149.155 53.0933 148.763 53.248 148.384C53.408 148.005 53.6373 147.669 53.936 147.376C54.24 147.083 54.6107 146.848 55.048 146.672C55.4907 146.496 55.9973 146.408 56.568 146.408C57.208 146.408 57.7893 146.509 58.312 146.712C58.84 146.915 59.304 147.208 59.704 147.592L59.328 148.328ZM68.3233 149.896V158H67.4753C67.2726 158 67.1446 157.901 67.0913 157.704L66.9793 156.832C66.6273 157.221 66.2326 157.536 65.7953 157.776C65.3579 158.011 64.8566 158.128 64.2913 158.128C63.8486 158.128 63.4566 158.056 63.1153 157.912C62.7793 157.763 62.4966 157.555 62.2673 157.288C62.0379 157.021 61.8646 156.699 61.7473 156.32C61.6353 155.941 61.5793 155.523 61.5793 155.064V149.896H63.0033V155.064C63.0033 155.677 63.1419 156.152 63.4193 156.488C63.7019 156.824 64.1313 156.992 64.7073 156.992C65.1286 156.992 65.5206 156.893 65.8833 156.696C66.2513 156.493 66.5899 156.216 66.8993 155.864V149.896H68.3233ZM72.0131 156.048C72.2745 156.4 72.5598 156.648 72.8691 156.792C73.1838 156.936 73.5278 157.008 73.9011 157.008C74.6638 157.008 75.2478 156.739 75.6531 156.2C76.0585 155.661 76.2611 154.859 76.2611 153.792C76.2611 152.8 76.0798 152.072 75.7171 151.608C75.3598 151.139 74.8478 150.904 74.1811 150.904C73.7171 150.904 73.3118 151.011 72.9651 151.224C72.6238 151.437 72.3065 151.739 72.0131 152.128V156.048ZM72.0131 151.064C72.3545 150.669 72.7385 150.355 73.1651 150.12C73.5971 149.885 74.0931 149.768 74.6531 149.768C75.1278 149.768 75.5545 149.859 75.9331 150.04C76.3171 150.221 76.6425 150.485 76.9091 150.832C77.1758 151.173 77.3785 151.589 77.5171 152.08C77.6611 152.571 77.7331 153.123 77.7331 153.736C77.7331 154.392 77.6531 154.989 77.4931 155.528C77.3331 156.067 77.1011 156.528 76.7971 156.912C76.4985 157.291 76.1331 157.587 75.7011 157.8C75.2691 158.008 74.7838 158.112 74.2451 158.112C73.7118 158.112 73.2611 158.013 72.8931 157.816C72.5305 157.613 72.2131 157.328 71.9411 156.96L71.8691 157.696C71.8265 157.899 71.7038 158 71.5011 158H70.5811V146.216H72.0131V151.064ZM81.9129 158.128C81.2729 158.128 80.7795 157.949 80.4329 157.592C80.0915 157.235 79.9209 156.72 79.9209 156.048V151.088H78.9449C78.8595 151.088 78.7875 151.064 78.7289 151.016C78.6702 150.963 78.6409 150.883 78.6409 150.776V150.208L79.9689 150.04L80.2969 147.536C80.3129 147.456 80.3475 147.392 80.4009 147.344C80.4595 147.291 80.5342 147.264 80.6249 147.264H81.3449V150.056H83.6889V151.088H81.3449V155.952C81.3449 156.293 81.4275 156.547 81.5929 156.712C81.7582 156.877 81.9715 156.96 82.2329 156.96C82.3822 156.96 82.5102 156.941 82.6169 156.904C82.7289 156.861 82.8249 156.816 82.9049 156.768C82.9849 156.72 83.0515 156.677 83.1049 156.64C83.1635 156.597 83.2142 156.576 83.2569 156.576C83.3315 156.576 83.3982 156.621 83.4569 156.712L83.8729 157.392C83.6275 157.621 83.3315 157.803 82.9849 157.936C82.6382 158.064 82.2809 158.128 81.9129 158.128ZM89.5513 154.352C88.8953 154.373 88.3353 154.427 87.8713 154.512C87.4126 154.592 87.0366 154.699 86.7433 154.832C86.4553 154.965 86.2446 155.123 86.1113 155.304C85.9833 155.485 85.9193 155.688 85.9193 155.912C85.9193 156.125 85.9539 156.309 86.0233 156.464C86.0926 156.619 86.1859 156.747 86.3033 156.848C86.4259 156.944 86.5673 157.016 86.7273 157.064C86.8926 157.107 87.0686 157.128 87.2553 157.128C87.5059 157.128 87.7353 157.104 87.9433 157.056C88.1513 157.003 88.3459 156.928 88.5273 156.832C88.7139 156.736 88.8899 156.621 89.0553 156.488C89.2259 156.355 89.3913 156.203 89.5513 156.032V154.352ZM84.9513 151.04C85.3993 150.608 85.8819 150.285 86.3993 150.072C86.9166 149.859 87.4899 149.752 88.1193 149.752C88.5726 149.752 88.9753 149.827 89.3273 149.976C89.6793 150.125 89.9753 150.333 90.2153 150.6C90.4553 150.867 90.6366 151.189 90.7593 151.568C90.8819 151.947 90.9433 152.363 90.9433 152.816V158H90.3113C90.1726 158 90.0659 157.979 89.9913 157.936C89.9166 157.888 89.8579 157.797 89.8153 157.664L89.6553 156.896C89.4419 157.093 89.2339 157.269 89.0312 157.424C88.8286 157.573 88.6153 157.701 88.3913 157.808C88.1673 157.909 87.9273 157.987 87.6713 158.04C87.4206 158.099 87.1406 158.128 86.8313 158.128C86.5166 158.128 86.2206 158.085 85.9433 158C85.6659 157.909 85.4233 157.776 85.2153 157.6C85.0126 157.424 84.8499 157.203 84.7273 156.936C84.6099 156.664 84.5513 156.344 84.5513 155.976C84.5513 155.656 84.6393 155.349 84.8153 155.056C84.9913 154.757 85.2766 154.493 85.6713 154.264C86.0659 154.035 86.5806 153.848 87.2153 153.704C87.8499 153.555 88.6286 153.469 89.5513 153.448V152.816C89.5513 152.187 89.4153 151.712 89.1433 151.392C88.8713 151.067 88.4739 150.904 87.9513 150.904C87.5993 150.904 87.3033 150.949 87.0633 151.04C86.8286 151.125 86.6233 151.224 86.4473 151.336C86.2766 151.443 86.1273 151.541 85.9993 151.632C85.8766 151.717 85.7539 151.76 85.6313 151.76C85.5353 151.76 85.4526 151.736 85.3833 151.688C85.3139 151.635 85.2553 151.571 85.2072 151.496L84.9513 151.04ZM97.8324 151.232C97.7684 151.349 97.6697 151.408 97.5364 151.408C97.4564 151.408 97.3657 151.379 97.2644 151.32C97.163 151.261 97.0377 151.197 96.8884 151.128C96.7444 151.053 96.571 150.987 96.3684 150.928C96.1657 150.864 95.9257 150.832 95.6484 150.832C95.4084 150.832 95.1924 150.864 95.0004 150.928C94.8084 150.987 94.643 151.069 94.5044 151.176C94.371 151.283 94.267 151.408 94.1924 151.552C94.123 151.691 94.0884 151.843 94.0884 152.008C94.0884 152.216 94.147 152.389 94.2644 152.528C94.387 152.667 94.547 152.787 94.7444 152.888C94.9417 152.989 95.1657 153.08 95.4164 153.16C95.667 153.235 95.923 153.317 96.1844 153.408C96.451 153.493 96.7097 153.589 96.9604 153.696C97.211 153.803 97.435 153.936 97.6324 154.096C97.8297 154.256 97.987 154.453 98.1044 154.688C98.227 154.917 98.2884 155.195 98.2884 155.52C98.2884 155.893 98.2217 156.24 98.0884 156.56C97.955 156.875 97.7577 157.149 97.4964 157.384C97.235 157.613 96.915 157.795 96.5364 157.928C96.1577 158.061 95.7204 158.128 95.2244 158.128C94.659 158.128 94.147 158.037 93.6884 157.856C93.2297 157.669 92.8404 157.432 92.5204 157.144L92.8564 156.6C92.899 156.531 92.9497 156.477 93.0084 156.44C93.067 156.403 93.1417 156.384 93.2324 156.384C93.3284 156.384 93.4297 156.421 93.5364 156.496C93.643 156.571 93.771 156.653 93.9204 156.744C94.075 156.835 94.2617 156.917 94.4804 156.992C94.699 157.067 94.971 157.104 95.2964 157.104C95.5737 157.104 95.8164 157.069 96.0244 157C96.2324 156.925 96.4057 156.827 96.5444 156.704C96.683 156.581 96.7844 156.44 96.8484 156.28C96.9177 156.12 96.9524 155.949 96.9524 155.768C96.9524 155.544 96.891 155.36 96.7684 155.216C96.651 155.067 96.4937 154.941 96.2964 154.84C96.099 154.733 95.8724 154.643 95.6164 154.568C95.3657 154.488 95.107 154.405 94.8404 154.32C94.579 154.235 94.3204 154.139 94.0644 154.032C93.8137 153.92 93.5897 153.781 93.3924 153.616C93.195 153.451 93.035 153.248 92.9124 153.008C92.795 152.763 92.7364 152.467 92.7364 152.12C92.7364 151.811 92.8004 151.515 92.9284 151.232C93.0564 150.944 93.243 150.693 93.4884 150.48C93.7337 150.261 94.035 150.088 94.3924 149.96C94.7497 149.832 95.1577 149.768 95.6164 149.768C96.1497 149.768 96.627 149.853 97.0484 150.024C97.475 150.189 97.843 150.419 98.1524 150.712L97.8324 151.232ZM101.466 146.216V153.152H101.834C101.941 153.152 102.029 153.139 102.098 153.112C102.173 153.08 102.25 153.019 102.33 152.928L104.89 150.184C104.965 150.093 105.042 150.024 105.122 149.976C105.208 149.923 105.32 149.896 105.458 149.896H106.746L103.762 153.072C103.618 153.253 103.464 153.395 103.298 153.496C103.394 153.56 103.48 153.635 103.554 153.72C103.634 153.8 103.709 153.893 103.778 154L106.946 158H105.674C105.552 158 105.445 157.981 105.354 157.944C105.269 157.901 105.194 157.827 105.13 157.72L102.466 154.4C102.386 154.288 102.306 154.216 102.226 154.184C102.152 154.147 102.034 154.128 101.874 154.128H101.466V158H100.034V146.216H101.466ZM116.965 153.864V149.136C116.965 148.997 116.97 148.845 116.981 148.68C116.992 148.515 117.008 148.347 117.029 148.176L112.853 153.864H116.965ZM119.949 153.864V154.68C119.949 154.765 119.922 154.837 119.869 154.896C119.821 154.955 119.744 154.984 119.637 154.984H118.213V158H116.965V154.984H111.877C111.77 154.984 111.677 154.955 111.597 154.896C111.522 154.832 111.474 154.755 111.453 154.664L111.309 153.936L116.885 146.536H118.213V153.864H119.949Z" fill="black"/>
<path d="M326.444 152C326.444 152.396 326.33 152.782 326.117 153.111C325.903 153.44 325.599 153.696 325.244 153.848C324.889 153.999 324.498 154.039 324.121 153.962C323.743 153.884 323.397 153.694 323.125 153.414C322.853 153.135 322.668 152.778 322.593 152.39C322.518 152.002 322.556 151.6 322.704 151.235C322.851 150.869 323.1 150.557 323.42 150.337C323.739 150.117 324.115 150 324.5 150C325.016 150 325.51 150.211 325.875 150.586C326.24 150.961 326.444 151.47 326.444 152ZM318.944 150C318.56 150 318.184 150.117 317.864 150.337C317.544 150.557 317.295 150.869 317.148 151.235C317.001 151.6 316.962 152.002 317.037 152.39C317.112 152.778 317.298 153.135 317.57 153.414C317.841 153.694 318.188 153.884 318.565 153.962C318.942 154.039 319.333 153.999 319.689 153.848C320.044 153.696 320.348 153.44 320.561 153.111C320.775 152.782 320.889 152.396 320.889 152C320.889 151.47 320.684 150.961 320.319 150.586C319.955 150.211 319.46 150 318.944 150ZM330.056 150C329.671 150 329.295 150.117 328.975 150.337C328.656 150.557 328.406 150.869 328.259 151.235C328.112 151.6 328.073 152.002 328.148 152.39C328.224 152.778 328.409 153.135 328.681 153.414C328.953 153.694 329.299 153.884 329.676 153.962C330.053 154.039 330.444 153.999 330.8 153.848C331.155 153.696 331.459 153.44 331.672 153.111C331.886 152.782 332 152.396 332 152C332 151.737 331.95 151.477 331.852 151.235C331.754 150.992 331.611 150.772 331.43 150.586C331.25 150.4 331.036 150.253 330.8 150.152C330.564 150.052 330.311 150 330.056 150Z" fill="black"/>
<rect x="44" y="23" width="298" height="4" rx="2" fill="black" fill-opacity="0.12"/>
<rect x="44" y="23" width="74.5" height="4" rx="2" fill="#79AC78"/>
<path d="M21.922 26.986C22.038 26.986 22.13 27.02 22.198 27.088C22.266 27.156 22.3 27.244 22.3 27.352V28H16.564V27.634C16.564 27.558 16.58 27.48 16.612 27.4C16.644 27.32 16.694 27.246 16.762 27.178L19.516 24.412C19.744 24.18 19.952 23.958 20.14 23.746C20.328 23.53 20.488 23.314 20.62 23.098C20.752 22.882 20.854 22.664 20.926 22.444C20.998 22.22 21.034 21.982 21.034 21.73C21.034 21.478 20.994 21.258 20.914 21.07C20.834 20.878 20.724 20.72 20.584 20.596C20.448 20.472 20.286 20.38 20.098 20.32C19.91 20.256 19.708 20.224 19.492 20.224C19.272 20.224 19.07 20.256 18.886 20.32C18.702 20.384 18.538 20.474 18.394 20.59C18.254 20.702 18.136 20.836 18.04 20.992C17.944 21.148 17.876 21.32 17.836 21.508C17.788 21.648 17.722 21.742 17.638 21.79C17.558 21.834 17.444 21.846 17.296 21.826L16.738 21.73C16.794 21.338 16.902 20.992 17.062 20.692C17.226 20.388 17.43 20.134 17.674 19.93C17.922 19.726 18.204 19.572 18.52 19.468C18.836 19.36 19.178 19.306 19.546 19.306C19.91 19.306 20.25 19.36 20.566 19.468C20.882 19.576 21.156 19.734 21.388 19.942C21.62 20.146 21.802 20.396 21.934 20.692C22.066 20.988 22.132 21.324 22.132 21.7C22.132 22.02 22.084 22.318 21.988 22.594C21.892 22.866 21.762 23.126 21.598 23.374C21.434 23.622 21.244 23.864 21.028 24.1C20.816 24.336 20.59 24.574 20.35 24.814L18.082 27.13C18.242 27.086 18.404 27.052 18.568 27.028C18.732 27 18.89 26.986 19.042 26.986H21.922ZM25.1329 22.648C25.5809 22.552 25.9929 22.504 26.3689 22.504C26.8169 22.504 27.2129 22.57 27.5569 22.702C27.9009 22.834 28.1869 23.016 28.4149 23.248C28.6469 23.48 28.8209 23.754 28.9369 24.07C29.0569 24.386 29.1169 24.73 29.1169 25.102C29.1169 25.558 29.0369 25.97 28.8769 26.338C28.7209 26.706 28.5029 27.022 28.2229 27.286C27.9469 27.546 27.6209 27.746 27.2449 27.886C26.8689 28.026 26.4629 28.096 26.0269 28.096C25.7749 28.096 25.5329 28.07 25.3009 28.018C25.0689 27.97 24.8509 27.904 24.6469 27.82C24.4469 27.736 24.2609 27.64 24.0889 27.532C23.9169 27.424 23.7649 27.31 23.6329 27.19L23.9629 26.734C24.0349 26.63 24.1289 26.578 24.2449 26.578C24.3249 26.578 24.4149 26.61 24.5149 26.674C24.6149 26.734 24.7369 26.802 24.8809 26.878C25.0249 26.954 25.1929 27.024 25.3849 27.088C25.5809 27.148 25.8129 27.178 26.0809 27.178C26.3809 27.178 26.6509 27.13 26.8909 27.034C27.1309 26.938 27.3369 26.802 27.5089 26.626C27.6809 26.446 27.8129 26.232 27.9049 25.984C27.9969 25.736 28.0429 25.458 28.0429 25.15C28.0429 24.882 28.0029 24.64 27.9229 24.424C27.8469 24.208 27.7289 24.024 27.5689 23.872C27.4129 23.72 27.2169 23.602 26.9809 23.518C26.7449 23.434 26.4689 23.392 26.1529 23.392C25.9369 23.392 25.7109 23.41 25.4749 23.446C25.2429 23.482 25.0049 23.54 24.7609 23.62L24.0889 23.422L24.7789 19.402H28.8529V19.87C28.8529 20.022 28.8049 20.148 28.7089 20.248C28.6169 20.344 28.4569 20.392 28.2289 20.392H25.5289L25.1329 22.648ZM34.2539 21.478C34.2539 21.814 34.2019 22.116 34.0979 22.384C33.9939 22.648 33.8539 22.872 33.6779 23.056C33.5059 23.236 33.3039 23.374 33.0719 23.47C32.8439 23.566 32.6019 23.614 32.3459 23.614C32.0779 23.614 31.8279 23.566 31.5959 23.47C31.3639 23.374 31.1619 23.236 30.9899 23.056C30.8219 22.872 30.6899 22.648 30.5939 22.384C30.4979 22.116 30.4499 21.814 30.4499 21.478C30.4499 21.134 30.4979 20.828 30.5939 20.56C30.6899 20.292 30.8219 20.066 30.9899 19.882C31.1619 19.698 31.3639 19.558 31.5959 19.462C31.8279 19.366 32.0779 19.318 32.3459 19.318C32.6179 19.318 32.8699 19.366 33.1019 19.462C33.3339 19.558 33.5359 19.698 33.7079 19.882C33.8799 20.066 34.0139 20.292 34.1099 20.56C34.2059 20.828 34.2539 21.134 34.2539 21.478ZM33.4259 21.478C33.4259 21.214 33.3979 20.99 33.3419 20.806C33.2859 20.622 33.2079 20.472 33.1079 20.356C33.0119 20.236 32.8979 20.15 32.7659 20.098C32.6339 20.046 32.4939 20.02 32.3459 20.02C32.1979 20.02 32.0599 20.046 31.9319 20.098C31.8039 20.15 31.6919 20.236 31.5959 20.356C31.4999 20.472 31.4239 20.622 31.3679 20.806C31.3119 20.99 31.2839 21.214 31.2839 21.478C31.2839 21.738 31.3119 21.96 31.3679 22.144C31.4239 22.324 31.4999 22.472 31.5959 22.588C31.6919 22.7 31.8039 22.782 31.9319 22.834C32.0599 22.882 32.1979 22.906 32.3459 22.906C32.4939 22.906 32.6339 22.882 32.7659 22.834C32.8979 22.782 33.0119 22.7 33.1079 22.588C33.2079 22.472 33.2859 22.324 33.3419 22.144C33.3979 21.96 33.4259 21.738 33.4259 21.478ZM37.2959 19.582C37.3359 19.534 37.3819 19.492 37.4339 19.456C37.4899 19.42 37.5639 19.402 37.6559 19.402H38.4299L32.1419 27.826C32.1059 27.878 32.0599 27.92 32.0039 27.952C31.9479 27.984 31.8799 28 31.7999 28H31.0139L37.2959 19.582ZM39.0119 25.972C39.0119 26.308 38.9599 26.608 38.8559 26.872C38.7519 27.136 38.6119 27.36 38.4359 27.544C38.2639 27.724 38.0619 27.862 37.8299 27.958C37.6019 28.054 37.3599 28.102 37.1039 28.102C36.8319 28.102 36.5799 28.054 36.3479 27.958C36.1199 27.862 35.9199 27.724 35.7479 27.544C35.5799 27.36 35.4479 27.136 35.3519 26.872C35.2559 26.608 35.2079 26.308 35.2079 25.972C35.2079 25.628 35.2559 25.322 35.3519 25.054C35.4479 24.782 35.5799 24.554 35.7479 24.37C35.9199 24.186 36.1199 24.046 36.3479 23.95C36.5799 23.854 36.8319 23.806 37.1039 23.806C37.3719 23.806 37.6219 23.854 37.8539 23.95C38.0899 24.046 38.2919 24.186 38.4599 24.37C38.6319 24.554 38.7659 24.782 38.8619 25.054C38.9619 25.322 39.0119 25.628 39.0119 25.972ZM38.1839 25.972C38.1839 25.708 38.1559 25.484 38.0999 25.3C38.0439 25.112 37.9659 24.96 37.8659 24.844C37.7699 24.728 37.6559 24.644 37.5239 24.592C37.3919 24.54 37.2519 24.514 37.1039 24.514C36.9559 24.514 36.8159 24.54 36.6839 24.592C36.5559 24.644 36.4439 24.728 36.3479 24.844C36.2519 24.96 36.1759 25.112 36.1199 25.3C36.0679 25.484 36.0419 25.708 36.0419 25.972C36.0419 26.232 36.0679 26.452 36.1199 26.632C36.1759 26.812 36.2519 26.96 36.3479 27.076C36.4439 27.188 36.5559 27.27 36.6839 27.322C36.8159 27.37 36.9559 27.394 37.1039 27.394C37.2519 27.394 37.3919 27.37 37.5239 27.322C37.6559 27.27 37.7699 27.188 37.8659 27.076C37.9659 26.96 38.0439 26.812 38.0999 26.632C38.1559 26.452 38.1839 26.232 38.1839 25.972Z" fill="black"/>
<rect x="25" y="181" width="73" height="32" rx="8" fill="black" fill-opacity="0.12"/>
<path d="M39.72 198.34L38.595 195.425C38.5617 195.338 38.5267 195.238 38.49 195.125C38.4533 195.008 38.4183 194.885 38.385 194.755C38.315 195.025 38.2433 195.25 38.17 195.43L37.045 198.34H39.72ZM41.74 201H40.99C40.9033 201 40.8333 200.978 40.78 200.935C40.7267 200.892 40.6867 200.837 40.66 200.77L39.99 199.04H36.775L36.105 200.77C36.085 200.83 36.0467 200.883 35.99 200.93C35.9333 200.977 35.8633 201 35.78 201H35.03L37.895 193.835H38.875L41.74 201ZM45.6652 197.14C45.4985 196.917 45.3185 196.762 45.1252 196.675C44.9318 196.585 44.7152 196.54 44.4752 196.54C44.0052 196.54 43.6435 196.708 43.3902 197.045C43.1368 197.382 43.0102 197.862 43.0102 198.485C43.0102 198.815 43.0385 199.098 43.0952 199.335C43.1518 199.568 43.2352 199.762 43.3452 199.915C43.4552 200.065 43.5902 200.175 43.7502 200.245C43.9102 200.315 44.0918 200.35 44.2952 200.35C44.5885 200.35 44.8435 200.283 45.0602 200.15C45.2802 200.017 45.4818 199.828 45.6652 199.585V197.14ZM46.5552 193.635V201H46.0252C45.8985 201 45.8185 200.938 45.7852 200.815L45.7052 200.2C45.4885 200.46 45.2418 200.67 44.9652 200.83C44.6885 200.99 44.3685 201.07 44.0052 201.07C43.7152 201.07 43.4518 201.015 43.2152 200.905C42.9785 200.792 42.7768 200.627 42.6102 200.41C42.4435 200.193 42.3152 199.923 42.2252 199.6C42.1352 199.277 42.0902 198.905 42.0902 198.485C42.0902 198.112 42.1402 197.765 42.2402 197.445C42.3402 197.122 42.4835 196.842 42.6702 196.605C42.8568 196.368 43.0852 196.183 43.3552 196.05C43.6285 195.913 43.9352 195.845 44.2752 195.845C44.5852 195.845 44.8502 195.898 45.0702 196.005C45.2935 196.108 45.4918 196.253 45.6652 196.44V193.635H46.5552ZM51.2609 197.14C51.0942 196.917 50.9142 196.762 50.7209 196.675C50.5275 196.585 50.3109 196.54 50.0709 196.54C49.6009 196.54 49.2392 196.708 48.9859 197.045C48.7325 197.382 48.6059 197.862 48.6059 198.485C48.6059 198.815 48.6342 199.098 48.6909 199.335C48.7475 199.568 48.8309 199.762 48.9409 199.915C49.0509 200.065 49.1859 200.175 49.3459 200.245C49.5059 200.315 49.6875 200.35 49.8909 200.35C50.1842 200.35 50.4392 200.283 50.6559 200.15C50.8759 200.017 51.0775 199.828 51.2609 199.585V197.14ZM52.1509 193.635V201H51.6209C51.4942 201 51.4142 200.938 51.3809 200.815L51.3009 200.2C51.0842 200.46 50.8375 200.67 50.5609 200.83C50.2842 200.99 49.9642 201.07 49.6009 201.07C49.3109 201.07 49.0475 201.015 48.8109 200.905C48.5742 200.792 48.3725 200.627 48.2059 200.41C48.0392 200.193 47.9109 199.923 47.8209 199.6C47.7309 199.277 47.6859 198.905 47.6859 198.485C47.6859 198.112 47.7359 197.765 47.8359 197.445C47.9359 197.122 48.0792 196.842 48.2659 196.605C48.4525 196.368 48.6809 196.183 48.9509 196.05C49.2242 195.913 49.5309 195.845 49.8709 195.845C50.1809 195.845 50.4459 195.898 50.6659 196.005C50.8892 196.108 51.0875 196.253 51.2609 196.44V193.635H52.1509ZM58.8602 198.72C58.4502 198.733 58.1002 198.767 57.8102 198.82C57.5235 198.87 57.2885 198.937 57.1052 199.02C56.9252 199.103 56.7935 199.202 56.7102 199.315C56.6302 199.428 56.5902 199.555 56.5902 199.695C56.5902 199.828 56.6118 199.943 56.6552 200.04C56.6985 200.137 56.7568 200.217 56.8302 200.28C56.9068 200.34 56.9952 200.385 57.0952 200.415C57.1985 200.442 57.3085 200.455 57.4252 200.455C57.5818 200.455 57.7252 200.44 57.8552 200.41C57.9852 200.377 58.1068 200.33 58.2202 200.27C58.3368 200.21 58.4468 200.138 58.5502 200.055C58.6568 199.972 58.7602 199.877 58.8602 199.77V198.72ZM55.9852 196.65C56.2652 196.38 56.5668 196.178 56.8902 196.045C57.2135 195.912 57.5718 195.845 57.9652 195.845C58.2485 195.845 58.5002 195.892 58.7202 195.985C58.9402 196.078 59.1252 196.208 59.2752 196.375C59.4252 196.542 59.5385 196.743 59.6152 196.98C59.6918 197.217 59.7302 197.477 59.7302 197.76V201H59.3352C59.2485 201 59.1818 200.987 59.1352 200.96C59.0885 200.93 59.0518 200.873 59.0252 200.79L58.9252 200.31C58.7918 200.433 58.6618 200.543 58.5352 200.64C58.4085 200.733 58.2752 200.813 58.1352 200.88C57.9952 200.943 57.8452 200.992 57.6852 201.025C57.5285 201.062 57.3535 201.08 57.1602 201.08C56.9635 201.08 56.7785 201.053 56.6052 201C56.4318 200.943 56.2802 200.86 56.1502 200.75C56.0235 200.64 55.9218 200.502 55.8452 200.335C55.7718 200.165 55.7352 199.965 55.7352 199.735C55.7352 199.535 55.7902 199.343 55.9002 199.16C56.0102 198.973 56.1885 198.808 56.4352 198.665C56.6818 198.522 57.0035 198.405 57.4002 198.315C57.7968 198.222 58.2835 198.168 58.8602 198.155V197.76C58.8602 197.367 58.7752 197.07 58.6052 196.87C58.4352 196.667 58.1868 196.565 57.8602 196.565C57.6402 196.565 57.4552 196.593 57.3052 196.65C57.1585 196.703 57.0302 196.765 56.9202 196.835C56.8135 196.902 56.7202 196.963 56.6402 197.02C56.5635 197.073 56.4868 197.1 56.4102 197.1C56.3502 197.1 56.2985 197.085 56.2552 197.055C56.2118 197.022 56.1752 196.982 56.1452 196.935L55.9852 196.65ZM61.9259 196.67C62.0359 196.547 62.1525 196.435 62.2759 196.335C62.3992 196.235 62.5292 196.15 62.6659 196.08C62.8059 196.007 62.9525 195.952 63.1059 195.915C63.2625 195.875 63.4309 195.855 63.6109 195.855C63.8875 195.855 64.1309 195.902 64.3409 195.995C64.5542 196.085 64.7309 196.215 64.8709 196.385C65.0142 196.552 65.1225 196.753 65.1959 196.99C65.2692 197.227 65.3059 197.488 65.3059 197.775V201H64.4109V197.775C64.4109 197.392 64.3225 197.095 64.1459 196.885C63.9725 196.672 63.7075 196.565 63.3509 196.565C63.0875 196.565 62.8409 196.628 62.6109 196.755C62.3842 196.882 62.1742 197.053 61.9809 197.27V201H61.0859V195.935H61.6209C61.7475 195.935 61.8259 195.997 61.8559 196.12L61.9259 196.67ZM70.1606 195.935V201H69.2706V195.935H70.1606ZM70.3506 194.345C70.3506 194.432 70.3323 194.513 70.2956 194.59C70.2623 194.663 70.2156 194.73 70.1556 194.79C70.099 194.847 70.0306 194.892 69.9506 194.925C69.874 194.958 69.7923 194.975 69.7056 194.975C69.619 194.975 69.5373 194.958 69.4606 194.925C69.3873 194.892 69.3223 194.847 69.2656 194.79C69.209 194.73 69.164 194.663 69.1306 194.59C69.0973 194.513 69.0806 194.432 69.0806 194.345C69.0806 194.258 69.0973 194.177 69.1306 194.1C69.164 194.02 69.209 193.952 69.2656 193.895C69.3223 193.835 69.3873 193.788 69.4606 193.755C69.5373 193.722 69.619 193.705 69.7056 193.705C69.7923 193.705 69.874 193.722 69.9506 193.755C70.0306 193.788 70.099 193.835 70.1556 193.895C70.2156 193.952 70.2623 194.02 70.2956 194.1C70.3323 194.177 70.3506 194.258 70.3506 194.345ZM73.178 201.08C72.778 201.08 72.4696 200.968 72.253 200.745C72.0396 200.522 71.933 200.2 71.933 199.78V196.68H71.323C71.2696 196.68 71.2246 196.665 71.188 196.635C71.1513 196.602 71.133 196.552 71.133 196.485V196.13L71.963 196.025L72.168 194.46C72.178 194.41 72.1996 194.37 72.233 194.34C72.2696 194.307 72.3163 194.29 72.373 194.29H72.823V196.035H74.288V196.68H72.823V199.72C72.823 199.933 72.8746 200.092 72.978 200.195C73.0813 200.298 73.2146 200.35 73.378 200.35C73.4713 200.35 73.5513 200.338 73.618 200.315C73.688 200.288 73.748 200.26 73.798 200.23C73.848 200.2 73.8896 200.173 73.923 200.15C73.9596 200.123 73.9913 200.11 74.018 200.11C74.0646 200.11 74.1063 200.138 74.143 200.195L74.403 200.62C74.2496 200.763 74.0646 200.877 73.848 200.96C73.6313 201.04 73.408 201.08 73.178 201.08ZM78.5677 197.915C78.5677 197.708 78.5377 197.52 78.4777 197.35C78.421 197.177 78.336 197.028 78.2227 196.905C78.1127 196.778 77.9777 196.682 77.8177 196.615C77.6577 196.545 77.476 196.51 77.2727 196.51C76.846 196.51 76.5077 196.635 76.2577 196.885C76.011 197.132 75.8577 197.475 75.7977 197.915H78.5677ZM79.2877 200.29C79.1777 200.423 79.046 200.54 78.8927 200.64C78.7393 200.737 78.5743 200.817 78.3977 200.88C78.2243 200.943 78.0443 200.99 77.8577 201.02C77.671 201.053 77.486 201.07 77.3027 201.07C76.9527 201.07 76.6293 201.012 76.3327 200.895C76.0393 200.775 75.7843 200.602 75.5677 200.375C75.3543 200.145 75.1877 199.862 75.0677 199.525C74.9477 199.188 74.8877 198.802 74.8877 198.365C74.8877 198.012 74.941 197.682 75.0477 197.375C75.1577 197.068 75.3143 196.803 75.5177 196.58C75.721 196.353 75.9693 196.177 76.2627 196.05C76.556 195.92 76.886 195.855 77.2527 195.855C77.556 195.855 77.836 195.907 78.0927 196.01C78.3527 196.11 78.576 196.257 78.7627 196.45C78.9527 196.64 79.101 196.877 79.2077 197.16C79.3143 197.44 79.3677 197.76 79.3677 198.12C79.3677 198.26 79.3527 198.353 79.3227 198.4C79.2927 198.447 79.236 198.47 79.1527 198.47H75.7677C75.7777 198.79 75.821 199.068 75.8977 199.305C75.9777 199.542 76.0877 199.74 76.2277 199.9C76.3677 200.057 76.5343 200.175 76.7277 200.255C76.921 200.332 77.1377 200.37 77.3777 200.37C77.601 200.37 77.7927 200.345 77.9527 200.295C78.116 200.242 78.256 200.185 78.3727 200.125C78.4893 200.065 78.586 200.01 78.6627 199.96C78.7427 199.907 78.811 199.88 78.8677 199.88C78.941 199.88 78.9977 199.908 79.0377 199.965L79.2877 200.29ZM80.4609 201V195.935H80.9959C81.1225 195.935 81.2009 195.997 81.2309 196.12L81.2959 196.64C81.4825 196.41 81.6925 196.222 81.9259 196.075C82.1592 195.928 82.4292 195.855 82.7359 195.855C83.0759 195.855 83.3509 195.95 83.5609 196.14C83.7742 196.33 83.9275 196.587 84.0209 196.91C84.0942 196.727 84.1875 196.568 84.3009 196.435C84.4175 196.302 84.5475 196.192 84.6909 196.105C84.8342 196.018 84.9859 195.955 85.1459 195.915C85.3092 195.875 85.4742 195.855 85.6409 195.855C85.9075 195.855 86.1442 195.898 86.3509 195.985C86.5609 196.068 86.7375 196.192 86.8809 196.355C87.0275 196.518 87.1392 196.72 87.2159 196.96C87.2925 197.197 87.3309 197.468 87.3309 197.775V201H86.4359V197.775C86.4359 197.378 86.3492 197.078 86.1759 196.875C86.0025 196.668 85.7525 196.565 85.4259 196.565C85.2792 196.565 85.1392 196.592 85.0059 196.645C84.8759 196.695 84.7609 196.77 84.6609 196.87C84.5609 196.97 84.4809 197.097 84.4209 197.25C84.3642 197.4 84.3359 197.575 84.3359 197.775V201H83.4409V197.775C83.4409 197.368 83.3592 197.065 83.1959 196.865C83.0325 196.665 82.7942 196.565 82.4809 196.565C82.2609 196.565 82.0575 196.625 81.8709 196.745C81.6842 196.862 81.5125 197.022 81.3559 197.225V201H80.4609Z" fill="black" fill-opacity="0.87"/>
</svg>
