<?xml version="1.0" encoding="UTF-8"?>
<svg id="Layer_2" data-name="Layer 2" xmlns="http://www.w3.org/2000/svg" viewBox="0 0 132.14 43.06">
  <defs>
    <style>
      .cls-1 {
        fill: #79ac78;
      }

      .cls-1, .cls-2 {
        stroke-width: 0px;
      }

      .cls-2 {
        fill: #f7db6a;
      }
    </style>
  </defs>
  <g id="Layer_1-2" data-name="Layer 1">
    <g>
      <path class="cls-2" d="M43.79,43.06H6.35c-5.12,0-8.13-5.75-5.21-9.96L22.23,2.73c1.19-1.71,3.13-2.73,5.21-2.73h37.43c5.12,0,8.13,5.75,5.21,9.96l-21.08,30.38c-1.19,1.71-3.13,2.73-5.21,2.73Z"/>
      <path class="cls-1" d="M104.7,43.06h-37.43c-5.12,0-8.13-5.75-5.21-9.96L83.14,2.73c1.19-1.71,3.13-2.73,5.21-2.73h37.43c5.12,0,8.13,5.75,5.21,9.96l-21.08,30.38c-1.19,1.71-3.13,2.73-5.21,2.73Z"/>
    </g>
  </g>
</svg>